<svg viewBox="0 0 1112.5999755859375 400" xmlns="http://www.w3.org/2000/svg"><g><g><g><g><g><line x1="51.53200149536133" y1="376.55199909210205" x2="46.53200149536133" y2="376.55199909210205" style="visibility: inherit;" fill="rgb(0, 0, 0)" stroke="rgb(204, 204, 204)" stroke-width="1px"></line><line x1="51.53200149536133" y1="338.8967991828918" x2="46.53200149536133" y2="338.8967991828918" style="visibility: inherit;" fill="rgb(0, 0, 0)" stroke="rgb(204, 204, 204)" stroke-width="1px"></line><line x1="51.53200149536133" y1="301.24159927368163" x2="46.53200149536133" y2="301.24159927368163" style="visibility: inherit;" fill="rgb(0, 0, 0)" stroke="rgb(204, 204, 204)" stroke-width="1px"></line><line x1="51.53200149536133" y1="263.58639936447145" x2="46.53200149536133" y2="263.58639936447145" style="visibility: inherit;" fill="rgb(0, 0, 0)" stroke="rgb(204, 204, 204)" stroke-width="1px"></line><line x1="51.53200149536133" y1="225.93119945526126" x2="46.53200149536133" y2="225.93119945526126" style="visibility: inherit;" fill="rgb(0, 0, 0)" stroke="rgb(204, 204, 204)" stroke-width="1px"></line><line x1="51.53200149536133" y1="188.27599954605103" x2="46.53200149536133" y2="188.27599954605103" style="visibility: inherit;" fill="rgb(0, 0, 0)" stroke="rgb(204, 204, 204)" stroke-width="1px"></line><line x1="51.53200149536133" y1="150.6207996368408" x2="46.53200149536133" y2="150.6207996368408" style="visibility: inherit;" fill="rgb(0, 0, 0)" stroke="rgb(204, 204, 204)" stroke-width="1px"></line><line x1="51.53200149536133" y1="112.96559972763063" x2="46.53200149536133" y2="112.96559972763063" style="visibility: inherit;" fill="rgb(0, 0, 0)" stroke="rgb(204, 204, 204)" stroke-width="1px"></line><line x1="51.53200149536133" y1="75.3103998184204" x2="46.53200149536133" y2="75.3103998184204" style="visibility: inherit;" fill="rgb(0, 0, 0)" stroke="rgb(204, 204, 204)" stroke-width="1px"></line><line x1="51.53200149536133" y1="37.65519990921024" x2="46.53200149536133" y2="37.65519990921024" style="visibility: inherit;" fill="rgb(0, 0, 0)" stroke="rgb(204, 204, 204)" stroke-width="1px"></line><line x1="51.53200149536133" y1="0" x2="46.53200149536133" y2="0" style="visibility: inherit;" fill="rgb(0, 0, 0)" stroke="rgb(204, 204, 204)" stroke-width="1px"></line></g><g transform="translate(41.53200149536133, 0)"><text style="text-anchor: end; visibility: hidden; font-family: Roboto, sans-serif; font-size: 12px; font-weight: 200;" x="0" y="376.55199909210205" dx="0em" dy="0.3em" fill="rgb(33, 33, 33)" stroke="none" stroke-width="1px">0.15</text><text style="text-anchor: end; visibility: inherit; font-family: Roboto, sans-serif; font-size: 12px; font-weight: 200;" x="0" y="338.8967991828918" dx="0em" dy="0.3em" fill="rgb(33, 33, 33)" stroke="none" stroke-width="1px">0.2</text><text style="text-anchor: end; visibility: inherit; font-family: Roboto, sans-serif; font-size: 12px; font-weight: 200;" x="0" y="301.24159927368163" dx="0em" dy="0.3em" fill="rgb(33, 33, 33)" stroke="none" stroke-width="1px">0.25</text><text style="text-anchor: end; visibility: inherit; font-family: Roboto, sans-serif; font-size: 12px; font-weight: 200;" x="0" y="263.58639936447145" dx="0em" dy="0.3em" fill="rgb(33, 33, 33)" stroke="none" stroke-width="1px">0.3</text><text style="text-anchor: end; visibility: inherit; font-family: Roboto, sans-serif; font-size: 12px; font-weight: 200;" x="0" y="225.93119945526126" dx="0em" dy="0.3em" fill="rgb(33, 33, 33)" stroke="none" stroke-width="1px">0.35</text><text style="text-anchor: end; visibility: inherit; font-family: Roboto, sans-serif; font-size: 12px; font-weight: 200;" x="0" y="188.27599954605103" dx="0em" dy="0.3em" fill="rgb(33, 33, 33)" stroke="none" stroke-width="1px">0.4</text><text style="text-anchor: end; visibility: inherit; font-family: Roboto, sans-serif; font-size: 12px; font-weight: 200;" x="0" y="150.6207996368408" dx="0em" dy="0.3em" fill="rgb(33, 33, 33)" stroke="none" stroke-width="1px">0.45</text><text style="text-anchor: end; visibility: inherit; font-family: Roboto, sans-serif; font-size: 12px; font-weight: 200;" x="0" y="112.96559972763063" dx="0em" dy="0.3em" fill="rgb(33, 33, 33)" stroke="none" stroke-width="1px">0.5</text><text style="text-anchor: end; visibility: inherit; font-family: Roboto, sans-serif; font-size: 12px; font-weight: 200;" x="0" y="75.3103998184204" dx="0em" dy="0.3em" fill="rgb(33, 33, 33)" stroke="none" stroke-width="1px">0.55</text><text style="text-anchor: end; visibility: inherit; font-family: Roboto, sans-serif; font-size: 12px; font-weight: 200;" x="0" y="37.65519990921024" dx="0em" dy="0.3em" fill="rgb(33, 33, 33)" stroke="none" stroke-width="1px">0.6</text><text style="text-anchor: end; visibility: hidden; font-family: Roboto, sans-serif; font-size: 12px; font-weight: 200;" x="0" y="0" dx="0em" dy="0.3em" fill="rgb(33, 33, 33)" stroke="none" stroke-width="1px">0.65</text></g><line x1="51.53200149536133" y1="0" x2="51.53200149536133" y2="376.55199909210205" fill="rgb(0, 0, 0)" stroke="rgb(204, 204, 204)" stroke-width="1px"></line></g></g><g transform="translate(51, 0)" clip-path="url(#clip_0)"><clipPath id="clip_0"><rect width="1061" height="376"></rect></clipPath><g><g><g><line x1="0" y1="0" x2="0" y2="376.55199909210205" fill="rgb(0, 0, 0)" stroke="rgb(66, 66, 66)" stroke-width="1px" opacity="0.25"></line><line x1="88.42233320871988" y1="0" x2="88.42233320871988" y2="376.55199909210205" fill="rgb(0, 0, 0)" stroke="rgb(66, 66, 66)" stroke-width="1px" opacity="0.25"></line><line x1="176.84466641743975" y1="0" x2="176.84466641743975" y2="376.55199909210205" fill="rgb(0, 0, 0)" stroke="rgb(66, 66, 66)" stroke-width="1px" opacity="0.25"></line><line x1="265.26699962615965" y1="0" x2="265.26699962615965" y2="376.55199909210205" fill="rgb(0, 0, 0)" stroke="rgb(66, 66, 66)" stroke-width="1px" opacity="0.25"></line><line x1="353.6893328348795" y1="0" x2="353.6893328348795" y2="376.55199909210205" fill="rgb(0, 0, 0)" stroke="rgb(66, 66, 66)" stroke-width="1px" opacity="0.25"></line><line x1="442.1116660435994" y1="0" x2="442.1116660435994" y2="376.55199909210205" fill="rgb(0, 0, 0)" stroke="rgb(66, 66, 66)" stroke-width="1px" opacity="0.25"></line><line x1="530.5339992523193" y1="0" x2="530.5339992523193" y2="376.55199909210205" fill="rgb(0, 0, 0)" stroke="rgb(66, 66, 66)" stroke-width="1px" opacity="0.25"></line><line x1="618.9563324610392" y1="0" x2="618.9563324610392" y2="376.55199909210205" fill="rgb(0, 0, 0)" stroke="rgb(66, 66, 66)" stroke-width="1px" opacity="0.25"></line><line x1="707.378665669759" y1="0" x2="707.378665669759" y2="376.55199909210205" fill="rgb(0, 0, 0)" stroke="rgb(66, 66, 66)" stroke-width="1px" opacity="0.25"></line><line x1="795.8009988784789" y1="0" x2="795.8009988784789" y2="376.55199909210205" fill="rgb(0, 0, 0)" stroke="rgb(66, 66, 66)" stroke-width="1px" opacity="0.25"></line><line x1="884.2233320871989" y1="0" x2="884.2233320871989" y2="376.55199909210205" fill="rgb(0, 0, 0)" stroke="rgb(66, 66, 66)" stroke-width="1px" opacity="0.25"></line><line x1="972.6456652959187" y1="0" x2="972.6456652959187" y2="376.55199909210205" fill="rgb(0, 0, 0)" stroke="rgb(66, 66, 66)" stroke-width="1px" opacity="0.25"></line><line x1="1061.0679985046386" y1="0" x2="1061.0679985046386" y2="376.55199909210205" fill="rgb(0, 0, 0)" stroke="rgb(66, 66, 66)" stroke-width="1px" opacity="0.25"></line></g><g><line x1="0" y1="376.55199909210205" x2="1061.0679985046386" y2="376.55199909210205" fill="rgb(0, 0, 0)" stroke="rgb(66, 66, 66)" stroke-width="1px" opacity="0.25"></line><line x1="0" y1="338.8967991828918" x2="1061.0679985046386" y2="338.8967991828918" fill="rgb(0, 0, 0)" stroke="rgb(66, 66, 66)" stroke-width="1px" opacity="0.25"></line><line x1="0" y1="301.24159927368163" x2="1061.0679985046386" y2="301.24159927368163" fill="rgb(0, 0, 0)" stroke="rgb(66, 66, 66)" stroke-width="1px" opacity="0.25"></line><line x1="0" y1="263.58639936447145" x2="1061.0679985046386" y2="263.58639936447145" fill="rgb(0, 0, 0)" stroke="rgb(66, 66, 66)" stroke-width="1px" opacity="0.25"></line><line x1="0" y1="225.93119945526126" x2="1061.0679985046386" y2="225.93119945526126" fill="rgb(0, 0, 0)" stroke="rgb(66, 66, 66)" stroke-width="1px" opacity="0.25"></line><line x1="0" y1="188.27599954605103" x2="1061.0679985046386" y2="188.27599954605103" fill="rgb(0, 0, 0)" stroke="rgb(66, 66, 66)" stroke-width="1px" opacity="0.25"></line><line x1="0" y1="150.6207996368408" x2="1061.0679985046386" y2="150.6207996368408" fill="rgb(0, 0, 0)" stroke="rgb(66, 66, 66)" stroke-width="1px" opacity="0.25"></line><line x1="0" y1="112.96559972763063" x2="1061.0679985046386" y2="112.96559972763063" fill="rgb(0, 0, 0)" stroke="rgb(66, 66, 66)" stroke-width="1px" opacity="0.25"></line><line x1="0" y1="75.3103998184204" x2="1061.0679985046386" y2="75.3103998184204" fill="rgb(0, 0, 0)" stroke="rgb(66, 66, 66)" stroke-width="1px" opacity="0.25"></line><line x1="0" y1="37.65519990921024" x2="1061.0679985046386" y2="37.65519990921024" fill="rgb(0, 0, 0)" stroke="rgb(66, 66, 66)" stroke-width="1px" opacity="0.25"></line><line x1="0" y1="0" x2="1061.0679985046386" y2="0" fill="rgb(0, 0, 0)" stroke="rgb(66, 66, 66)" stroke-width="1px" opacity="0.25"></line></g></g></g><g><g><line x1="0" y1="489.51759881973265" x2="1061.0679985046386" y2="489.51759881973265" fill="rgb(0, 0, 0)" stroke="rgb(153, 153, 153)" stroke-width="1.5px"></line></g></g><g><g><line x1="88.42233320871988" y1="0" x2="88.42233320871988" y2="376.55199909210205" fill="rgb(0, 0, 0)" stroke="rgb(153, 153, 153)" stroke-width="1.5px"></line></g></g><g><g><g><g><g><path style="fill: none;" stroke="rgb(51, 187, 238)" stroke-width="2px" d="M92.84344986915588,355.0132259829563L97.26456652959186,334.3499359417692L101.68568319002787,318.341669708366L106.10679985046386,304.2880738753073L110.52791651089986,291.8609323318938L114.94903317133586,282.4938956077931L119.37014983177184,274.74407736616627L123.79126649220784,268.3664384499047L128.21238315264384,263.39187395607746L132.63349981307982,259.1968124557413L137.05461647351584,254.06572015821152L141.47573313395182,251.36128931252406L145.8968497943878,248.4453710109729L150.3179664548238,240.39736891480246L154.7390831152598,234.15610281786167L159.1601997756958,229.1476555702345L163.5813164361318,221.20229021687916L168.00243309656776,222.97353691606716L172.42354975700377,215.66114488202845L176.84466641743975,211.03298867772693L181.26578307787577,207.834457601501L185.68689973831175,201.72806697053892L190.10801639874774,195.7447065332837L194.52913305918372,190.19664809322185L198.95024971961973,183.463781859357L203.37136638005575,181.7737667162502L207.79248304049173,173.83119502623015L212.21359970092772,167.22808264687606L216.6347163613637,165.40503874064572L221.0558330217997,161.72052655684834L225.4769496822357,155.26231706456144L229.8980663426717,160.39451181289644L234.31918300310767,165.07041353509513L238.74029966354368,157.51323827281877L243.16141632397967,149.39416481172518L247.58253298441568,149.46307695551238L252.00364964485166,141.61189535447465L256.4247663052877,135.63597721919956L260.84588296572366,132.6227816143153L265.26699962615965,127.65183227112611L269.68811628659563,125.12111925118913L274.10923294703167,120.49990879842727L278.53034960746766,118.02842024918809L282.95146626790364,113.20174712003107L287.37258292833957,112.38431404172803L291.7936995887756,108.94168143676545L296.2148162492116,108.6534349515242L300.6359329096476,110.890415760799L305.05704957008356,106.47887759100611L309.4781662305196,107.62760024775082L313.8992828909556,103.16560956143165L318.3203995513916,102.77785414827568L322.74151621182756,99.80389634270223L327.1626328722636,98.38101769769024L331.5837495326996,95.62945875370767L336.0048661931355,94.52075846711244L340.42598285357155,95.7533700521311L344.84709951400754,94.68547476689932L349.2682161744435,92.74939923599878L353.6893328348795,88.81633815647095L358.11044949531555,89.67978282880267L362.53156615575153,89.77611323185128L366.9526828161875,87.81559899266115L371.3737994766235,84.83184616830296L375.79491613705954,84.24654535731855L380.2160327974955,82.84102386985197L384.63714945793146,84.28714997598716L389.05826611836744,82.29302240254968L393.4793827788035,80.94593597573274L397.90049943923947,83.18022639822586L402.32161609967545,81.74936693533567L406.7427327601115,78.45080237623192L411.1638494205475,75.26669480174073L415.58496608098346,76.39877253562945L420.0060827414194,77.37925689687023L424.42719940185543,75.1961317526272L428.8483160622914,73.70549966921794L433.2694327227274,72.11827545662483L437.6905493831634,71.55754817070891L442.1116660435994,69.26303968016215L446.5327827040354,76.89346274214147L450.9538993644714,74.57328838017199L455.3750160249074,73.87402872553794L459.7961326853434,71.34579093100574L464.21724934577935,72.5701528119622L468.63836600621534,71.1358296213637L473.0594826666514,68.58827215020469L477.48059932708736,66.8488694673341L481.90171598752335,66.22696425796205L486.32283264795933,68.83612304890015L490.7439493083954,71.96806524542164L495.16506596883136,69.65997776314286L499.58618262926734,69.26922591262931L504.0072992897033,66.02236168244825L508.42841595013937,64.8875867863299L512.8495326105754,63.574117248133376L517.2706492710113,62.876405045947884L521.6917659314473,63.451878363490344L526.1128825918834,61.35709551724764L530.5339992523193,60.73284836542612L534.9551159127552,64.39492503637179L539.3762325731913,63.1881506774261L543.7973492336272,64.42215818105592L548.2184658940633,61.909152204475184L552.6395825544993,59.79885522131304L557.0606992149353,58.20131015179787L561.4818158753712,59.441852587971496L565.9029325358073,59.64394296988253L570.3240491962432,60.277303120111895L574.7451658566791,60.86818741042468L579.1662825171152,60.34911602520137L583.5873991775512,57.62775347140804L588.0085158379873,56.6877809016797L592.4296324984232,56.84678943649917L596.8507491588592,56.038463439269506L601.2718658192952,57.69227900139378L605.6929824797312,58.895436538843455L610.1140991401671,57.11702386252303L614.5352158006033,55.5679994943583L618.9563324610392,55.54229803618228L623.3774491214751,55.01477124019386L627.7985657819112,54.81875384204362L632.2196824423471,53.917910964474814L636.6407991027831,53.61840259681904L641.0619157632191,52.41448573406005L645.4830324236551,52.294611058219814L649.9041490840912,53.09628821212668L654.3252657445272,52.161457465266736L658.7463824049631,53.79962849503348L663.1674990653992,54.210166874390104L667.5886157258351,53.34189058370752L672.009732386271,54.20663268979186L676.4308490467071,51.833563513012024L680.8519657071431,50.95195708673728L685.2730823675791,50.663990589857924L689.6941990280151,48.47289821071104L694.1153156884511,50.38152410327107L698.536432348887,49.62886788183204L702.9575490093231,47.851824585895464L707.378665669759,48.08093696809487L711.799782330195,46.95317724096497L716.2208989906311,47.842986282044194L720.642015651067,46.65979694658001L725.0631323115031,46.94396602875678L729.484248971939,46.210754315339955L733.905365632375,45.59008824582499L738.326482292811,44.67545352432298L742.747598953247,44.63877861250459L747.168715613683,44.436016668550124L751.5898322741191,44.10349130200224L756.010948934555,44.92820587963766L760.432065594991,44.03732674572512L764.853182255427,46.90681962689064L769.2742989158629,45.465492352962336L773.695415576299,45.74540651021367L778.1165322367349,46.93756684673005L782.537648897171,44.24884268712681L786.958765557607,45.58778094921578L791.379882218043,44.493312149494066L795.8009988784789,43.29439578986791L800.2221155389149,42.002681735588865L804.6432321993509,42.46275130076068L809.0643488597868,42.768922198574046L813.485465520223,40.24144933829665L817.9065821806589,40.89390594130254L822.327698841095,41.88785534492133L826.7488155015309,41.55038266565943L831.1699321619669,41.28764074068171L835.5910488224029,39.95515590537645L840.0121654828388,38.8242981245754L844.4332821432748,40.52559197544232L848.8543988037109,39.94979220529349L853.2755154641469,39.09220642212143L857.6966321245828,39.30062907347612L862.1177487850189,40.208915102967495L866.5388654454548,38.313819883894155L870.9599821058908,37.869625670396296L875.3810987663268,36.850005862329375L879.8022154267629,37.593830654671166L884.2233320871989,36.92552621177972L888.6444487476348,39.687584504070976L893.0655654080708,41.22432080000302L897.4866820685068,42.146362577562265L901.9077987289428,39.14493944443163L906.3289153893787,36.80185048476016L910.7500320498148,36.17921159223738L915.1711487102508,37.43233349610294L919.5922653706868,37.06962527552434L924.0133820311228,37.123108905374394L928.4344986915587,37.305826921437536L932.8556153519947,37.023832534036806L937.2767320124307,36.61365649810945L941.6978486728667,36.186793879689645L946.1189653333028,33.24963006838266L950.5400819937388,33.716512462792906L954.9611986541747,34.41837829978945L959.3823153146108,33.6044177596466L963.8034319750467,34.411379795322304L968.2245486354827,34.47382061637734L972.6456652959187,35.746365151351085" fill="none"></path></g><g><path style="fill: none;" stroke="rgb(255, 112, 67)" stroke-width="2px" d="M110.52791651089986,377.0020308657516L114.94903317133586,369.9247530799906L119.37014983177184,369.428855943911L123.79126649220784,368.55821645858003L128.21238315264384,369.29295413935563L132.63349981307982,365.94060099864134L137.05461647351584,361.0397604773043L141.47573313395182,360.43527962601934L145.8968497943878,357.1777334277941L150.3179664548238,350.67361455336516L154.7390831152598,344.24278906971335L159.1601997756958,337.4633613068796L163.5813164361318,332.25201559421345L168.00243309656776,329.18602823153265L172.42354975700377,328.31066533452065L176.84466641743975,326.1888427906915L181.26578307787577,324.2229297752044L185.68689973831175,324.7002612840075L190.10801639874774,322.004339677201L194.52913305918372,321.07965756237525L198.95024971961973,320.1332382537892L203.37136638005575,319.505138948191L207.79248304049173,318.19442779562206L212.21359970092772,317.2272583213333L216.6347163613637,315.59261113867126L221.0558330217997,316.0276605667527L225.4769496822357,313.60763907731643L229.8980663426717,314.14381884733785L234.31918300310767,313.5015551558652L238.74029966354368,313.62830738521507L243.16141632397967,313.2524976425218L247.58253298441568,312.39440270514046L252.00364964485166,310.04197229744955L256.4247663052877,307.3351756975812L260.84588296572366,305.6508484042371L265.26699962615965,304.7306260403351L269.68811628659563,301.858928952445L274.10923294703167,295.76790987972726L278.53034960746766,291.4505646785454L282.95146626790364,286.5104781975897L287.37258292833957,280.5340042116786L291.7936995887756,273.7248385002803L296.2148162492116,267.07878253510563L300.6359329096476,260.68122025574735L305.05704957008356,255.78833290963493L309.4781662305196,250.65354000180847L313.8992828909556,246.33757523709326L318.3203995513916,240.61508457895255L322.74151621182756,235.0728992046241L327.1626328722636,232.71155946017765L331.5837495326996,228.67394973527678L336.0048661931355,225.4681604393582L340.42598285357155,223.3338186616326L344.84709951400754,219.7637745963822L349.2682161744435,215.72392537795628L353.6893328348795,214.4748555272196L358.11044949531555,213.78566295649898L362.53156615575153,211.44420445377972L366.9526828161875,209.94895983141578L371.3737994766235,209.92540603970915L375.79491613705954,206.92898980352243L380.2160327974955,203.0224401046601L384.63714945793146,199.92540700537455L389.05826611836744,201.65196450417963L393.4793827788035,198.07890082522138L397.90049943923947,194.79035209623814L402.32161609967545,193.02809105902338L406.7427327601115,192.42259101805595L411.1638494205475,190.221717553921L415.58496608098346,188.8108239547077L420.0060827414194,186.24721303506792L424.42719940185543,183.3534587838014L428.8483160622914,181.88832377293804L433.2694327227274,178.93067196798L437.6905493831634,176.40297760503702L442.1116660435994,175.0068596667139L446.5327827040354,172.9340998836801L450.9538993644714,170.6360940352846L455.3750160249074,168.14270018565014L459.7961326853434,166.94790159677706L464.21724934577935,164.93568408369183L468.63836600621534,163.4873651946545L473.0594826666514,161.17240766331767L477.48059932708736,157.7048713237749L481.90171598752335,159.51036459933331L486.32283264795933,157.09925272702432L490.7439493083954,154.5379952630417L495.16506596883136,152.3686361841266L499.58618262926734,150.43440715855274L504.0072992897033,149.78598464199044L508.42841595013937,146.9267530919731L512.8495326105754,147.41027466214615L517.2706492710113,144.44697712549143L521.6917659314473,144.50657204305304L526.1128825918834,142.22276981396388L530.5339992523193,140.8223682954993L534.9551159127552,140.5544826452247L539.3762325731913,140.09251353415235L543.7973492336272,139.78520290879857L548.2184658940633,139.63094569229665L552.6395825544993,139.20702448277757L557.0606992149353,138.04894063894486L561.4818158753712,136.75161489082993L565.9029325358073,136.90706176339415L570.3240491962432,135.2230057870996L574.7451658566791,133.24860072117943L579.1662825171152,132.39532456124525L583.5873991775512,131.03987708688476L588.0085158379873,130.07598974181474L592.4296324984232,128.1721987940003L596.8507491588592,127.36129110492952L601.2718658192952,126.06139387179743L605.6929824797312,126.0948081516078L610.1140991401671,126.77758150103064L614.5352158006033,126.07265517008707L618.9563324610392,127.75839035097191L623.3774491214751,125.66703984119809L627.7985657819112,124.74359641495168L632.2196824423471,123.40630689822454L636.6407991027831,121.42908453017041L641.0619157632191,120.69461666839858L645.4830324236551,118.9887177725852L649.9041490840912,118.95927907395088L654.3252657445272,118.30901125424484L658.7463824049631,118.18996810231768L663.1674990653992,116.31108895261806L667.5886157258351,115.42475882168372L672.009732386271,115.22432762274109L676.4308490467071,114.2304669439644L680.8519657071431,113.15215581892747L685.2730823675791,113.10765356341983L689.6941990280151,113.1110813688255L694.1153156884511,112.99264835032547L698.536432348887,113.46381464131926L702.9575490093231,112.87292143420373L707.378665669759,111.40378619163793L711.799782330195,111.99838244732473L716.2208989906311,108.98123104253547L720.642015651067,112.86441751518862L725.0631323115031,108.44651108237794L729.484248971939,105.79576722269157L733.905365632375,105.44041890461897L738.326482292811,103.7511145571507L742.747598953247,104.48473586749175L747.168715613683,103.02709485211979L751.5898322741191,102.81524400213246L756.010948934555,100.73006137314287L760.432065594991,101.67800331823331L764.853182255427,101.5237943640296L769.2742989158629,102.33500010962868L773.695415576299,99.92980911655782L778.1165322367349,99.72177456305607L782.537648897171,100.80192266998392L786.958765557607,98.46772757297792L791.379882218043,98.06129319822954L795.8009988784789,98.20905777041902L800.2221155389149,97.30361587487894L804.6432321993509,95.19388586019785L809.0643488597868,94.92214849024289L813.485465520223,96.71717818726702L817.9065821806589,95.32401796540164L822.327698841095,95.51233367444796L826.7488155015309,97.97502041591147L831.1699321619669,94.90388362226965L835.5910488224029,94.08541338825006L840.0121654828388,96.00426892589623L844.4332821432748,94.35403732878605L848.8543988037109,94.11700165048822L853.2755154641469,92.31794584541991L857.6966321245828,93.07608580193339L862.1177487850189,92.92849433402631L866.5388654454548,91.42410241407792L870.9599821058908,90.31059906193366L875.3810987663268,90.15460297172993L879.8022154267629,90.81410859757594L884.2233320871989,91.27007029050418L888.6444487476348,89.97718242890399L893.0655654080708,88.83995367361564L897.4866820685068,89.0914766972742L901.9077987289428,89.06165147000448L906.3289153893787,89.1943662163972L910.7500320498148,87.2858117419239L915.1711487102508,86.68291413703304L919.5922653706868,86.32117557409849L924.0133820311228,86.31500063651289L928.4344986915587,86.49203471542639L932.8556153519947,85.18241812357044L937.2767320124307,86.56558848762923L941.6978486728667,85.85915498741761L946.1189653333028,84.8930598074976L950.5400819937388,85.18700465895662L954.9611986541747,84.85126564874923L959.3823153146108,84.80043212537934L963.8034319750467,85.19168636710626L968.2245486354827,84.37207995586802L972.6456652959187,82.52473738734157" fill="none"></path></g></g></g></g><g opacity="0.2"><g><g><g><path style="fill: none;" stroke="rgb(51, 187, 238)" stroke-width="2px" d="M92.84344986915588,355.0132259829563L97.26456652959186,321.951961917057L101.68568319002787,302.97373412429886L106.10679985046386,287.76104517563016L110.52791651089986,275.63605633281327L114.94903317133586,269.535911685141L119.37014983177184,263.66171328354795L123.79126649220784,259.06777968466184L128.21238315264384,256.05535758708953L132.63349981307982,252.9676350369896L137.05461647351584,246.41562034140705L141.47573313395182,247.31936043722763L145.8968497943878,244.08101453782425L150.3179664548238,228.34113264446947L154.7390831152598,224.80154004645922L159.1601997756958,221.63851704383163L163.5813164361318,209.28760439918366L168.00243309656776,225.62995724550402L172.42354975700377,204.69367080029755L176.84466641743975,204.09117740308383L181.26578307787577,203.03683640220797L185.68689973831175,192.56868195748066L190.10801639874774,186.76978400841526L194.52913305918372,181.87462615517043L198.95024971961973,173.36453036289143L203.37136638005575,179.23875120873262L207.79248304049173,161.91735781406405L212.21359970092772,157.32342421517794L216.6347163613637,162.6704745605812L221.0558330217997,156.19376031752628L225.4769496822357,145.5750049677437L229.8980663426717,168.09280291426396L234.31918300310767,172.0842655601845L238.74029966354368,146.17747592070927L243.16141632397967,137.21555496901627L247.58253298441568,149.56644516941608L252.00364964485166,129.83512307438892L256.4247663052877,126.67210007176132L260.84588296572366,128.1029882237717L265.26699962615965,120.19540827295455L269.68811628659563,121.32504972635806L274.10923294703167,113.56809312484435L278.53034960746766,114.32118742711336L282.95146626790364,105.96173742838593L287.37258292833957,111.15816442448576L291.7936995887756,103.77773252985841L296.2148162492116,108.22106522368924L300.6359329096476,114.24588697458572L305.05704957008356,99.86157033646552L309.4781662305196,109.3506842328446L313.8992828909556,96.47262353200685L318.3203995513916,102.19622102854461L322.74151621182756,95.3429596343552L327.1626328722636,96.24669973017578L331.5837495326996,91.50212033773809L336.0048661931355,92.85770803722082L340.42598285357155,97.6022874296585L344.84709951400754,93.08363183905189L349.2682161744435,89.8452859396485L353.6893328348795,82.91674653717959L358.11044949531555,90.97494983730016L362.53156615575153,89.9206088364243L366.9526828161875,84.87482763387604L371.3737994766235,80.35621693176572L375.79491613705954,83.36859414084174L380.2160327974955,80.73274163865207L384.63714945793146,86.45633913518984L389.05826611836744,79.30183104239356L393.4793827788035,78.9253063355072L397.90049943923947,86.53166203196562L402.32161609967545,79.60307774100042L406.7427327601115,73.5029555375763L411.1638494205475,70.49053344000399L415.58496608098346,78.09688913646241L420.0060827414194,78.84998343873141L424.42719940185543,71.9214440362625L428.8483160622914,71.46955154410406L433.2694327227274,69.73743913773498L437.6905493831634,70.71645724183506L442.1116660435994,65.82127694434209L446.5327827040354,88.3390973351105L450.9538993644714,71.0930268372177L455.3750160249074,72.82513924358679L459.7961326853434,67.55343423920746L464.21724934577935,74.40669563339688L468.63836600621534,68.98434483546598L473.0594826666514,64.76693594346622L477.48059932708736,64.23976544302829L481.90171598752335,65.29410644390416L486.32283264795933,72.74986123530729L490.7439493083954,76.6659785402039L495.16506596883136,66.19784653972474L499.58618262926734,68.68309813685912L504.0072992897033,61.15206533717648L508.42841595013937,63.185424442152424L512.8495326105754,61.603912940838626L517.2706492710113,61.8298367426697L521.6917659314473,64.31508833980408L526.1128825918834,58.214921247883666L530.5339992523193,59.796477637693755L534.9551159127552,69.88804004279027L539.3762325731913,61.37798913900755L543.7973492336272,66.27316943650052L548.2184658940633,58.13964323960417L552.6395825544993,56.63340974656987L557.0606992149353,55.804992547525075L561.4818158753712,61.302666242231766L565.9029325358073,59.94707854274904L570.3240491962432,61.22734334545598L574.7451658566791,61.75451384589391L579.1662825171152,59.57050894736639L583.5873991775512,53.54570964071806L588.0085158379873,55.27782204708714L592.4296324984232,57.0853022387283L596.8507491588592,54.825974443425L601.2718658192952,60.17300234458011L605.6929824797312,60.700172845018045L610.1140991401671,54.44940484804235L614.5352158006033,53.2444629421112L618.9563324610392,55.503745848918214L623.3774491214751,54.223481046211276L627.7985657819112,54.524727744818136L632.2196824423471,52.56664664812169L636.6407991027831,53.16914004533541L641.0619157632191,50.608610439921534L645.4830324236551,52.114799044459545L649.9041490840912,54.298803942987064L654.3252657445272,50.75921134497682L658.7463824049631,56.25688503968351L663.1674990653992,54.825974443425L667.5886157258351,52.03947614768376L672.009732386271,55.503745848918214L676.4308490467071,48.27395974784244L680.8519657071431,49.629547447325166L685.2730823675791,50.232040844538886L689.6941990280151,45.18625964199063L694.1153156884511,53.2444629421112L698.536432348887,48.49988354967351L702.9575490093231,45.18625964199063L707.378665669759,48.424605541394016L711.799782330195,45.26153765027013L716.2208989906311,49.17769984366302L720.642015651067,44.88501294338377L725.0631323115031,47.37021965202186L729.484248971939,45.11093674521484L733.905365632375,44.6590891415527L738.326482292811,43.30350144206997L742.747598953247,44.58376624477691L747.168715613683,44.131873752618475L751.5898322741191,43.60470325218054L756.010948934555,46.16527774609071L760.432065594991,42.70100804485625L764.853182255427,51.211058948638964L769.2742989158629,43.30350144206997L773.695415576299,46.16527774609071L778.1165322367349,48.725807351504585L782.537648897171,40.21575644772187L786.958765557607,47.59618834234922L791.379882218043,42.85160894991154L795.8009988784789,41.49602125042881L800.2221155389149,40.0651106541703L804.6432321993509,43.1528556485184L809.0643488597868,43.228178545294185L813.485465520223,36.450240047880555L817.9065821806589,41.87259084581146L822.327698841095,43.37877945034947L826.7488155015309,41.044173646766666L831.1699321619669,40.89352785321509L835.5910488224029,37.956428652418566L840.0121654828388,37.12801145337377L844.4332821432748,43.07753275174261L848.8543988037109,39.08609255007022L853.2755154641469,37.80582774736328L857.6966321245828,39.61326305050815L862.1177487850189,41.5713441472046L866.5388654454548,35.47117705528419L870.9599821058908,37.20333435014956L875.3810987663268,35.3205761502289L879.8022154267629,38.70956784318386L884.2233320871989,35.92306954744262L888.6444487476348,43.830671942507905L893.0655654080708,43.529425243901045L897.4866820685068,43.529425243901045L901.9077987289428,34.642804744735685L906.3289153893787,33.28721704525296L910.7500320498148,35.245253253453114L915.1711487102508,39.31201635190129L919.5922653706868,36.52556294465634L924.0133820311228,37.20333435014956L928.4344986915587,37.57990394553221L932.8556153519947,36.60084095293584L937.2767320124307,35.99839244421841L941.6978486728667,35.546499952059975L946.1189653333028,28.843884351422133L950.5400819937388,34.41683605440832L954.9611986541747,35.47117705528419L959.3823153146108,32.38347694943238L963.8034319750467,35.62182284883576L968.2245486354827,34.5674818479599L972.6456652959187,37.655181953811706" fill="none"></path></g><g><path style="fill: none;" stroke="rgb(255, 112, 67)" stroke-width="2px" d="M106.10679985046386,396.0573928964485L110.52791651089986,361.4899177817631L114.94903317133586,360.13433008228037L119.37014983177184,368.7197151049629L123.79126649220784,367.2888157308285L128.21238315264384,370.3765495030525L132.63349981307982,360.96274728132516L137.05461647351584,353.7329499581253L141.47573313395182,359.5318479071907L145.8968497943878,352.3020505839909L150.3179664548238,340.93017848769114L154.7390831152598,334.6041100381878L159.1601997756958,327.29900104033624L163.5813164361318,324.43720229206735L168.00243309656776,324.5878256413708L172.42354975700377,326.9977543417294L176.84466641743975,323.0063029179329L181.26578307787577,321.27416806731566L185.68689973831175,325.4162428404156L190.10801639874774,317.9605104932606L194.52913305918372,319.6926453438778L198.95024971961973,318.71361601765364L203.37136638005575,318.5629926683502L207.79248304049173,316.22836442051926L212.21359970092772,315.77650559473307L216.6347163613637,313.1406418704193L221.0558330217997,316.68023446842955L225.4769496822357,309.97760764566766L229.8980663426717,314.9480883956883L234.31918300310767,312.5381596953297L238.74029966354368,313.81843572016066L243.16141632397967,312.6887830446331L247.58253298441568,311.1072603211952L252.00364964485166,306.5133267223091L256.4247663052877,303.2749808229057L260.84588296572366,303.1243574736023L265.26699962615965,303.35029249755746L269.68811628659563,297.55138332636795L274.10923294703167,286.6313812779785L278.53034960746766,284.9745468798889L282.95146626790364,279.10034847829587L287.37258292833957,271.5692932343651L291.7936995887756,263.5110899342445L296.2148162492116,257.1096985879654L300.6359329096476,251.08487683706895L305.05704957008356,248.44900189063114L309.4781662305196,242.9513506401726L313.8992828909556,239.86362809007264L318.3203995513916,232.03134859178314L322.74151621182756,226.75962114315567L327.1626328722636,229.16954984351426L331.5837495326996,222.6175351479317L336.0048661931355,220.6594764954834L340.42598285357155,220.13230599504547L344.84709951400754,214.4087084985077L349.2682161744435,209.66415155031817L353.6893328348795,212.6012507511147L358.11044949531555,212.75187410041812L362.53156615575153,207.93201669970094L366.9526828161875,207.70609289786987L371.3737994766235,209.89007535214924L375.79491613705954,202.4343654492424L380.2160327974955,197.16261555636677L384.63714945793146,195.27985735644612L389.05826611836744,204.24180075238726L393.4793827788035,192.7193053067841L397.90049943923947,189.85752900276336L402.32161609967545,190.3846995032013L406.7427327601115,191.5143409566048L411.1638494205475,186.9204073577187L415.58496608098346,186.69448355588762L420.0060827414194,182.40179665560836L424.42719940185543,179.01282740690155L428.8483160622914,179.6906212566429L433.2694327227274,174.49419426054308L437.6905493831634,172.61143606062242L442.1116660435994,172.91268275922928L446.5327827040354,169.82496020912933L450.9538993644714,167.18908526269152L455.3750160249074,164.40260941119843L459.7961326853434,165.15570371346743L464.21724934577935,161.91735781406405L468.63836600621534,161.31488686109847L473.0594826666514,157.69997136631244L477.48059932708736,152.50356681446075L481.90171598752335,162.2186045126709L486.32283264795933,153.48258491856083L490.7439493083954,150.69610906706774L495.16506596883136,149.11459756575394L499.58618262926734,147.533063620192L504.0072992897033,148.81335086714708L508.42841595013937,142.63790576694717L512.8495326105754,148.13555701740572L517.2706492710113,140.00203082050936L521.6917659314473,144.59596441939547L526.1128825918834,138.79706647033007L530.5339992523193,138.72176601780242L534.9551159127552,140.1526541698128L539.3762325731913,139.3995598675438L543.7973492336272,139.324236970768L548.2184658940633,139.3995598675438L552.6395825544993,138.571142668499L557.0606992149353,136.3118148731957L561.4818158753712,134.80562626865768L565.9029325358073,137.14023207224048L570.3240491962432,132.6969218226578L574.7451658566791,130.2869931222992L579.1662825171152,131.115410321344L583.5873991775512,129.00670587534412L588.0085158379873,128.63015872420962L592.4296324984232,125.3165123722786L596.8507491588592,126.14492957132339L601.2718658192952,124.1115480220993L605.6929824797312,126.14492957132339L610.1140991401671,127.80174152516483L614.5352158006033,125.01526567367173L618.9563324610392,130.2869931222992L623.3774491214751,122.53001407653736L627.7985657819112,123.35843127558215L632.2196824423471,121.40037262313385L636.6407991027831,118.46325097808918L641.0619157632191,119.59291487574083L645.4830324236551,116.42986942886509L649.9041490840912,118.91512102599947L654.3252657445272,117.33360952468567L658.7463824049631,118.01140337442703L663.1674990653992,113.49277022806857L667.5886157258351,114.09526362528229L672.009732386271,114.92368082432708L676.4308490467071,112.73967592579956L680.8519657071431,111.53468913137212L685.2730823675791,113.04090018015827L689.6941990280151,113.11622307693406L694.1153156884511,112.81499882257535L698.536432348887,114.17056407780993L702.9575490093231,111.98658162353055L707.378665669759,109.20008332778932L711.799782330195,112.89027683085484L716.2208989906311,104.45550393535163L720.642015651067,118.6891972241684L725.0631323115031,101.81965143316197L729.484248971939,101.81965143316197L733.905365632375,104.90739642751006L738.326482292811,101.21715803594824L742.747598953247,105.58516783300328L747.168715613683,100.84063332906189L751.5898322741191,102.49746772715147L756.010948934555,97.6022874296585L760.432065594991,103.0999162358689L764.853182255427,101.29248093272403L769.2742989158629,103.55180872802734L773.695415576299,96.32202262695156L778.1165322367349,99.40972273280337L782.537648897171,102.42214483037569L786.958765557607,94.96643492746884L791.379882218043,97.45164163610693L795.8009988784789,98.4307046287033L800.2221155389149,95.94545303156892L804.6432321993509,92.02929083817602L809.0643488597868,94.5145424353104L813.485465520223,99.40972273280337L817.9065821806589,93.23427763260347L822.327698841095,95.79480723801734L826.7488155015309,101.66905052810668L831.1699321619669,90.29717843180694L835.5910488224029,92.85770803722082L840.0121654828388,98.88255223236544L844.4332821432748,91.87868993312074L848.8543988037109,93.7614481330414L853.2755154641469,89.61936213781743L857.6966321245828,94.21329573670354L862.1177487850189,92.70710713216553L866.5388654454548,89.16751453415529L870.9599821058908,88.64034403371735L875.3810987663268,89.9206088364243L879.8022154267629,91.80336703634495L884.2233320871989,91.95401282989653L888.6444487476348,88.03785063650363L893.0655654080708,87.13411054068305L897.4866820685068,89.46876123276215L901.9077987289428,89.0169136291L906.3289153893787,89.39343833598636L910.7500320498148,84.42298003021389L915.1711487102508,85.77856772969662L919.5922653706868,85.77856772969662L924.0133820311228,86.30573823013455L928.4344986915587,86.7575858337967L932.8556153519947,83.21799323578645L937.2767320124307,88.64034403371735L941.6978486728667,84.79950473710025L946.1189653333028,83.44391703761752L950.5400819937388,85.62792193614504L954.9611986541747,84.3476571334381L959.3823153146108,84.72418184032446L963.8034319750467,85.77856772969662L968.2245486354827,83.14267033901066L972.6456652959187,79.753723534552" fill="none"></path></g></g></g></g></g></g><g transform="translate(51, 376)" clip-path="url(#clip_1)"><clipPath id="clip_1"><rect width="1061" height="23"></rect></clipPath><g><g><line x1="0" y1="0" x2="0" y2="5" style="visibility: inherit;" fill="rgb(0, 0, 0)" stroke="rgb(204, 204, 204)" stroke-width="1px"></line><line x1="88.42233320871988" y1="0" x2="88.42233320871988" y2="5" style="visibility: inherit;" fill="rgb(0, 0, 0)" stroke="rgb(204, 204, 204)" stroke-width="1px"></line><line x1="176.84466641743975" y1="0" x2="176.84466641743975" y2="5" style="visibility: inherit;" fill="rgb(0, 0, 0)" stroke="rgb(204, 204, 204)" stroke-width="1px"></line><line x1="265.26699962615965" y1="0" x2="265.26699962615965" y2="5" style="visibility: inherit;" fill="rgb(0, 0, 0)" stroke="rgb(204, 204, 204)" stroke-width="1px"></line><line x1="353.6893328348795" y1="0" x2="353.6893328348795" y2="5" style="visibility: inherit;" fill="rgb(0, 0, 0)" stroke="rgb(204, 204, 204)" stroke-width="1px"></line><line x1="442.1116660435994" y1="0" x2="442.1116660435994" y2="5" style="visibility: inherit;" fill="rgb(0, 0, 0)" stroke="rgb(204, 204, 204)" stroke-width="1px"></line><line x1="530.5339992523193" y1="0" x2="530.5339992523193" y2="5" style="visibility: inherit;" fill="rgb(0, 0, 0)" stroke="rgb(204, 204, 204)" stroke-width="1px"></line><line x1="618.9563324610392" y1="0" x2="618.9563324610392" y2="5" style="visibility: inherit;" fill="rgb(0, 0, 0)" stroke="rgb(204, 204, 204)" stroke-width="1px"></line><line x1="707.378665669759" y1="0" x2="707.378665669759" y2="5" style="visibility: inherit;" fill="rgb(0, 0, 0)" stroke="rgb(204, 204, 204)" stroke-width="1px"></line><line x1="795.8009988784789" y1="0" x2="795.8009988784789" y2="5" style="visibility: inherit;" fill="rgb(0, 0, 0)" stroke="rgb(204, 204, 204)" stroke-width="1px"></line><line x1="884.2233320871989" y1="0" x2="884.2233320871989" y2="5" style="visibility: inherit;" fill="rgb(0, 0, 0)" stroke="rgb(204, 204, 204)" stroke-width="1px"></line><line x1="972.6456652959187" y1="0" x2="972.6456652959187" y2="5" style="visibility: inherit;" fill="rgb(0, 0, 0)" stroke="rgb(204, 204, 204)" stroke-width="1px"></line><line x1="1061.0679985046386" y1="0" x2="1061.0679985046386" y2="5" style="visibility: inherit;" fill="rgb(0, 0, 0)" stroke="rgb(204, 204, 204)" stroke-width="1px"></line></g><g transform="translate(0, 8)"><text style="text-anchor: middle; visibility: hidden; font-family: Roboto, sans-serif; font-size: 12px; font-weight: 200;" x="0" y="0" dx="0em" dy="0.95em" fill="rgb(33, 33, 33)" stroke="none" stroke-width="1px">-20</text><text style="text-anchor: middle; visibility: inherit; font-family: Roboto, sans-serif; font-size: 12px; font-weight: 200;" x="88.42233320871988" y="0" dx="0em" dy="0.95em" fill="rgb(33, 33, 33)" stroke="none" stroke-width="1px">0</text><text style="text-anchor: middle; visibility: inherit; font-family: Roboto, sans-serif; font-size: 12px; font-weight: 200;" x="176.84466641743975" y="0" dx="0em" dy="0.95em" fill="rgb(33, 33, 33)" stroke="none" stroke-width="1px">20</text><text style="text-anchor: middle; visibility: inherit; font-family: Roboto, sans-serif; font-size: 12px; font-weight: 200;" x="265.26699962615965" y="0" dx="0em" dy="0.95em" fill="rgb(33, 33, 33)" stroke="none" stroke-width="1px">40</text><text style="text-anchor: middle; visibility: inherit; font-family: Roboto, sans-serif; font-size: 12px; font-weight: 200;" x="353.6893328348795" y="0" dx="0em" dy="0.95em" fill="rgb(33, 33, 33)" stroke="none" stroke-width="1px">60</text><text style="text-anchor: middle; visibility: inherit; font-family: Roboto, sans-serif; font-size: 12px; font-weight: 200;" x="442.1116660435994" y="0" dx="0em" dy="0.95em" fill="rgb(33, 33, 33)" stroke="none" stroke-width="1px">80</text><text style="text-anchor: middle; visibility: inherit; font-family: Roboto, sans-serif; font-size: 12px; font-weight: 200;" x="530.5339992523193" y="0" dx="0em" dy="0.95em" fill="rgb(33, 33, 33)" stroke="none" stroke-width="1px">100</text><text style="text-anchor: middle; visibility: inherit; font-family: Roboto, sans-serif; font-size: 12px; font-weight: 200;" x="618.9563324610392" y="0" dx="0em" dy="0.95em" fill="rgb(33, 33, 33)" stroke="none" stroke-width="1px">120</text><text style="text-anchor: middle; visibility: inherit; font-family: Roboto, sans-serif; font-size: 12px; font-weight: 200;" x="707.378665669759" y="0" dx="0em" dy="0.95em" fill="rgb(33, 33, 33)" stroke="none" stroke-width="1px">140</text><text style="text-anchor: middle; visibility: inherit; font-family: Roboto, sans-serif; font-size: 12px; font-weight: 200;" x="795.8009988784789" y="0" dx="0em" dy="0.95em" fill="rgb(33, 33, 33)" stroke="none" stroke-width="1px">160</text><text style="text-anchor: middle; visibility: inherit; font-family: Roboto, sans-serif; font-size: 12px; font-weight: 200;" x="884.2233320871989" y="0" dx="0em" dy="0.95em" fill="rgb(33, 33, 33)" stroke="none" stroke-width="1px">180</text><text style="text-anchor: middle; visibility: inherit; font-family: Roboto, sans-serif; font-size: 12px; font-weight: 200;" x="972.6456652959187" y="0" dx="0em" dy="0.95em" fill="rgb(33, 33, 33)" stroke="none" stroke-width="1px">200</text><text style="text-anchor: middle; visibility: hidden; font-family: Roboto, sans-serif; font-size: 12px; font-weight: 200;" x="1061.0679985046386" y="0" dx="0em" dy="0.95em" fill="rgb(33, 33, 33)" stroke="none" stroke-width="1px">220</text></g><line x1="0" y1="0" x2="1061.0679985046386" y2="0" fill="rgb(0, 0, 0)" stroke="rgb(204, 204, 204)" stroke-width="1px"></line></g></g></g></g></svg>