<svg viewBox="0 0 1112.5999755859375 400" xmlns="http://www.w3.org/2000/svg"><g><g><g><g><g><line x1="49.98400115966797" y1="377.60799980163574" x2="44.98400115966797" y2="377.60799980163574" style="visibility: inherit;" fill="rgb(0, 0, 0)" stroke="rgb(204, 204, 204)" stroke-width="1px"></line><line x1="49.98400115966797" y1="335.65155537923175" x2="44.98400115966797" y2="335.65155537923175" style="visibility: inherit;" fill="rgb(0, 0, 0)" stroke="rgb(204, 204, 204)" stroke-width="1px"></line><line x1="49.98400115966797" y1="293.69511095682776" x2="44.98400115966797" y2="293.69511095682776" style="visibility: inherit;" fill="rgb(0, 0, 0)" stroke="rgb(204, 204, 204)" stroke-width="1px"></line><line x1="49.98400115966797" y1="251.73866653442383" x2="44.98400115966797" y2="251.73866653442383" style="visibility: inherit;" fill="rgb(0, 0, 0)" stroke="rgb(204, 204, 204)" stroke-width="1px"></line><line x1="49.98400115966797" y1="209.78222211201987" x2="44.98400115966797" y2="209.78222211201987" style="visibility: inherit;" fill="rgb(0, 0, 0)" stroke="rgb(204, 204, 204)" stroke-width="1px"></line><line x1="49.98400115966797" y1="167.82577768961588" x2="44.98400115966797" y2="167.82577768961588" style="visibility: inherit;" fill="rgb(0, 0, 0)" stroke="rgb(204, 204, 204)" stroke-width="1px"></line><line x1="49.98400115966797" y1="125.86933326721184" x2="44.98400115966797" y2="125.86933326721184" style="visibility: inherit;" fill="rgb(0, 0, 0)" stroke="rgb(204, 204, 204)" stroke-width="1px"></line><line x1="49.98400115966797" y1="83.91288884480794" x2="44.98400115966797" y2="83.91288884480794" style="visibility: inherit;" fill="rgb(0, 0, 0)" stroke="rgb(204, 204, 204)" stroke-width="1px"></line><line x1="49.98400115966797" y1="41.956444422403905" x2="44.98400115966797" y2="41.956444422403905" style="visibility: inherit;" fill="rgb(0, 0, 0)" stroke="rgb(204, 204, 204)" stroke-width="1px"></line><line x1="49.98400115966797" y1="0" x2="44.98400115966797" y2="0" style="visibility: inherit;" fill="rgb(0, 0, 0)" stroke="rgb(204, 204, 204)" stroke-width="1px"></line></g><g transform="translate(39.98400115966797, 0)"><text style="text-anchor: end; visibility: hidden; font-family: Roboto, sans-serif; font-size: 12px; font-weight: 200;" x="0" y="377.60799980163574" dx="0em" dy="0.3em" fill="rgb(33, 33, 33)" stroke="none" stroke-width="1px">0.15</text><text style="text-anchor: end; visibility: inherit; font-family: Roboto, sans-serif; font-size: 12px; font-weight: 200;" x="0" y="335.65155537923175" dx="0em" dy="0.3em" fill="rgb(33, 33, 33)" stroke="none" stroke-width="1px">0.2</text><text style="text-anchor: end; visibility: inherit; font-family: Roboto, sans-serif; font-size: 12px; font-weight: 200;" x="0" y="293.69511095682776" dx="0em" dy="0.3em" fill="rgb(33, 33, 33)" stroke="none" stroke-width="1px">0.25</text><text style="text-anchor: end; visibility: inherit; font-family: Roboto, sans-serif; font-size: 12px; font-weight: 200;" x="0" y="251.73866653442383" dx="0em" dy="0.3em" fill="rgb(33, 33, 33)" stroke="none" stroke-width="1px">0.3</text><text style="text-anchor: end; visibility: inherit; font-family: Roboto, sans-serif; font-size: 12px; font-weight: 200;" x="0" y="209.78222211201987" dx="0em" dy="0.3em" fill="rgb(33, 33, 33)" stroke="none" stroke-width="1px">0.35</text><text style="text-anchor: end; visibility: inherit; font-family: Roboto, sans-serif; font-size: 12px; font-weight: 200;" x="0" y="167.82577768961588" dx="0em" dy="0.3em" fill="rgb(33, 33, 33)" stroke="none" stroke-width="1px">0.4</text><text style="text-anchor: end; visibility: inherit; font-family: Roboto, sans-serif; font-size: 12px; font-weight: 200;" x="0" y="125.86933326721184" dx="0em" dy="0.3em" fill="rgb(33, 33, 33)" stroke="none" stroke-width="1px">0.45</text><text style="text-anchor: end; visibility: inherit; font-family: Roboto, sans-serif; font-size: 12px; font-weight: 200;" x="0" y="83.91288884480794" dx="0em" dy="0.3em" fill="rgb(33, 33, 33)" stroke="none" stroke-width="1px">0.5</text><text style="text-anchor: end; visibility: inherit; font-family: Roboto, sans-serif; font-size: 12px; font-weight: 200;" x="0" y="41.956444422403905" dx="0em" dy="0.3em" fill="rgb(33, 33, 33)" stroke="none" stroke-width="1px">0.55</text><text style="text-anchor: end; visibility: hidden; font-family: Roboto, sans-serif; font-size: 12px; font-weight: 200;" x="0" y="0" dx="0em" dy="0.3em" fill="rgb(33, 33, 33)" stroke="none" stroke-width="1px">0.6</text></g><line x1="49.98400115966797" y1="0" x2="49.98400115966797" y2="377.60799980163574" fill="rgb(0, 0, 0)" stroke="rgb(204, 204, 204)" stroke-width="1px"></line></g></g><g transform="translate(49, 0)" clip-path="url(#clip_0)"><clipPath id="clip_0"><rect width="1062" height="377"></rect></clipPath><g><g><g><line x1="0" y1="0" x2="0" y2="377.60799980163574" fill="rgb(0, 0, 0)" stroke="rgb(66, 66, 66)" stroke-width="1px" opacity="0.25"></line><line x1="88.55133323669432" y1="0" x2="88.55133323669432" y2="377.60799980163574" fill="rgb(0, 0, 0)" stroke="rgb(66, 66, 66)" stroke-width="1px" opacity="0.25"></line><line x1="177.10266647338864" y1="0" x2="177.10266647338864" y2="377.60799980163574" fill="rgb(0, 0, 0)" stroke="rgb(66, 66, 66)" stroke-width="1px" opacity="0.25"></line><line x1="265.653999710083" y1="0" x2="265.653999710083" y2="377.60799980163574" fill="rgb(0, 0, 0)" stroke="rgb(66, 66, 66)" stroke-width="1px" opacity="0.25"></line><line x1="354.2053329467773" y1="0" x2="354.2053329467773" y2="377.60799980163574" fill="rgb(0, 0, 0)" stroke="rgb(66, 66, 66)" stroke-width="1px" opacity="0.25"></line><line x1="442.7566661834717" y1="0" x2="442.7566661834717" y2="377.60799980163574" fill="rgb(0, 0, 0)" stroke="rgb(66, 66, 66)" stroke-width="1px" opacity="0.25"></line><line x1="531.307999420166" y1="0" x2="531.307999420166" y2="377.60799980163574" fill="rgb(0, 0, 0)" stroke="rgb(66, 66, 66)" stroke-width="1px" opacity="0.25"></line><line x1="619.8593326568604" y1="0" x2="619.8593326568604" y2="377.60799980163574" fill="rgb(0, 0, 0)" stroke="rgb(66, 66, 66)" stroke-width="1px" opacity="0.25"></line><line x1="708.4106658935546" y1="0" x2="708.4106658935546" y2="377.60799980163574" fill="rgb(0, 0, 0)" stroke="rgb(66, 66, 66)" stroke-width="1px" opacity="0.25"></line><line x1="796.961999130249" y1="0" x2="796.961999130249" y2="377.60799980163574" fill="rgb(0, 0, 0)" stroke="rgb(66, 66, 66)" stroke-width="1px" opacity="0.25"></line><line x1="885.5133323669434" y1="0" x2="885.5133323669434" y2="377.60799980163574" fill="rgb(0, 0, 0)" stroke="rgb(66, 66, 66)" stroke-width="1px" opacity="0.25"></line><line x1="974.0646656036375" y1="0" x2="974.0646656036375" y2="377.60799980163574" fill="rgb(0, 0, 0)" stroke="rgb(66, 66, 66)" stroke-width="1px" opacity="0.25"></line><line x1="1062.615998840332" y1="0" x2="1062.615998840332" y2="377.60799980163574" fill="rgb(0, 0, 0)" stroke="rgb(66, 66, 66)" stroke-width="1px" opacity="0.25"></line></g><g><line x1="0" y1="377.60799980163574" x2="1062.615998840332" y2="377.60799980163574" fill="rgb(0, 0, 0)" stroke="rgb(66, 66, 66)" stroke-width="1px" opacity="0.25"></line><line x1="0" y1="335.65155537923175" x2="1062.615998840332" y2="335.65155537923175" fill="rgb(0, 0, 0)" stroke="rgb(66, 66, 66)" stroke-width="1px" opacity="0.25"></line><line x1="0" y1="293.69511095682776" x2="1062.615998840332" y2="293.69511095682776" fill="rgb(0, 0, 0)" stroke="rgb(66, 66, 66)" stroke-width="1px" opacity="0.25"></line><line x1="0" y1="251.73866653442383" x2="1062.615998840332" y2="251.73866653442383" fill="rgb(0, 0, 0)" stroke="rgb(66, 66, 66)" stroke-width="1px" opacity="0.25"></line><line x1="0" y1="209.78222211201987" x2="1062.615998840332" y2="209.78222211201987" fill="rgb(0, 0, 0)" stroke="rgb(66, 66, 66)" stroke-width="1px" opacity="0.25"></line><line x1="0" y1="167.82577768961588" x2="1062.615998840332" y2="167.82577768961588" fill="rgb(0, 0, 0)" stroke="rgb(66, 66, 66)" stroke-width="1px" opacity="0.25"></line><line x1="0" y1="125.86933326721184" x2="1062.615998840332" y2="125.86933326721184" fill="rgb(0, 0, 0)" stroke="rgb(66, 66, 66)" stroke-width="1px" opacity="0.25"></line><line x1="0" y1="83.91288884480794" x2="1062.615998840332" y2="83.91288884480794" fill="rgb(0, 0, 0)" stroke="rgb(66, 66, 66)" stroke-width="1px" opacity="0.25"></line><line x1="0" y1="41.956444422403905" x2="1062.615998840332" y2="41.956444422403905" fill="rgb(0, 0, 0)" stroke="rgb(66, 66, 66)" stroke-width="1px" opacity="0.25"></line><line x1="0" y1="0" x2="1062.615998840332" y2="0" fill="rgb(0, 0, 0)" stroke="rgb(66, 66, 66)" stroke-width="1px" opacity="0.25"></line></g></g></g><g><g><line x1="0" y1="503.4773330688477" x2="1062.615998840332" y2="503.4773330688477" fill="rgb(0, 0, 0)" stroke="rgb(153, 153, 153)" stroke-width="1.5px"></line></g></g><g><g><line x1="88.55133323669432" y1="0" x2="88.55133323669432" y2="377.60799980163574" fill="rgb(0, 0, 0)" stroke="rgb(153, 153, 153)" stroke-width="1.5px"></line></g></g><g><g><g><g><g><path style="fill: none;" stroke="rgb(255, 112, 67)" stroke-width="2px" d="M110.68916654586792,378.1094374024177L115.11673320770264,370.2237426565093L119.54429986953734,369.67120062567903L123.97186653137206,368.70111051152975L128.3994331932068,369.51977515128294L132.8269998550415,365.78449241286233L137.25456651687622,360.3238430615824L141.68213317871093,359.6503141119952L146.10969984054566,356.02066783873727L150.53726650238036,348.7736022879064L154.9648331642151,341.60820221977343L159.3923998260498,334.0543800429467L163.81996648788453,328.24775739092L168.2475331497192,324.8315511646282L172.67509981155393,323.8561980971508L177.10266647338864,321.492005904598L181.53023313522337,319.30153233461465L185.95779979705807,319.8333880402927L190.3853664588928,316.82951911021513L194.8129331207275,315.7992132334008L199.24049978256224,314.7446871860894L203.66806644439697,314.0448419145035L208.09563310623167,312.58441202011505L212.5231997680664,311.5067655757227L216.9507664299011,309.6853973759798L221.37833309173584,310.17014124121766L225.80589975357054,307.4736877004753L230.23346641540527,308.0711137339464L234.66103307723995,307.35548611967874L239.08859973907468,307.49671688937195L243.51616640090938,307.0779794873472L247.94373306274412,306.12186684855646L252.37129972457882,303.5007251232215L256.7988663864136,300.4847389810964L261.2264330482483,298.6080158554002L265.653999710083,297.58267915395135L270.0815663719177,294.38295641827233L274.50913303375245,287.59617786401003L278.93669969558715,282.7856748146977L283.36426635742185,277.28129655140805L287.79183301925656,270.6221472377302L292.2193996810913,263.03519023253466L296.646966342926,255.62997452784163L301.0745330047607,248.50163722356632L305.5020996665954,243.04984951570088L309.9296663284302,237.32852407387045L314.3572329902649,232.51955914428743L318.7847996520996,226.14340493889492L323.2123663139343,219.96815176808923L327.63993297576906,217.33708301824453L332.06749963760376,212.83826881912702L336.4950662994384,209.266291489344L340.92263296127317,206.8881500270369L345.35019962310787,202.91031015975798L349.7777662849426,198.40900065625107L354.2053329467773,197.01725317121608L358.63289960861204,196.24933612763402L363.06046627044674,193.6404195962235L367.48803293228144,191.9743775078168L371.91559959411614,191.94813323464717L376.3431662559509,188.60944504329308L380.7707329177856,184.2566614777068L385.1982995796203,180.80586325016276L389.625866241455,182.72964041547752L394.0534329032898,178.74843601275558L398.4809995651245,175.08424587937097L402.9085662269592,173.12068686377845L407.33613288879394,172.44602230542085L411.76369955062864,169.99374943470545L416.19126621246335,168.42169354271587L420.61883287429805,165.565248766699L425.0463995361328,162.34094934170346L429.4739661979675,160.70845619858324L433.9015328598022,157.41296038725463L438.3290995216369,154.59653481226513L442.7566661834717,153.04094236214917L447.1842328453064,150.7314172275719L451.6117995071411,148.17091682143857L456.0393661689758,145.39270980812873L460.46693283081055,144.06143283414144L464.8944994926452,141.8193655378024L469.3220661544799,140.2056093734393L473.74963281631466,137.62622094267962L478.17719947814936,133.7625979619633L482.60476613998406,135.77432750937334L487.03233280181877,133.08780130553853L491.4598994636535,130.23397881360773L495.88746612548823,127.81682012513467L500.31503278732293,125.66164971554032L504.74259944915764,124.93915977141637L509.1701661109924,121.75332647592656L513.5977327728272,122.29207931577105L518.0252994346619,118.99029287715251L522.4528660964966,119.05669514968223L526.8804327583313,116.51202080118394L531.307999420166,114.9516554699634L535.7355660820007,114.65317001710685L540.1631327438354,114.13843151139427L544.5906994056701,113.79601768264929L549.0182660675049,113.62414011071971L553.4458327293396,113.15179560824596L557.8733993911743,111.86142719837423L562.300966053009,110.4159116844538L566.7285327148437,110.58911480341487L571.1560993766784,108.71269398652953L575.5836660385131,106.51275834376777L580.0112327003478,105.56201491742671L584.4387993621826,104.05173860067332L588.8663660240173,102.97774919362209L593.293932685852,100.85649371532317L597.7214993476867,99.9529583876598L602.1490660095214,98.50457765543047L606.5766326713562,98.54180875172416L611.0041993331909,99.30257332493657L615.4317659950257,98.5171252992341L619.8593326568604,100.39541713139047L624.2868993186951,98.0651777051584L628.7144659805298,97.03625200873512L633.1420326423645,95.54620778056726L637.5695993041992,93.34313302340189L641.9971659660339,92.52476902329643L646.4247326278686,90.62401023340809L650.8522992897034,90.591208837423L655.2798659515381,89.86666280651744L659.7074326133728,89.73402169985111L664.1349992752075,87.64052362227207L668.5625659370421,86.6529505654802L672.9901325988768,86.42962469072107L677.4176992607115,85.32223818279536L681.8452659225463,84.12075469852878L686.272832584381,84.07116907916198L690.7003992462157,84.07498843285923L695.1279659080504,83.9430271533957L699.5555325698851,84.46801340627592L703.9830992317198,83.80962417812967L708.4106658935546,82.17267386841608L712.8382325553893,82.8351891336555L717.2657992172241,79.47339725539605L721.6933658790588,83.8001488810554L726.1209325408935,78.87759778164498L730.5484992027282,75.92406712199872L734.9760658645629,75.52812839391456L739.4036325263976,73.64585969960493L743.8311991882323,74.46328044915951L748.2587658500671,72.83913731894843L752.6863325119018,72.60308735945375L757.1138991737365,70.27972035317836L761.5414658355712,71.33594296335558L765.9690324974059,71.16411916658691L770.3965991592406,72.06798659691324L774.8241658210753,69.38805759721718L779.25173248291,69.15625985871146L783.6792991447448,70.35979015799423L788.1068658065795,67.75896671011162L792.5344324684143,67.30610651293833L796.961999130249,67.4707498045851L801.3895657920837,66.46188190162512L805.8171324539184,64.11116353282968L810.2446991157531,63.80838638950034L814.6722657775879,65.80845713408125L819.0998324394226,64.2561602518145L823.5273991012573,64.46598671932809L827.954965763092,67.20997904036558L832.3825324249267,63.7880351785162L836.8100990867614,62.87607345828017L841.2376657485961,65.01411431091104L845.6652324104308,63.17538153415814L850.0927990722656,62.91126995629882L854.5203657341003,60.90671321300321L858.947932395935,61.75145330272666L863.3754990577697,61.58700288856356L867.8030657196044,59.91076863324123L872.2306323814391,58.67007301560956L876.6581990432738,58.49625794346744L881.0857657051087,59.23109698837457L885.5133323669434,59.739141865953606L889.9408990287781,58.29857116548148L894.3684656906128,57.03144006056483L898.7960323524475,57.311693831319715L903.2235990142822,57.27846175465181L907.6511656761169,57.42633612245452L912.0787323379516,55.29977299363199L916.5062989997864,54.62800814009267L920.9338656616211,54.22494922796904L925.3614323234558,54.21806894513303L929.7889989852904,54.41532511455226L934.2165656471251,52.95611480937945L938.6441323089598,54.49728072129254L943.0716989707945,53.71015336673818L947.4992656326293,52.633703930251386L951.926832294464,52.961225251429575L956.3543989562987,52.58713574569959L960.7819656181334,52.53049565606508L965.2095322799681,52.96644173755247L969.6370989418028,52.053214057862135L974.0646656036375,49.99485489385828" fill="none"></path></g></g></g></g><g opacity="0.2"><g><g><g><path style="fill: none;" stroke="rgb(255, 112, 67)" stroke-width="2px" d="M106.2615998840332,399.3414382925305L110.68916654586792,360.82542053219476L115.11673320770264,359.31498797280926L119.54429986953734,368.88105668091924L123.97186653137206,367.2867098122351L128.3994331932068,370.7271464774992L132.8269998550415,360.2380328710992L137.25456651687622,352.1823967223748L141.68213317871093,358.6436860024151L146.10969984054566,350.5880498536907L150.53726650238036,337.91720171751103L154.9648331642151,330.86852477637524L159.3923998260498,322.7289743183522L163.81996648788453,319.5402805809839L168.2475331497192,319.70810919958114L172.67509981155393,322.39331708115765L177.10266647338864,317.9459337122998L181.53023313522337,316.015942110416L185.95779979705807,320.63115409787116L190.3853664588928,312.3237750212508L194.8129331207275,314.2537666231346L199.24049978256224,313.1629056102422L203.66806644439697,312.99507699164496L208.09563310623167,310.3937709153722L212.5231997680664,309.8902975635753L216.9507664299011,306.95334675410294L221.37833309173584,310.89725677116394L225.80589975357054,303.429008283535L230.23346641540527,308.9672526652853L234.66103307723995,306.2820447837088L239.08859973907468,307.70856303379566L243.51616640090938,306.449873402306L247.94373306274412,304.6876979150246L252.37129972457882,299.5690125757726L256.7988663864136,295.96075979590603L261.2264330482483,295.79293117730884L265.653999710083,296.0446741052047L270.0815663719177,289.5833723211695L274.50913303375245,277.41601004078166L278.93669969558715,275.5699202442016L283.36426635742185,269.02472915885755L287.79183301925656,260.6334232689438L292.2193996810913,251.65475472592416L296.646966342926,244.52215097149488L301.0745330047607,237.80913126755354L305.5020996665954,234.8721679540863L309.9296663284302,228.74653591124047L314.3572329902649,225.30611174997114L318.7847996520996,216.57917363085255L323.2123663139343,210.70527201190777L327.63993297576906,213.3904798934843L332.06749963760376,206.09004752045777L336.4950662994384,203.90832549467297L340.92263296127317,203.32093783357746L345.35019962310787,196.9435503588409L349.7777662849426,191.65703640099164L354.2053329467773,194.92963194366368L358.63289960861204,195.09746056226095L363.06046627044674,189.72704479910786L367.48803293228144,189.47531437520684L371.91559959411614,191.90876682489267L376.3431662559509,183.601412756262L380.7707329177856,177.72748612932753L385.1982995796203,175.62966590884653L389.625866241455,185.6153061634496L394.0534329032898,172.77662940867273L398.4809995651245,169.58796067929416L402.9085662269592,170.17534834038966L407.33613288879394,171.43402546788445L411.76369955062864,166.31534012863244L416.19126621246335,166.0636097047314L420.61883287429805,161.28058160267383L425.0463995361328,157.50450020421007L429.4739661979675,158.25971648390282L433.9015328598022,152.4697166702618L438.3290995216369,150.3718964497808L442.7566661834717,150.70755368697527L447.1842328453064,147.26712952570597L451.6117995071411,144.33016621223874L456.0393661689758,141.2253992881639L460.46693283081055,142.06451737316047L464.8944994926452,138.45626459329392L469.3220661544799,137.78497512689464L473.74963281631466,133.75713829654015L478.17719947814936,127.9671634908888L482.60476613998406,138.7919218304884L487.03233280181877,129.05801199978637L491.4598994636535,125.95324507571158L495.88746612548823,124.19108209242502L500.31503278732293,122.42889410114883L504.74259944915764,123.85542485523052L509.1701661109924,116.97457653269193L513.5977327728272,123.10020857553778L518.0252994346619,114.0376132192247L522.4528660964966,119.15629855847678L526.8804327583313,112.69500927843643L531.307999420166,112.61110747313263L535.7355660820007,114.20544183782197L540.1631327438354,113.36632375282542L544.5906994056701,113.28239693953195L549.0182660675049,113.36632375282542L553.4458327293396,112.44327885453541L557.8733993911743,109.92587458356647L562.300966053009,108.24763841357334L566.7285327148437,110.84891948185644L571.1560993766784,105.89806276120163L575.5836660385131,103.2128548796251L580.0112327003478,104.13589977791511L584.4387993621826,101.78632412554336L588.8663660240173,101.36676508304511L593.293932685852,97.67461049787477L597.7214993476867,98.59765539616478L602.1490660095214,96.3320065570865L606.5766326713562,98.59765539616478L611.0041993331909,100.4437201847551L615.4317659950257,97.33895326068031L619.8593326568604,103.2128548796251L624.2868993186951,94.56981856581031L628.7144659805298,95.49286346410028L633.1420326423645,93.31114143831547L637.5695993041992,90.03852088765379L641.9971659660339,91.29722302313826L646.4247326278686,87.77287204857551L650.8522992897034,90.54200674344551L655.2798659515381,88.77984376015895L659.7074326133728,89.5350600398517L664.1349992752075,84.50027650590346L668.5625659370421,85.17159098029241L672.9901325988768,86.09463587858242L677.4176992607115,83.66115842090692L681.8452659225463,82.31852947212897L686.272832584381,83.99679065011173L690.7003992462157,84.08071746340516L695.1279659080504,83.74508523420035L699.5555325698851,85.2554927855962L703.9830992317198,82.82204033591037L708.4106658935546,79.71724840384587L712.8382325553893,83.82896203151446L717.2657992172241,74.43070943800693L721.6933658790588,90.29027631954445L726.1209325408935,71.49377113252937L730.5484992027282,71.49377113252937L734.9760658645629,74.93422030178833L739.4036325263976,70.82245665814038L743.8311991882323,75.6894115734914L748.2587658500671,70.40292262363177L752.6863325119018,72.24901242021176L757.1138991737365,66.79466984376522L761.5414658355712,72.92027687862144L765.9690324974059,70.90638347143386L770.3965991592406,73.4237877424028L774.8241658210753,65.36816409767316L779.25173248291,68.8085632509528L783.6792991447448,72.16508560691832L788.1068658065795,63.857731538287666L792.5344324684143,66.62681621717836L796.961999130249,67.71771474205524L801.3895657920837,64.94858004718523L805.8171324539184,60.585085979636304L810.2446991157531,63.354220674506266L814.6722657775879,68.8085632509528L819.0998324394226,61.927714928414204L823.5273991012573,64.78072642059833L827.954965763092,71.32596752192178L832.3825324249267,58.655119385742154L836.8100990867614,61.50813087792628L841.2376657485961,68.22117558985728L845.6652324104308,60.41728236902871L850.0927990722656,62.51510258950972L854.5203657341003,57.89987809805977L858.947932395935,63.01856343731181L863.3754990577697,61.34032726731873L867.8030657196044,57.396417250257684L872.2306323814391,56.809029589162165L876.6581990432738,58.23553533525423L881.0857657051087,60.33335555573528L885.5133323669434,60.50120918232214L889.9408990287781,56.137715114773215L894.3684656906128,55.13074340318977L898.7960323524475,57.73207448745218L903.2235990142822,57.22861363965009L907.6511656761169,57.64814767415871L912.0787323379516,52.10992830039805L916.5062989997864,53.62036085978359L920.9338656616211,53.62036085978359L925.3614323234558,54.207748520879065L929.7889989852904,54.71120936868115L934.2165656471251,50.76729935162011L938.6441323089598,56.809029589162165L943.0716989707945,52.52946233490667L947.4992656326293,51.019029775521176L951.926832294464,53.452507233196684L956.3543989562987,52.02600148710462L960.7819656181334,52.44553552161324L965.2095322799681,53.62036085978359L969.6370989418028,50.68337253832668L974.0646656036375,46.90731614785254" fill="none"></path></g></g></g></g></g></g><g transform="translate(49, 377)" clip-path="url(#clip_1)"><clipPath id="clip_1"><rect width="1062" height="22"></rect></clipPath><g><g><line x1="0" y1="0" x2="0" y2="5" style="visibility: inherit;" fill="rgb(0, 0, 0)" stroke="rgb(204, 204, 204)" stroke-width="1px"></line><line x1="88.55133323669432" y1="0" x2="88.55133323669432" y2="5" style="visibility: inherit;" fill="rgb(0, 0, 0)" stroke="rgb(204, 204, 204)" stroke-width="1px"></line><line x1="177.10266647338864" y1="0" x2="177.10266647338864" y2="5" style="visibility: inherit;" fill="rgb(0, 0, 0)" stroke="rgb(204, 204, 204)" stroke-width="1px"></line><line x1="265.653999710083" y1="0" x2="265.653999710083" y2="5" style="visibility: inherit;" fill="rgb(0, 0, 0)" stroke="rgb(204, 204, 204)" stroke-width="1px"></line><line x1="354.2053329467773" y1="0" x2="354.2053329467773" y2="5" style="visibility: inherit;" fill="rgb(0, 0, 0)" stroke="rgb(204, 204, 204)" stroke-width="1px"></line><line x1="442.7566661834717" y1="0" x2="442.7566661834717" y2="5" style="visibility: inherit;" fill="rgb(0, 0, 0)" stroke="rgb(204, 204, 204)" stroke-width="1px"></line><line x1="531.307999420166" y1="0" x2="531.307999420166" y2="5" style="visibility: inherit;" fill="rgb(0, 0, 0)" stroke="rgb(204, 204, 204)" stroke-width="1px"></line><line x1="619.8593326568604" y1="0" x2="619.8593326568604" y2="5" style="visibility: inherit;" fill="rgb(0, 0, 0)" stroke="rgb(204, 204, 204)" stroke-width="1px"></line><line x1="708.4106658935546" y1="0" x2="708.4106658935546" y2="5" style="visibility: inherit;" fill="rgb(0, 0, 0)" stroke="rgb(204, 204, 204)" stroke-width="1px"></line><line x1="796.961999130249" y1="0" x2="796.961999130249" y2="5" style="visibility: inherit;" fill="rgb(0, 0, 0)" stroke="rgb(204, 204, 204)" stroke-width="1px"></line><line x1="885.5133323669434" y1="0" x2="885.5133323669434" y2="5" style="visibility: inherit;" fill="rgb(0, 0, 0)" stroke="rgb(204, 204, 204)" stroke-width="1px"></line><line x1="974.0646656036375" y1="0" x2="974.0646656036375" y2="5" style="visibility: inherit;" fill="rgb(0, 0, 0)" stroke="rgb(204, 204, 204)" stroke-width="1px"></line><line x1="1062.615998840332" y1="0" x2="1062.615998840332" y2="5" style="visibility: inherit;" fill="rgb(0, 0, 0)" stroke="rgb(204, 204, 204)" stroke-width="1px"></line></g><g transform="translate(0, 8)"><text style="text-anchor: middle; visibility: hidden; font-family: Roboto, sans-serif; font-size: 12px; font-weight: 200;" x="0" y="0" dx="0em" dy="0.95em" fill="rgb(33, 33, 33)" stroke="none" stroke-width="1px">-20</text><text style="text-anchor: middle; visibility: inherit; font-family: Roboto, sans-serif; font-size: 12px; font-weight: 200;" x="88.55133323669432" y="0" dx="0em" dy="0.95em" fill="rgb(33, 33, 33)" stroke="none" stroke-width="1px">0</text><text style="text-anchor: middle; visibility: inherit; font-family: Roboto, sans-serif; font-size: 12px; font-weight: 200;" x="177.10266647338864" y="0" dx="0em" dy="0.95em" fill="rgb(33, 33, 33)" stroke="none" stroke-width="1px">20</text><text style="text-anchor: middle; visibility: inherit; font-family: Roboto, sans-serif; font-size: 12px; font-weight: 200;" x="265.653999710083" y="0" dx="0em" dy="0.95em" fill="rgb(33, 33, 33)" stroke="none" stroke-width="1px">40</text><text style="text-anchor: middle; visibility: inherit; font-family: Roboto, sans-serif; font-size: 12px; font-weight: 200;" x="354.2053329467773" y="0" dx="0em" dy="0.95em" fill="rgb(33, 33, 33)" stroke="none" stroke-width="1px">60</text><text style="text-anchor: middle; visibility: inherit; font-family: Roboto, sans-serif; font-size: 12px; font-weight: 200;" x="442.7566661834717" y="0" dx="0em" dy="0.95em" fill="rgb(33, 33, 33)" stroke="none" stroke-width="1px">80</text><text style="text-anchor: middle; visibility: inherit; font-family: Roboto, sans-serif; font-size: 12px; font-weight: 200;" x="531.307999420166" y="0" dx="0em" dy="0.95em" fill="rgb(33, 33, 33)" stroke="none" stroke-width="1px">100</text><text style="text-anchor: middle; visibility: inherit; font-family: Roboto, sans-serif; font-size: 12px; font-weight: 200;" x="619.8593326568604" y="0" dx="0em" dy="0.95em" fill="rgb(33, 33, 33)" stroke="none" stroke-width="1px">120</text><text style="text-anchor: middle; visibility: inherit; font-family: Roboto, sans-serif; font-size: 12px; font-weight: 200;" x="708.4106658935546" y="0" dx="0em" dy="0.95em" fill="rgb(33, 33, 33)" stroke="none" stroke-width="1px">140</text><text style="text-anchor: middle; visibility: inherit; font-family: Roboto, sans-serif; font-size: 12px; font-weight: 200;" x="796.961999130249" y="0" dx="0em" dy="0.95em" fill="rgb(33, 33, 33)" stroke="none" stroke-width="1px">160</text><text style="text-anchor: middle; visibility: inherit; font-family: Roboto, sans-serif; font-size: 12px; font-weight: 200;" x="885.5133323669434" y="0" dx="0em" dy="0.95em" fill="rgb(33, 33, 33)" stroke="none" stroke-width="1px">180</text><text style="text-anchor: middle; visibility: inherit; font-family: Roboto, sans-serif; font-size: 12px; font-weight: 200;" x="974.0646656036375" y="0" dx="0em" dy="0.95em" fill="rgb(33, 33, 33)" stroke="none" stroke-width="1px">200</text><text style="text-anchor: middle; visibility: hidden; font-family: Roboto, sans-serif; font-size: 12px; font-weight: 200;" x="1062.615998840332" y="0" dx="0em" dy="0.95em" fill="rgb(33, 33, 33)" stroke="none" stroke-width="1px">220</text></g><line x1="0" y1="0" x2="1062.615998840332" y2="0" fill="rgb(0, 0, 0)" stroke="rgb(204, 204, 204)" stroke-width="1px"></line></g></g></g></g></svg>