<svg viewBox="0 0 1112.5999755859375 400" xmlns="http://www.w3.org/2000/svg"><g><g><g><g><g><line x1="39.98800086975098" y1="377.60799980163574" x2="34.98800086975098" y2="377.60799980163574" style="visibility: inherit;" fill="rgb(0, 0, 0)" stroke="rgb(204, 204, 204)" stroke-width="1px"></line><line x1="39.98800086975098" y1="348.5612305861253" x2="34.98800086975098" y2="348.5612305861253" style="visibility: inherit;" fill="rgb(0, 0, 0)" stroke="rgb(204, 204, 204)" stroke-width="1px"></line><line x1="39.98800086975098" y1="319.51446137061487" x2="34.98800086975098" y2="319.51446137061487" style="visibility: inherit;" fill="rgb(0, 0, 0)" stroke="rgb(204, 204, 204)" stroke-width="1px"></line><line x1="39.98800086975098" y1="290.4676921551045" x2="34.98800086975098" y2="290.4676921551045" style="visibility: inherit;" fill="rgb(0, 0, 0)" stroke="rgb(204, 204, 204)" stroke-width="1px"></line><line x1="39.98800086975098" y1="261.420922939594" x2="34.98800086975098" y2="261.420922939594" style="visibility: inherit;" fill="rgb(0, 0, 0)" stroke="rgb(204, 204, 204)" stroke-width="1px"></line><line x1="39.98800086975098" y1="232.3741537240835" x2="34.98800086975098" y2="232.3741537240835" style="visibility: inherit;" fill="rgb(0, 0, 0)" stroke="rgb(204, 204, 204)" stroke-width="1px"></line><line x1="39.98800086975098" y1="203.32738450857312" x2="34.98800086975098" y2="203.32738450857312" style="visibility: inherit;" fill="rgb(0, 0, 0)" stroke="rgb(204, 204, 204)" stroke-width="1px"></line><line x1="39.98800086975098" y1="174.28061529306262" x2="34.98800086975098" y2="174.28061529306262" style="visibility: inherit;" fill="rgb(0, 0, 0)" stroke="rgb(204, 204, 204)" stroke-width="1px"></line><line x1="39.98800086975098" y1="145.23384607755224" x2="34.98800086975098" y2="145.23384607755224" style="visibility: inherit;" fill="rgb(0, 0, 0)" stroke="rgb(204, 204, 204)" stroke-width="1px"></line><line x1="39.98800086975098" y1="116.18707686204178" x2="34.98800086975098" y2="116.18707686204178" style="visibility: inherit;" fill="rgb(0, 0, 0)" stroke="rgb(204, 204, 204)" stroke-width="1px"></line><line x1="39.98800086975098" y1="87.14030764653127" x2="34.98800086975098" y2="87.14030764653127" style="visibility: inherit;" fill="rgb(0, 0, 0)" stroke="rgb(204, 204, 204)" stroke-width="1px"></line><line x1="39.98800086975098" y1="58.093538431020804" x2="34.98800086975098" y2="58.093538431020804" style="visibility: inherit;" fill="rgb(0, 0, 0)" stroke="rgb(204, 204, 204)" stroke-width="1px"></line><line x1="39.98800086975098" y1="29.046769215510466" x2="34.98800086975098" y2="29.046769215510466" style="visibility: inherit;" fill="rgb(0, 0, 0)" stroke="rgb(204, 204, 204)" stroke-width="1px"></line><line x1="39.98800086975098" y1="0" x2="34.98800086975098" y2="0" style="visibility: inherit;" fill="rgb(0, 0, 0)" stroke="rgb(204, 204, 204)" stroke-width="1px"></line></g><g transform="translate(29.988000869750977, 0)"><text style="text-anchor: end; visibility: hidden; font-family: Roboto, sans-serif; font-size: 12px; font-weight: 200;" x="0" y="377.60799980163574" dx="0em" dy="0.3em" fill="rgb(33, 33, 33)" stroke="none" stroke-width="1px">1.1</text><text style="text-anchor: end; visibility: inherit; font-family: Roboto, sans-serif; font-size: 12px; font-weight: 200;" x="0" y="348.5612305861253" dx="0em" dy="0.3em" fill="rgb(33, 33, 33)" stroke="none" stroke-width="1px">1.2</text><text style="text-anchor: end; visibility: inherit; font-family: Roboto, sans-serif; font-size: 12px; font-weight: 200;" x="0" y="319.51446137061487" dx="0em" dy="0.3em" fill="rgb(33, 33, 33)" stroke="none" stroke-width="1px">1.3</text><text style="text-anchor: end; visibility: inherit; font-family: Roboto, sans-serif; font-size: 12px; font-weight: 200;" x="0" y="290.4676921551045" dx="0em" dy="0.3em" fill="rgb(33, 33, 33)" stroke="none" stroke-width="1px">1.4</text><text style="text-anchor: end; visibility: inherit; font-family: Roboto, sans-serif; font-size: 12px; font-weight: 200;" x="0" y="261.420922939594" dx="0em" dy="0.3em" fill="rgb(33, 33, 33)" stroke="none" stroke-width="1px">1.5</text><text style="text-anchor: end; visibility: inherit; font-family: Roboto, sans-serif; font-size: 12px; font-weight: 200;" x="0" y="232.3741537240835" dx="0em" dy="0.3em" fill="rgb(33, 33, 33)" stroke="none" stroke-width="1px">1.6</text><text style="text-anchor: end; visibility: inherit; font-family: Roboto, sans-serif; font-size: 12px; font-weight: 200;" x="0" y="203.32738450857312" dx="0em" dy="0.3em" fill="rgb(33, 33, 33)" stroke="none" stroke-width="1px">1.7</text><text style="text-anchor: end; visibility: inherit; font-family: Roboto, sans-serif; font-size: 12px; font-weight: 200;" x="0" y="174.28061529306262" dx="0em" dy="0.3em" fill="rgb(33, 33, 33)" stroke="none" stroke-width="1px">1.8</text><text style="text-anchor: end; visibility: inherit; font-family: Roboto, sans-serif; font-size: 12px; font-weight: 200;" x="0" y="145.23384607755224" dx="0em" dy="0.3em" fill="rgb(33, 33, 33)" stroke="none" stroke-width="1px">1.9</text><text style="text-anchor: end; visibility: inherit; font-family: Roboto, sans-serif; font-size: 12px; font-weight: 200;" x="0" y="116.18707686204178" dx="0em" dy="0.3em" fill="rgb(33, 33, 33)" stroke="none" stroke-width="1px">2</text><text style="text-anchor: end; visibility: inherit; font-family: Roboto, sans-serif; font-size: 12px; font-weight: 200;" x="0" y="87.14030764653127" dx="0em" dy="0.3em" fill="rgb(33, 33, 33)" stroke="none" stroke-width="1px">2.1</text><text style="text-anchor: end; visibility: inherit; font-family: Roboto, sans-serif; font-size: 12px; font-weight: 200;" x="0" y="58.093538431020804" dx="0em" dy="0.3em" fill="rgb(33, 33, 33)" stroke="none" stroke-width="1px">2.2</text><text style="text-anchor: end; visibility: inherit; font-family: Roboto, sans-serif; font-size: 12px; font-weight: 200;" x="0" y="29.046769215510466" dx="0em" dy="0.3em" fill="rgb(33, 33, 33)" stroke="none" stroke-width="1px">2.3</text><text style="text-anchor: end; visibility: hidden; font-family: Roboto, sans-serif; font-size: 12px; font-weight: 200;" x="0" y="0" dx="0em" dy="0.3em" fill="rgb(33, 33, 33)" stroke="none" stroke-width="1px">2.4</text></g><line x1="39.98800086975098" y1="0" x2="39.98800086975098" y2="377.60799980163574" fill="rgb(0, 0, 0)" stroke="rgb(204, 204, 204)" stroke-width="1px"></line></g></g><g transform="translate(39, 0)" clip-path="url(#clip_0)"><clipPath id="clip_0"><rect width="1072" height="377"></rect></clipPath><g><g><g><line x1="0" y1="0" x2="0" y2="377.60799980163574" fill="rgb(0, 0, 0)" stroke="rgb(66, 66, 66)" stroke-width="1px" opacity="0.25"></line><line x1="107.2611999130249" y1="0" x2="107.2611999130249" y2="377.60799980163574" fill="rgb(0, 0, 0)" stroke="rgb(66, 66, 66)" stroke-width="1px" opacity="0.25"></line><line x1="214.5223998260498" y1="0" x2="214.5223998260498" y2="377.60799980163574" fill="rgb(0, 0, 0)" stroke="rgb(66, 66, 66)" stroke-width="1px" opacity="0.25"></line><line x1="321.78359973907465" y1="0" x2="321.78359973907465" y2="377.60799980163574" fill="rgb(0, 0, 0)" stroke="rgb(66, 66, 66)" stroke-width="1px" opacity="0.25"></line><line x1="429.0447996520996" y1="0" x2="429.0447996520996" y2="377.60799980163574" fill="rgb(0, 0, 0)" stroke="rgb(66, 66, 66)" stroke-width="1px" opacity="0.25"></line><line x1="536.3059995651245" y1="0" x2="536.3059995651245" y2="377.60799980163574" fill="rgb(0, 0, 0)" stroke="rgb(66, 66, 66)" stroke-width="1px" opacity="0.25"></line><line x1="643.5671994781493" y1="0" x2="643.5671994781493" y2="377.60799980163574" fill="rgb(0, 0, 0)" stroke="rgb(66, 66, 66)" stroke-width="1px" opacity="0.25"></line><line x1="750.8283993911742" y1="0" x2="750.8283993911742" y2="377.60799980163574" fill="rgb(0, 0, 0)" stroke="rgb(66, 66, 66)" stroke-width="1px" opacity="0.25"></line><line x1="858.0895993041992" y1="0" x2="858.0895993041992" y2="377.60799980163574" fill="rgb(0, 0, 0)" stroke="rgb(66, 66, 66)" stroke-width="1px" opacity="0.25"></line><line x1="965.3507992172241" y1="0" x2="965.3507992172241" y2="377.60799980163574" fill="rgb(0, 0, 0)" stroke="rgb(66, 66, 66)" stroke-width="1px" opacity="0.25"></line><line x1="1072.611999130249" y1="0" x2="1072.611999130249" y2="377.60799980163574" fill="rgb(0, 0, 0)" stroke="rgb(66, 66, 66)" stroke-width="1px" opacity="0.25"></line></g><g><line x1="0" y1="377.60799980163574" x2="1072.611999130249" y2="377.60799980163574" fill="rgb(0, 0, 0)" stroke="rgb(66, 66, 66)" stroke-width="1px" opacity="0.25"></line><line x1="0" y1="348.5612305861253" x2="1072.611999130249" y2="348.5612305861253" fill="rgb(0, 0, 0)" stroke="rgb(66, 66, 66)" stroke-width="1px" opacity="0.25"></line><line x1="0" y1="319.51446137061487" x2="1072.611999130249" y2="319.51446137061487" fill="rgb(0, 0, 0)" stroke="rgb(66, 66, 66)" stroke-width="1px" opacity="0.25"></line><line x1="0" y1="290.4676921551045" x2="1072.611999130249" y2="290.4676921551045" fill="rgb(0, 0, 0)" stroke="rgb(66, 66, 66)" stroke-width="1px" opacity="0.25"></line><line x1="0" y1="261.420922939594" x2="1072.611999130249" y2="261.420922939594" fill="rgb(0, 0, 0)" stroke="rgb(66, 66, 66)" stroke-width="1px" opacity="0.25"></line><line x1="0" y1="232.3741537240835" x2="1072.611999130249" y2="232.3741537240835" fill="rgb(0, 0, 0)" stroke="rgb(66, 66, 66)" stroke-width="1px" opacity="0.25"></line><line x1="0" y1="203.32738450857312" x2="1072.611999130249" y2="203.32738450857312" fill="rgb(0, 0, 0)" stroke="rgb(66, 66, 66)" stroke-width="1px" opacity="0.25"></line><line x1="0" y1="174.28061529306262" x2="1072.611999130249" y2="174.28061529306262" fill="rgb(0, 0, 0)" stroke="rgb(66, 66, 66)" stroke-width="1px" opacity="0.25"></line><line x1="0" y1="145.23384607755224" x2="1072.611999130249" y2="145.23384607755224" fill="rgb(0, 0, 0)" stroke="rgb(66, 66, 66)" stroke-width="1px" opacity="0.25"></line><line x1="0" y1="116.18707686204178" x2="1072.611999130249" y2="116.18707686204178" fill="rgb(0, 0, 0)" stroke="rgb(66, 66, 66)" stroke-width="1px" opacity="0.25"></line><line x1="0" y1="87.14030764653127" x2="1072.611999130249" y2="87.14030764653127" fill="rgb(0, 0, 0)" stroke="rgb(66, 66, 66)" stroke-width="1px" opacity="0.25"></line><line x1="0" y1="58.093538431020804" x2="1072.611999130249" y2="58.093538431020804" fill="rgb(0, 0, 0)" stroke="rgb(66, 66, 66)" stroke-width="1px" opacity="0.25"></line><line x1="0" y1="29.046769215510466" x2="1072.611999130249" y2="29.046769215510466" fill="rgb(0, 0, 0)" stroke="rgb(66, 66, 66)" stroke-width="1px" opacity="0.25"></line><line x1="0" y1="0" x2="1072.611999130249" y2="0" fill="rgb(0, 0, 0)" stroke="rgb(66, 66, 66)" stroke-width="1px" opacity="0.25"></line></g></g></g><g><g><line x1="0" y1="697.1224611722506" x2="1072.611999130249" y2="697.1224611722506" fill="rgb(0, 0, 0)" stroke="rgb(153, 153, 153)" stroke-width="1.5px"></line></g></g><g><g><line x1="107.2611999130249" y1="0" x2="107.2611999130249" y2="377.60799980163574" fill="rgb(0, 0, 0)" stroke="rgb(153, 153, 153)" stroke-width="1.5px"></line></g></g><g><g><g><g><g><path style="fill: none;" stroke="rgb(255, 112, 67)" stroke-width="2px" d="M108.28018131219862,27.301194608871715L110.3181441105461,27.991342985010828L110.52194039038086,28.30016761114765L111.13332922988509,28.384856008252804L111.33712550971984,28.400088099801014L112.06650166912841,28.54415667888577L112.88168678846739,28.559000053320805L113.08548306830214,28.53731997059057L115.85282202605818,28.659090394993857L117.27939598490143,28.76600449209285L117.48319226473618,28.76515360518627L117.68698854457091,28.830717634160557L118.70596994374465,28.883084375150794L120.45432750232695,29.016563989417786L120.65812378216171,29.04972008949614L121.26951262166594,29.030423279105943L121.4733089015007,29.054977102595412L122.08469774100494,29.127358700949664L122.28849402083968,29.122773923087443L123.51127169984817,29.12797375814373L124.64824041892622,29.189350350280264L126.07481437776947,29.363297979663642L128.11277717611694,29.436390237868626L129.04594961536026,29.556368365628796L129.6573384548645,29.642842625148095L129.86113473469925,29.753093462511497L131.69530125321197,29.842041920748713L132.83226997229002,29.973500549150216L133.647455091629,30.125091240478096L133.85125137146377,30.31538199327104L134.25884393113327,30.396979852158285L134.66643649080274,30.527656982504674L135.88921416981123,30.619138201150722L136.093010449646,30.736132927054467L137.63757172839354,30.8853057626267L138.04516428806303,31.101763869723182L138.2489605678978,31.101443290201804L138.86034940740203,31.17981142623305L140.28692336624525,31.526586536621267L141.01629952565384,31.70102239677542L141.4238920853233,31.928344639446557L141.8314846449928,32.07385166584511L143.25805860383605,32.36151835588677L143.4618548836708,32.695643820875L144.4808362828445,32.82819586095855L146.02539756159211,33.454631042993924L146.22919384142685,33.783150873550255L146.43299012126158,34.03270106354604L147.24817524060057,34.363513645920385L147.45197152043534,34.680368242517446L147.65576780027007,35.04929197391526L149.0823417591133,35.78308993044152L149.81171791852185,36.10128970203933L150.01551419835664,36.70645267837176L150.21931047819137,36.85295511152478L150.4231067580261,37.357758995936514L150.8306993176956,37.56950451750242L151.6458844370346,38.0363065305573L152.0534769967041,38.757223963228164L152.46106955637356,39.56421097248096L153.59803827545164,40.70472670920547L153.80183455528638,41.41859328658644L154.41322339479063,41.86181645589815L155.4322047939644,42.701164323436316L158.60713631138992,46.65999385560188L158.81093259122466,49.287095099079565L159.0147288710594,49.76990804429752L161.46028422907636,53.75243715446846L161.6640805089111,57.08393249072398L161.9858641086502,59.44496692807502L164.2276231868324,62.487091528746916L164.83901202633666,65.78182960566234L165.24660458600616,64.91298791585905L165.65419714567565,67.02055047602154L166.58736958491897,67.43967637797124L167.1987584244232,68.29370750307176L167.81014726392746,71.6041370215531L168.21773982359693,72.96193856619118L169.23672122277068,75.6298823504646L169.64431378244018,78.28778020405393L169.8481100622749,78.58784990525812L171.59646762085723,81.97358050838241L172.00406018052672,82.62746799524349L172.8192452998657,82.04893030964752L173.6344304192047,81.16351880039812L174.04202297887417,81.03665339605402L174.24581925870896,83.59532977525578L174.9751954181175,82.69358164980054L178.0321396156387,82.05488619336909L178.2359358954735,82.66350887365878L179.37290461455152,83.34954499234529L179.78049717422104,83.88848118469298L179.98429345405577,84.72869110187523L181.20707113306426,85.26129384237773L181.61466369273376,85.0206272718292L182.42984881207275,86.34161857581935L183.77061381098557,87.58809682836362L183.9744100908203,88.8419454266581L184.17820637065503,86.77701913871769L184.3820026504898,86.82777386966099L186.623761728672,88.01682763218354L188.37211928725432,89.55522806940667L189.1873044065933,88.84110220605587L189.5948969662628,87.8574954862262L190.61387836543653,88.7226117780596L191.75084708451462,87.18661576127518L192.1584396441841,89.11881912638525L194.40019872236633,89.39566536220006L195.74096372127914,88.72001802236743L195.94476000111388,90.18767110261017L196.75994512045287,91.8103492664013L198.79790791880035,92.19228713575099L199.00170419863508,93.69210196451886L199.40929675830458,92.2144558922316L200.3424691975479,90.43217901334904L200.54626547738263,90.97576819980844L200.95385803705213,95.04606559892434L201.76904315639112,93.6216056314707L202.17663571606062,91.85329006524982L202.9918208353996,93.3530234514343L204.1287895544777,91.81848573784167L204.94397467381665,93.5975733487934L205.5553635133209,95.38340003995414L205.9629560729904,95.5542760130563L206.7781411923294,95.61580388341011L206.98193747216413,96.46561108054185L208.11890619124222,96.50848157988523L208.32270247107695,94.71445942290892L209.54548015008544,96.21076345595668L209.95307270975493,96.16036294629076L210.97205410892866,93.18656991411812L211.78723922826765,94.68485359004309L214.1469856263542,97.08500493776322L214.35078190618893,96.18756124867497L214.55457818602372,95.59399743240674L214.75837446585845,98.05456826756524L214.9621707456932,100.04468414192085L215.16596702552795,96.96892490819009L215.77735586503218,97.80242063525384L215.98115214486694,97.9941210819785L216.18494842470167,97.62315223800142L219.15608366229247,98.24833716417388L219.3598799421272,96.18405646501691L219.7674725017967,97.14626192730574L219.97126878163147,97.39214085189626L220.1750650614662,97.90219325845742L220.70064494104003,98.57263343292959L221.51583006037902,98.83702887536472L221.9234226200485,98.46211414091361L222.7386077393875,98.90628676630799L223.146200299057,100.83325314091834L223.961385418396,102.65223856777689L225.30215041730878,103.53459688731873L225.70974297697828,103.535473788689L226.52492809631727,98.43738023168436L227.543909495491,99.81525233142257L229.90365589357756,99.69997001995486L230.1074521734123,100.50787469055939L230.71884101291656,100.84679859839233L231.12643357258605,102.70662677574624L231.33022985242079,101.3165938463214L231.94161869192502,101.30208514029435L232.34921125159454,101.52105573243418L233.8937725303421,104.61128185318314L234.91275392951582,106.24788033362222L235.93173532868954,104.6462355396463L236.1355316085243,105.1215259927582L237.88388916710662,100.7211602315454L238.08768544694135,102.05575220285384L238.69907428644558,105.6956821495142L239.1066668461151,106.09075475068981L239.31046312594984,105.79047895402556L240.12564824528883,105.91704839607415L240.94083336462782,106.10357308314282L242.28159836354064,104.69333697678285L242.48539464337537,103.73791424554285L243.50437604254913,104.85343398941905L243.9119686022186,105.56906217154534L244.72715372155758,105.3498441726676L245.33854256106181,103.63826703498913L245.86412244063567,104.27081401123368L247.2906963994789,105.02619150567729L247.90208523898312,107.78409892694212L248.92106663815687,106.81130546122988L249.1248629179916,105.66280277476193L250.05803535723493,106.27465833664554L250.87322047657392,104.3418553483144L252.5035907152519,105.97303750003061L252.9111832749214,107.37391243555767L253.3187758345909,106.23244725920092L253.52257211442563,104.29716559256258L254.65954083350368,105.6548628690978L256.28991107218167,107.61359445345902L257.3088924713554,106.13628134013338L258.6496574702682,104.81113483413328L259.05725002993773,105.07071311051644L259.4648425896072,104.18694642966626L259.66863886944196,106.64807904700736L260.07623142911143,106.33462669849149L260.2800277089462,108.31314594247037L260.6876202686157,108.22168285057568L260.8914165484504,106.50041414830127L261.0952128282852,105.61510618977505L262.11419422745894,104.70538509365836L263.4549592263717,106.01367402936992L267.648872142971,108.41556397014766L267.8526684228058,106.48510691829567L269.279242381649,108.98294229501447L269.8906312211532,109.26869292553374L270.09442750098793,107.78890499001079L270.5020200606575,108.34304369785383L271.0275999402313,110.48781976770044L271.4351924999008,110.33663520601351L272.65797017890924,110.211298021782L276.0366979761696,111.21644086448414L276.2404942560043,110.24028356532926L276.64808681567376,110.86457575746634L277.25947565517805,112.38221164719317L278.88984589385603,111.66474073625281L279.09364217369074,112.29449230238463L281.0457960121078,115.87866915109437L281.8609811314468,113.50466205738888L282.06477741128157,114.17745705402642L282.47236997095104,118.72651535904716L282.6761662507858,115.27409072000425L283.2875550902901,113.47928739928145L283.6093386900291,115.92102031805956L284.22072752953335,114.99751388956263L284.6283200892028,117.08164059783687L285.85109776821133,120.1506422284417L287.0738754472198,122.35473446555812L287.8032516066284,121.37559756232119L288.2108441662979,125.3870754848318L289.02602928563687,123.16797969447552L289.84121440497586,121.84195164718564L290.0450106848106,124.16214719481121L292.8123496425667,125.73367107171897L293.21994220223615,123.96951745541932L294.4427198812446,126.75476868566118L295.05410872074884,124.2653301811495L295.46170128041837,127.59611456718712L296.3948737196617,130.06274861579297L296.5986699994964,130.77072547891356L297.8214476785049,130.4216659037509L298.22904023817443,132.9445200052522L299.85941047685236,136.4282141519303L300.588786636261,138.04651371607525L302.0153605951042,137.15044927107823L302.42295315477367,139.25835427510523L302.6267494346084,138.48170200699917L302.8305457144432,135.98977262165187L304.98649583269497,140.34563968518714L306.4130697915382,143.3301338282366L307.0244586310424,142.94205115155677L307.6358474705467,144.20157371954147L309.38420502912896,148.5063734450969L312.4411492266502,149.356074941896L312.644945506485,148.0664563320425L313.3743216658935,152.3596424406198L314.18950678523254,151.41432143514476L315.00469190457153,150.7033044206898L315.412284464241,149.88670346227562L315.81987702391046,148.40234057598425L316.8388584230842,151.1164191032083L317.5682345824928,151.2386434666625L317.7720308623276,151.91306550730366L317.9758271421623,150.86163507438164L318.38341970183177,151.4284640722061L319.809993660675,155.7884149814797L320.2175862203446,157.84450357666606L321.7621474990921,157.0693380247995L322.57733261843106,159.80736511898712L322.9849251781006,159.70998079346936L324.4114991369438,162.63956328276137L324.61529541677857,163.260041743867L324.81909169661327,165.21144717009665L326.1598566955261,164.44848645211172L326.7712455350303,166.34127791377455L328.8092083333778,163.9282682727953L329.7423807726212,168.6562555567103L330.14997333229064,166.09166842532622L331.78034357096857,165.36998949623936L331.98413985080333,165.34344122682577L332.39173241047286,166.27575059698782L333.2069175298118,168.69603074554277L333.9362936892204,165.15215652409125L335.1590713682289,168.82657908460163L335.3628676480636,170.2025247848986L337.60462672624584,169.72069451212957L338.53779916548916,166.34948243090247L338.9453917251587,172.0876084985779L339.5567805646629,171.87753246333952L339.9643731243324,174.69850221329153L340.3719656840019,173.60142511891092L340.98335452350614,171.60988058681536L342.5279158022537,173.99663046444545L342.7317120820884,176.20244298058518L343.3431009215927,177.3866352183954L343.54689720142744,179.6416701645863L344.15828604093167,175.93067018053551L344.7696748804359,177.38049859716332L345.17726744010537,173.96150849224622L346.1962488392791,173.97921085759376L347.7408101180267,177.74015352222642L348.7597915172004,179.7052198377354L348.9635877970352,178.0728552738353L351.11953791528697,175.65056633044728L351.5271304749565,173.6813697054786L353.56509327330394,177.56160118732507L353.97268583297347,178.48382321585743L354.1764821128082,176.52074170892178L355.31345083188626,179.64380226212867L355.7210433915557,177.00789010821572L356.7400247907295,179.09116443781832L357.55520991006847,180.16558679875712L357.75900618990323,183.79551088530314L358.3703950294075,180.68104833960726L360.32254886782454,181.87977541497665L361.9529191065025,182.2853098989706L362.7681042258415,181.48913079326576L363.9050729449196,183.1895099634079L364.31266550458906,184.21682896188375L365.12785062392805,186.4522283777321L368.3027821413536,186.72776293588433L368.71037470102306,186.2041420263223L369.52555982036205,188.3643061459793L369.7293561001968,189.28296249250465L369.9331523800315,189.72559546309802L370.3407449397011,190.0710376833205L370.95213377920527,193.57586268761798L371.68150993861383,190.36017694905402L371.88530621844865,192.93479370267207L373.1080838974571,191.94247011650842L373.92326901679604,190.52278646346625L374.9422504159698,193.33378955965256L375.34984297563926,195.75172968379295L376.28301541488264,195.05250994927536L376.89440425438687,191.79758455272574L377.91338565356057,192.3478859889078L378.52477449306485,190.1943671938947L379.5437558922386,190.1052340955996L379.74755217207337,192.59514988835093L380.4769283314819,195.5351690527727L381.2921134508209,194.89121586006132L383.1262799693336,195.3469314396493L384.67084124808116,195.6825498866079L385.28223008758545,194.68933622687612L385.48602636742015,195.23693952516385L387.32019288593284,198.33806883414093L389.4761430041847,197.30038813206465L390.0875318436889,197.70007708794157L391.31030952269737,198.75537099463915L392.6510745216102,201.0022228825488L393.4662596409492,206.1765287318656L394.2814447602882,203.77669828337687L395.7080187191315,201.28971010095194L395.9118149989662,204.598861914657L396.8449874382095,203.61884710896993L398.067765117218,202.84788592902993L398.88295023655695,203.40861769044744L399.49433907606124,203.67765983043046L400.3095241954002,208.99025390854686L404.5034371119995,210.81016264430806L405.4366095512428,209.40554104125576L407.4745723495903,208.73195290053766L408.49355374876404,208.44996212189642L408.9011463084335,209.80593799951032L409.1049425882683,209.9978956950195L409.4267261880073,208.88813896607516L409.63052246784207,211.67362757826274L411.26089270652005,212.29450669331055L412.89126294519804,213.58377627775872L413.09505922503274,212.55474058850817L413.6206391046066,214.52845777211215L413.8244353844413,211.45594812097917L416.2699907424583,209.78896795822317L416.4737870222931,211.1061617660083L416.88137958196256,219.13690971596446L419.2411259800491,218.1787252504004L419.85251481955333,219.15113199150196L420.6676999388923,216.84479125703191L421.4828850582313,219.9150282739006L422.41605749747464,218.86159616291584L423.84263145631786,216.67278723166237L424.0464277361526,221.13958390259106L424.2502240159873,216.52537918914794L424.65781657565685,217.64001850861814L425.2692054151611,220.2806397636486L427.8327480930824,217.77147392640535L429.05552577209085,216.49316546955444L429.66691461159513,218.66535633888842L429.8707108914299,219.05288443501257L432.0266610096817,218.38270366425968L432.6380498491859,219.88500824713088L432.84184612902067,223.5203706140768L434.9977962472725,226.11066488169277L435.6091850867767,222.57090324009957L435.81298136661144,225.14248945212825L436.2205739262809,224.1781401361984L437.0357590456199,227.11520913512805L437.23955532545466,228.10379874955527L437.85094416495895,226.42777062730198L438.7841166042022,228.22035850547553L439.80309800337596,229.22530098121015L442.0448570815582,230.79139417076533L443.18182580063626,229.41659065120498L443.58941836030573,231.99399243860262L445.2197885989837,229.7320367883409L448.598516396244,230.9070400810132L450.228886634922,230.76416501942685L450.6364791945915,232.94479635529137L451.3658553540001,230.44832418230507L452.58863303300853,235.19529293335L452.7924293128433,238.23283929852963L454.2190032716865,238.58449104207858L455.9673608302688,236.87295248569987L456.7825459496078,237.1320417510173L457.5977310689468,235.23079515001453L458.41291618828575,235.75427734624404L459.02430502779004,231.33912805451126L459.4318975874595,237.64968709977188L460.77266258637235,243.59757156930146L460.97645886620705,240.71272197234484L461.1802551460418,236.9755004599711L461.3840514258766,238.93879887774656L462.6068291048851,236.0463005519984L462.8106253847198,234.18314077094146L464.3551866634674,235.7077414459772L464.7627792231369,235.7208984183034L465.3741680626411,238.52007206378076L465.7817606223106,238.49717389882147L465.98555690214533,240.13330210637048L466.1893531819801,239.23182662416963L467.6159271408233,240.39046276668623L468.54909958006664,240.00377573527751L468.7528958599014,239.00662983751758L469.16048841957087,241.896153522627L470.1794698187446,242.7738604066959L471.8098400574226,243.60082048973814L472.01363633725737,242.72725739104274L472.94680877650063,245.41308814310358L473.35440133617016,244.5615658518971L474.98477157484814,245.8630699775239L475.1885678546829,238.2162968665187L477.54831425276944,240.6380109749836L479.5862770511169,239.47351549012717L479.9938696107864,240.2219543825586L480.723245770195,242.27364049995612L481.53843088953397,246.69963445531624L481.7422271693687,242.1921269451774L481.94602344920344,239.77251499623532L482.5574122887077,244.32526463684727L483.16880112821195,242.99543992107795L483.98398624755094,241.46357521519909L484.9171586867942,243.65459003032723L488.7892880036544,244.70751993247865L489.7224604428977,247.02640303750212L490.5376455622368,248.5777209372481L491.14903440174095,249.73384674501983L491.55662696141053,249.59029628765762L492.37181208074946,248.35305825246195L492.77940464041893,246.15513039487777L494.731558478836,247.88129879357948L495.54674359817506,245.05980752067876L497.4988974365921,248.80912376523247L498.5178788357658,248.4371451929941L498.72167511560053,248.59792379757604L498.9254713954353,250.51944018862164L501.6928103531913,258.78165825820406L502.3041991926956,254.24184106475792L502.9155880321998,252.21708641920492L503.3231805918693,252.33546265444593L504.74975455071257,251.91408646555377L505.5649396700515,247.7585554378717L506.2943158294601,250.18327267155132L507.51709350846863,252.423444685271L507.72088978830334,257.1643885151338L507.9246860681381,252.59404740551804L508.5360749076423,252.60033776364608L509.555056306816,252.37697633534341L510.8958213057289,254.81015042461925L511.0996175855636,257.39774131006396L513.1375803839111,255.37870246587366L513.3413766637459,255.19037987005757L514.2745491029891,254.58927806198628L514.4783453828239,257.0513234027214L515.2935305021629,258.4513336298635L515.7011230618324,257.1899022361482L516.9239007408408,255.37154888454413L517.5352895803451,257.5961992523519L518.4684620195884,262.83435961516983L518.6722582994231,259.8192884593865L519.0798508590926,255.98408613217066L519.2836471389274,259.5878820330368L519.6912396985969,261.19966831566467L521.9329987767791,265.1061653391059L522.3405913364486,262.5098944778192L524.088948895031,263.5473703295522L524.2927451748657,262.75284466632746L524.9041340143699,265.48692891440396L531.253997049221,268.8597683187875L532.2729784483947,267.8544196115707L534.1071449669074,264.5850986065672L534.3109412467422,264.8788096144292L535.8555025254898,263.06490194108744L536.6706876448287,264.9687809976668L538.0972616036719,262.7017884384056L538.3010578835067,263.03835806948734L540.864600561428,259.954014547187L541.4759894009323,265.7895655782771L543.310155919445,268.76295368146845L545.0585134780273,267.50124424597675L545.4661060376968,266.71949530136715L547.0964762763747,265.0266918875571L547.3002725562095,264.17387879641143L547.8258524357833,268.38203885870877L548.4372412752876,270.59765146952475L548.8448338349571,271.2617895826166L549.660018954296,270.69869601119285L549.8638152341308,267.02481713860345L550.6790003534697,267.82523439894874L550.8827966333046,267.92776561830937L551.6979817526435,268.4670462180782L552.0197653523827,265.28368955530897L552.6311541918868,267.7981321786941L552.8349504717216,270.3721842807675L553.4463393112259,268.8689757152973L555.2805058297386,268.1323433844611L555.8918946692429,266.249031195168L558.0478447874946,269.9964005816879L560.0858075858421,267.9909908738708L560.8151837452507,266.45925086970084L562.2417577040939,268.41597486049557L563.6683316629371,268.8475766748547L566.0280780610236,268.7170040828323L566.4356706206931,270.7245300069496L567.4546520198669,271.7173533137003L568.4736334190405,272.0428640553883L568.9992132986144,272.93943916006447L569.406805858284,277.8722975591493L570.6295835372924,271.9121705420231L571.0371760969618,271.71866885712404L571.6485649364662,272.1413553649163L571.8523612163009,272.23673825637854L573.1931262152137,270.16769637330975L574.0083113345528,271.1904946271362L576.250070412735,268.0285334758011L576.8614592522392,271.4826387428964L577.9984279713173,275.0519201129691L580.647779609169,270.31263214823156L582.1923408879165,272.9056747438124L582.8037297274208,272.83227055717896L585.7748649650116,271.7473293406301L588.0166240431937,270.7238255903581L589.7649816017761,277.79549266845623L590.7839630009498,274.5921862454433L590.9877592807845,277.0668886020123L592.0067406799583,281.1997606417575L593.025722079132,282.2308102680028L593.6371109186363,278.1305062649719L594.7740796377143,284.5024779047924L596.4044498763924,282.6720623454064L597.0158387158965,278.88422449788675L598.5603999946441,275.8912501354776L598.7641962744789,278.35485093989496L598.9679925543136,285.5863756855518L599.3755851139831,278.83410707472206L600.5983627929916,277.5612412859924L601.6173441921653,279.4529547971057L602.0249367518348,279.7051193043135L604.9960719894256,279.8503514550854L607.3558183875122,281.5217892116188L608.3747997866859,273.6966114458294L608.7823923463554,275.48339564827666L609.1899849060248,278.03415397179646L609.3937811858596,281.2271216509575L610.0051700253639,277.2625420376263L610.2089663051986,286.41118785934094L616.5588293400497,290.0100621963544L617.1702181795539,286.79353391371944L617.985403298893,282.83546282703276L618.1891995787277,285.6125230498285L619.3261682978058,281.9722838483114L619.5299645776405,282.86017102353657L621.9755199356574,285.9646649659621L623.7238774942398,283.6122146585217L624.1314700539092,285.1685080123263L624.335266333744,280.30084440228336L625.150451453083,286.7405921037794L625.965636572422,280.70034883118166L626.780821691761,282.82999649857504L628.5291792503432,283.6002167850922L629.3443643696824,281.6957282436179L630.1595494890213,285.35041857633144L631.178530888195,282.0314918616491L631.7041107677688,281.37233991257483L632.3154996072731,282.20184934227456L632.7230921669426,282.1104621788425L632.9268884467773,283.67573209327816L633.3344810064468,286.2119350405865L634.3534624056205,282.4657137842426L635.1686475249595,287.6881245465738L635.3724438047942,284.5662340609178L635.576240084629,282.6993463806026L636.1018199642028,287.22513909498804L636.5094125238722,285.5774053624141L637.528393923046,285.78073209136676L637.9359864827155,287.18446069900676L639.5663567213935,285.97256006049173L640.7033254404716,285.3044092928654L645.3048309167405,283.95467107500843L645.508627196575,286.8340544862448L645.9162197562446,288.2706284682403L647.3427937150877,289.85974209962103L647.7503862747574,288.6424367505371L647.9541825545921,291.9717828682834L649.0911512736701,289.7188140852408L649.2949475535049,290.7394707719327L649.4987438333396,293.66552088366575L650.1101326728439,292.02800843363764L650.3139289526786,289.4385983528057L650.9253177921828,285.14381193779843L652.3518917510261,289.9442570252263L652.8774716305999,285.94194981911966L653.8964530297736,287.4999473786109L656.138212107956,285.8724026706589L656.3420083877905,286.66599367831543L656.5458046676254,289.3630193546586L658.2941622262077,286.6292859198951L658.4979585060424,291.1846175541911L659.5169399052162,292.15188157716517L659.720736185051,294.3024247171332L659.9245324648856,294.92782586045195L660.1283287447204,292.7662776208443L660.53592130439,292.08195978128293L660.7397175842245,292.6739293797538L661.0615011839637,292.0395703807831L661.672890023468,287.85227573048246L665.255414100563,288.45332901673277L665.6630066602326,294.03539376930706L667.2933768989104,294.5369813026971L667.4971731787452,294.9395555200302L667.7009694585801,291.1316340021892L668.1085620182495,297.06987282306346L669.653123296997,296.0731916951763L670.2645121365013,294.8556466247969L670.6721046961708,295.90947581009357L671.2834935356749,294.1884907153559L671.6910860953445,293.04407008457395L672.098678655014,292.81868353480206L674.050832493431,292.38995783830836L674.86601761277,298.2826426075526L675.2736101724395,296.83179575910486L676.0887952917785,293.6090299869583L676.2925915716132,296.609971666309L677.1077766909523,296.0940273549505L677.311572970787,292.9894139485963L677.5153692506218,294.16031049740036L678.6523379696998,297.9347683181871L679.6713193688736,296.8491403340908L679.8751156487083,295.07072808896146L680.6903007680473,295.599710648272L681.709282167221,297.1122112337629L682.0310657669601,297.46675492412356L682.2348620467949,293.8413472227678L682.846250886299,292.1037393430691L683.0500471661338,296.14347833114704L684.6804174048118,296.7298485264351L684.8842136846465,297.0902303013606L685.0880099644813,297.6471005034801L686.2249786835594,300.642929921339L686.4287749633941,297.6331132493937L687.243960082733,298.92936510086383L687.8553489222373,301.8209084581143L688.4667377617416,300.07695687208167L688.8743303214111,299.30934267115606L689.2819228810805,294.94924061881926L689.8933117205848,296.620944645421L690.0971080004196,295.9687674819856L691.4378729993324,294.80491744530485L693.8834283573493,294.21027900627087L694.2910209170188,298.1388927518645L697.0583598747749,301.956881554507L697.2621561546096,300.2176411500311L699.6219025526962,301.05255396783286L699.8256988325309,301.35131090791134L701.6598653510435,300.4017013408737L702.0674579107132,297.4537219527375L702.4750504703826,299.26997660741296L703.2044266297912,300.3131776045766L703.8158154692954,300.39888407451764L704.4272043087997,298.2846729933372L705.2423894281386,303.4406265570603L705.4461857079734,303.3865715395897L706.4651671071472,306.19587565007674L706.8727596668167,301.91313286902545L707.3983395463905,303.18867106062066L707.6021358262252,297.25973218757173L708.4173209455643,300.5105239619421L711.066672583416,296.6014977775413L711.5922524629898,298.30182230942097L711.7960487428245,302.50371660831695L712.2036413024939,301.19088829632756L713.2226227016677,304.500358751064L713.6302152613373,304.210487866708L714.0378078210067,304.02495855098647L714.4454003806762,302.3360046239283L716.1937579392585,303.06355307982585L717.8241281779365,305.03388140881003L718.4355170174407,300.8516799500976L718.6393132972754,300.9896479188351L719.2507021367798,301.86182859320354L719.7762820163535,296.1273900540435L719.9800782961883,296.9379543614455L720.5914671356926,298.69815838734684L721.814244814701,301.8501642507542L722.62942993404,307.07270900286966L722.8332262138748,309.1557663995586L725.8043614514655,309.9905682412019L726.4157502909698,304.4826250061766L727.0271391304741,308.6149135483363L727.6385279699782,311.5149287544517L728.5717004092216,307.5768238102115L729.1830892487258,308.37420587673853L729.3868855285606,308.829047580809L729.5906818083954,311.64239808167656L730.8134594874037,306.6891527595942L731.8324408865775,308.3853354217629L732.0362371664123,308.5034222191498L733.1732058854903,309.5692444825591L733.5807984451599,306.84429372299206L735.0073724040031,305.7773909097522L735.6187612435073,304.89734334489435L736.0263538031769,309.87937980024464L736.2301500830115,306.12368831845635L736.7557299625854,306.90375796447427L736.9595262424201,303.1721518769649L737.3671188020896,304.7778873144242L738.5898964810981,306.111956217356L740.2202667197761,307.67165859258125L740.4240629996109,306.700546167036L741.5610317186889,305.1187256519075L742.5800131178626,308.0053018553606L743.5989945170363,309.94747166379L746.3663334747924,309.2164492415952L746.5701297546273,314.7144847617058L746.7739260344619,313.8493372898667L748.8118888328094,308.5608989208338L750.3564501115569,306.5247052650958L750.9678389510613,308.1970398290814L751.986820350235,306.1147254993964L753.938974188652,305.5401786567311L754.1427704684867,308.6046458891306L754.3465667483215,310.31040222298515L755.3655481474952,311.8132384091802L756.5883258265037,310.5041661211572L757.1997146660079,304.8413106459322L758.1328871052513,310.94782304180427L758.336683385086,307.6157338302528L758.5404796649208,307.58633733388933L758.9480722245903,308.4847628731252L759.7632573439292,308.7809759970286L760.3746461834335,306.2214139657932L760.5784424632682,309.2123229391321L761.3936275826072,311.01182683037723L761.7154111823462,308.3353629754095L761.919207462181,313.3025677357465L762.9381888613548,317.4839989425116L763.3457814210243,318.35792148408706L765.3837442193718,314.7108546136851L765.5875404992064,315.65518606789755L766.9283054981194,319.3093421354936L767.9472868972931,317.1566044662423L768.3548794569625,317.40732077788977L768.9662682964669,316.00034992300795L771.529810974388,314.9224804430855L772.1411998138923,316.5160067867451L772.7525886533965,317.10171656174697L773.7715700525703,312.58201848715186L774.5009462119789,309.587730936559L775.7237238909873,308.38739812616114L776.3351127304916,313.7961627012058L776.7427052901611,317.679282155748L777.7616866893349,313.21353350416706L778.1692792490043,315.4221336602155L779.1024516882476,317.601251195166L779.3062479680824,320.12658926715346L780.9366182067604,320.9183348233043L781.7518033260993,316.3649156412343L781.955599605934,317.1605511723755L782.6849757653426,319.81680860762185L783.092568325012,318.06472027860326L784.5191422838553,321.04109096652707L785.3343274031944,322.33898518622516L786.1495125225333,321.94934228539273L787.0826849617766,319.01487371931614L787.4902775214463,315.7472080449511L788.7130552004546,315.7549005554851L791.2765978783759,316.991275743447L791.6841904380454,315.6626332206165L792.0917829977149,318.2251272253934L792.7031718372192,316.97119180981025L793.3145606767234,314.77841190787564L793.9259495162275,316.72999857227245L794.1297457960624,316.94383401803333L795.2667145151405,320.52383805009515L796.8970847538185,322.12370380985124L798.119862432827,321.149362222879L798.7312512723312,319.0058607663054L798.9350475521659,317.4024569806229L800.6834051107483,321.33911515137487L802.3137753494262,317.17031279785283L804.2659291878433,315.4336802943931L805.0811143071822,317.1649052489505L806.5076882660254,318.94670992843146L807.8484532649384,315.1770098982266L808.867434664112,317.380381053659L810.49780490279,319.62111264454L810.9053974624594,316.4768282919831L811.1091937422942,317.0636386558999L812.449958741207,317.0840727627839L812.8575513008766,318.9827128185254L813.0613475807113,323.5753447895154L813.2651438605461,324.7687033287861L814.080328979885,319.3776381057079L814.2841252597198,321.80536493157507L814.4879215395545,321.12712819966004L814.895514099224,317.265367015656L815.5069029387282,318.6686588979648L815.9144954983977,319.3403273093468L817.0514642174758,319.9375827250761L817.2552604973106,318.90004693305286L817.8666493368148,320.62702685571827L818.8856307359885,324.72077165051525L819.0894270158233,323.9736427916659L819.7008158553275,322.87913901719264L820.8377845744056,326.19442266245164L821.2453771340752,322.81815560008755L821.8567659735794,324.6681613010792L822.0605622534141,323.40327521269364L822.2643585332488,324.7993412782216L822.875747372753,321.81516298389585L824.0985250517616,321.83755827791236L825.0316974910048,320.5946648457339L825.8468826103439,321.58766120709504L827.2734565691871,318.6202313981027L827.4772528490219,320.28200248135335L827.8848454086913,325.37695280333594L828.4962342481956,322.4204725631657L829.6332029672736,323.0345350239352L831.6711657656211,321.1777523468769L831.8749620454558,321.09983069665236L832.6901471647949,323.0953871152466L833.2157270443687,324.5321143718982L834.642301003212,324.44897337201326L835.0498935628814,328.6467843053639L835.4574861225509,326.3199150944048L836.0688749620551,322.7874664296107L837.2058436811332,325.25986579879657L837.4096399609679,325.4845371098355L837.6134362408027,324.22497441867574L837.8172325206375,323.4468819696551L838.0210288004722,322.2414997833714L838.2248250803069,323.9823715591975L839.040010199646,324.3707650016246L839.4476027593154,324.2116634776122L839.8551953189849,320.3439697019802L840.4665841584891,321.9346322592793L841.0779729979934,324.2279237029965L841.3997565977324,324.52615732481667L842.0111454372367,325.52070268629024L844.252904515419,323.6323313379844L845.2718859145928,320.430973882542L845.5936695143317,323.7204840258328L846.8164471933403,322.1836777892447L847.835428592514,324.14266681230254L848.650613711853,320.385148854123L848.8544099916877,324.0038375507581L849.9913787107657,325.53993247384335L850.60276755027,330.1367851332317L851.8255452292784,326.6795879587956L852.6407303486175,322.227346868377L853.4559154679565,320.861557780081L853.9814953475303,322.15080726159886L855.2042730265388,322.6777750945718L855.815661866043,327.8485698439176L856.630846985382,325.27257251056443L857.0384395450515,325.0955082587102L857.2422358248863,322.1679344893297L857.8536246643905,326.7010766063976L858.1754082641296,327.1675142433451L858.9905933834685,324.9530676253634L859.6019822229728,325.8518913030319L859.8057785028075,324.8420813645164L860.0095747826423,328.0475838491471L860.4171673423118,325.53231497899236L862.3693211807288,330.5066927377081L863.9996914194068,324.796133725919L865.0186728185805,326.02996409140314L865.2224690984153,328.20900504323293L865.42626537825,326.2558232866393L865.6300616580849,331.535583131471L866.241450497589,327.60551597926064L867.1746229368324,326.14955004031185L868.6011968956756,329.0814031757609L870.4353634141883,331.87623364509517L871.1647395735969,332.94480065136884L873.6102949316139,331.5400441464722L874.221683771118,331.43491362683017L874.6292763307877,329.67666296497856L875.1548562103615,332.83619441297657L875.7662450498656,331.69812403394883L876.1738376095352,331.14986788158404L876.5814301692046,333.5867916905668L876.9890227288741,332.92616470389L877.192819008709,327.8030430066131L877.3966152885436,329.94100431790184L879.9601579664649,328.9228121352183L881.1829356454734,329.523877880598L883.0171021639861,336.235132403049L883.3388857637252,336.03641976235264L884.7654597225684,338.99311488673777L885.5806448419074,339.04448006278926L885.7844411217421,337.50158254462013L886.8034225209159,332.08417055333007L887.0072188007507,331.60784195339573L887.7365949601593,331.4372816097808L889.3669651988372,330.10918302262877L889.9783540383414,331.4157004813824L890.1821503181762,333.33868256435943L892.1343041565933,335.6008505390555L892.7456929960974,334.23624941144004L892.9494892759323,336.4914308108927L893.3570818356017,334.21771016650297L893.5608781154365,337.93004735610657L894.1722669549408,335.09880274271194L894.3760632347754,332.001618426699L894.5798595146102,327.45842852202503L896.1244207933578,329.81186812181465L896.5320133530273,335.12800840334495L896.9396059126967,336.08417592198947L899.3851612707138,334.2313242649445L900.1145374301224,333.61596261573726L900.318333709957,339.9344560904052L900.5221299897918,336.8241688305132L900.7259262696265,336.88819929778975L901.5411113889655,335.81461000157736L902.1525002284699,338.0671664924247L905.3274317458953,337.7561738513051L905.5312280257301,336.9110247922596L905.7350243055647,337.86157027897445L906.9578019845733,336.92782165785076L907.3653945442428,333.049361599891L908.1805796635817,336.03377480986705L909.1137521028252,333.2788289518543L909.3175483826598,336.9254668851128L910.3365297818335,333.27253587291244L912.374492580181,331.5227215367411L914.3266464185981,338.46524022929464L914.7342389782675,337.5352896789863L914.9380352581023,334.0085724194316L915.141831537937,334.85087335774494L915.7532203774413,335.03637480132136L916.1608129371108,332.25773853196847L916.8901890965194,332.55190954548704L918.7243556150321,325.8867386544903L919.3357444545363,331.0993237242121L919.9471332940407,332.2434995704836L922.1030834122924,334.81655087680423L924.5486387703094,331.57186257348667L925.6856074893874,335.4822516444236L926.908385168396,336.6719894510201L927.1121814482306,336.91973245424896L927.5197740079002,338.6964861032784L928.3349591272391,337.883042438792L929.6757241261519,337.96416577949054L930.2871129656562,339.99664434741686L930.6947055253256,341.3820475726685L931.1022980849953,338.4658214816462L931.7136869244994,339.4079042821218L932.1212794841689,339.0301511494166L932.3250757640037,338.93634017190544L932.7326683236731,334.7330379100518L933.3440571631775,333.30309159476195L936.3151924007682,333.38520414643335L936.518988680603,338.50187217045004L937.1303775201071,342.83435325047446L938.4711425190201,341.0671283408254L938.8787350786895,340.8057086358577L939.0825313585243,339.3469023974327L940.916697877037,339.46528688493953L941.1204941568717,341.1955476752963L942.2574628759497,342.32299883159953L942.4612591557845,338.4942224776828L942.6650554356193,336.2629823748905L943.2764442751235,338.0990403046973L943.4802405549583,337.9010890961268L944.499221954132,340.16033811079365L945.5182033533058,341.6018719133286L945.9257959129752,344.51220413324944" fill="none"></path></g></g></g></g><g opacity="0.2"><g><g><g><path style="fill: none;" stroke="rgb(255, 112, 67)" stroke-width="2px" d="M108.28018131219862,27.301194608871715L110.3181441105461,28.405432010694067L110.52194039038086,28.596639252238877L111.13332922988509,28.484449563248447L111.33712550971984,28.41997511852616L112.06650166912841,28.74345538844854L112.88168678846739,28.58022631625692L113.08548306830214,28.505710201841087L115.85282202605818,28.838678118301537L117.27939598490143,28.924759466088602L117.48319226473618,28.7638849923079L117.68698854457091,28.928706881071626L118.70596994374465,28.961463500141036L120.45432750232695,29.21652191035815L120.65812378216171,29.099415265862575L121.26951262166594,29.00149167312652L121.4733089015007,29.091797447474367L122.08469774100494,29.23591272080093L122.28849402083968,29.11589745473895L123.51127169984817,29.13577303544283L124.64824041892622,29.281411872447034L126.07481437776947,29.624213699917775L128.11277717611694,29.546027182096676L129.04594961536026,29.736334136013745L129.6573384548645,29.772553399805123L129.86113473469925,29.918469248387083L131.69530125321197,29.97546438051L132.83226997229002,30.170688289932215L133.647455091629,30.352477137833333L133.85125137146377,30.600818017289942L134.25884393113327,30.51937661343022L134.66643649080274,30.72367265202386L135.88921416981123,30.756360018198855L136.093010449646,30.91162500753005L137.63757172839354,31.109065009574305L138.04516428806303,31.426451024786076L138.2489605678978,31.100962420924997L138.86034940740203,31.29736362955267L140.28692336624525,32.04674920027199L141.01629952565384,31.96267618642363L141.4238920853233,32.26932800299741L141.8314846449928,32.29211220526769L143.25805860383605,32.79301839074161L143.4618548836708,33.19683201821267L144.4808362828445,33.027023921049384L146.02539756159211,34.39428381594927L146.22919384142685,34.275930619353815L146.43299012126158,34.40702634852597L147.24817524060057,34.85973251947063L147.45197152043534,35.15565013740647L147.65576780027007,35.60267757100721L149.0823417591133,36.88378686522558L149.81171791852185,36.57858935943498L150.01551419835664,37.61419714286876L150.21931047819137,37.072708761253885L150.4231067580261,38.11496482255376L150.8306993176956,37.88712279985097L151.6458844370346,38.73650955013955L152.0534769967041,39.838600112234325L152.46106955637356,40.77469148635995L153.59803827545164,42.41550031429203L153.80183455528638,42.489393152657925L154.41322339479063,42.52665120986588L155.4322047939644,43.96018612474346L158.60713631138992,52.59823815385017L158.81093259122466,53.22774696429643L159.0147288710594,50.494127462124304L161.46028422907636,59.72623081972476L161.6640805089111,62.08117549510699L161.9858641086502,62.986518584101866L164.2276231868324,67.05027842975481L164.83901202633666,70.72393672103554L165.24660458600616,63.60972538115423L165.65419714567565,70.18189431626514L166.58736958491897,68.06836523089568L167.1987584244232,69.57475419072257L167.81014726392746,76.56978129927519L168.21773982359693,74.99864088314825L169.23672122277068,79.63179802687476L169.64431378244018,82.27462698443797L169.8481100622749,79.03795445706439L171.59646762085723,87.05217641306884L172.00406018052672,83.60829922553518L172.8192452998657,81.18112378125358L173.6344304192047,79.83540153652405L174.04202297887417,80.84635528953773L174.24581925870896,87.4333443440585L174.9751954181175,81.34095946161769L178.0321396156387,81.09684300872186L178.2359358954735,83.57644289409346L179.37290461455152,84.37859917037495L179.78049717422104,84.69688547321444L179.98429345405577,85.9890059776485L181.20707113306426,86.06019795313134L181.61466369273376,84.65962741600651L182.42984881207275,88.32310553180474L183.77061381098557,89.45781420718004L183.9744100908203,90.72271832409979L184.17820637065503,83.67962970680685L184.3820026504898,86.90390596607595L186.623761728672,89.80040827596748L188.37211928725432,91.86282872524134L189.1873044065933,87.76991341102975L189.5948969662628,86.38208540648162L190.61387836543653,90.0202862158098L191.75084708451462,84.88262173609857L192.1584396441841,92.01712417405038L194.40019872236633,89.81093471592213L195.74096372127914,87.70654701261851L195.94476000111388,92.38915072297414L196.75994512045287,94.24436651208796L198.79790791880035,92.7651939397754L199.00170419863508,95.94182420767073L199.40929675830458,89.99798678380057L200.3424691975479,87.75876369502517L200.54626547738263,91.79115197949746L200.95385803705213,101.15151169759804L201.76904315639112,91.48491568029027L202.17663571606062,89.20081671591869L202.9918208353996,95.60262353071084L204.1287895544777,89.51667916745282L204.94397467381665,96.26620476522082L205.5553635133209,98.06214007669521L205.9629560729904,95.81058997270975L206.7781411923294,95.70809568894073L206.98193747216413,97.74032187623936L208.11890619124222,96.57278732890018L208.32270247107695,92.02342618744429L209.54548015008544,98.45521950552832L209.95307270975493,96.08476218179187L210.97205410892866,88.72588036585921L211.78723922826765,96.9322791039306L214.1469856263542,100.68523195934343L214.35078190618893,94.8413957150425L214.55457818602372,94.70365170800426L214.75837446585845,101.7454245203029L214.9621707456932,103.02985795345431L215.16596702552795,92.35528605759373L215.77735586503218,99.05266422584954L215.98115214486694,98.28167175206535L216.18494842470167,97.0666989720358L219.15608366229247,99.18611455343257L219.3598799421272,93.08763541628116L219.7674725017967,98.58957012073905L219.97126878163147,97.76095923878206L220.1750650614662,98.6672718682991L220.70064494104003,99.57829369463798L221.51583006037902,99.23362203901742L221.9234226200485,97.89974203923687L222.7386077393875,99.57254570439954L223.146200299057,103.72370270283393L223.961385418396,105.38071670806464L225.30215041730878,104.85813436663148L225.70974297697828,103.53678914074433L226.52492809631727,90.79023989617735L227.543909495491,101.8820604810301L229.90365589357756,99.52704655275345L230.1074521734123,101.71973169646617L230.71884101291656,101.35518446014177L231.12643357258605,105.49636904177699L231.33022985242079,99.23154445218425L231.94161869192502,101.28032208125371L232.34921125159454,101.84951162064398L233.8937725303421,109.24662103430673L234.91275392951582,108.70277805428093L235.93173532868954,102.24376834868255L236.1355316085243,105.83446167242589L237.88388916710662,94.1206115897263L238.08768544694135,104.05764015981651L238.69907428644558,111.15557706950479L239.1066668461151,106.68336365245341L239.31046312594984,105.34006525902922L240.12564824528883,106.10690255914707L240.94083336462782,106.38336011374567L242.28159836354064,102.57798281724288L242.48539464337537,102.30478014868288L243.50437604254913,106.52671360523345L243.9119686022186,106.64250444473464L244.72715372155758,105.02101717435092L245.33854256106181,101.07090132847159L245.86412244063567,105.21963447560064L247.2906963994789,106.15925774734261L247.90208523898312,111.92096005883943L248.92106663815687,105.35211526266156L249.1248629179916,103.94004874505991L250.05803535723493,107.19244167947106L250.87322047657392,101.44265086581764L252.5035907152519,108.41981072760508L252.9111832749214,109.47522483884829L253.3187758345909,104.52024949466593L253.52257211442563,101.3942430926051L254.65954083350368,107.69140878390064L256.28991107218167,110.55169183000079L257.3088924713554,103.92031167014491L258.6496574702682,102.82341507513304L259.05725002993773,105.4600805250912L259.4648425896072,102.8612964083909L259.66863886944196,110.33977797301891L260.07623142911143,105.86444817571778L260.2800277089462,111.28092480843851L260.6876202686157,108.08448821273376L260.8914165484504,103.91851109488951L261.0952128282852,104.28714425198582L262.11419422745894,103.3408034494833L263.4549592263717,107.97610743293743L267.648872142971,112.01839888131443L267.8526684228058,103.58942134051763L269.279242381649,112.72969536009259L269.8906312211532,109.69731887131265L270.09442750098793,105.56922308672631L270.5020200606575,109.17425175961843L271.0275999402313,113.70498387247042L271.4351924999008,110.109858363483L272.65797017890924,110.02329224543483L276.0366979761696,112.7241551285375L276.2404942560043,108.77604761659693L276.64808681567376,111.80101404567192L277.25947565517805,114.65866548178337L278.88984589385603,110.58853436984211L279.09364217369074,113.23911965158241L281.0457960121078,121.25493442415898L281.8609811314468,109.94365141683052L282.06477741128157,115.18664954898274L282.47236997095104,125.55010281657825L282.6761662507858,110.09545376143979L283.2875550902901,110.78708241819737L283.6093386900291,119.58361969622668L284.22072752953335,113.61225424681723L284.6283200892028,120.20783066024838L285.85109776821133,124.75414467434899L287.0738754472198,125.66087282123267L287.8032516066284,119.90689220746572L288.2108441662979,131.4042923685977L289.02602928563687,119.83933600894095L289.84121440497586,119.85290957625092L290.0450106848106,127.64244051624954L292.8123496425667,128.09095688708067L293.21994220223615,121.32328703096978L294.4427198812446,130.93264553102412L295.05410872074884,120.53117242438186L295.46170128041837,132.5922911462435L296.3948737196617,133.76269968870187L296.5986699994964,131.83269077359446L297.8214476785049,129.8980765410069L298.22904023817443,136.7288011575041L299.85941047685236,141.65375537194737L300.588786636261,140.47396306229263L302.0153605951042,135.8063526035829L302.42295315477367,142.4202117811458L302.6267494346084,137.31672360484L302.8305457144432,132.25187854363088L304.98649583269497,146.87944028049L306.4130697915382,147.8068750428108L307.0244586310424,142.3599271365371L307.6358474705467,146.09085757151848L309.38420502912896,154.96357303343015L312.4411492266502,150.63062718709463L312.644945506485,146.13202841726218L313.3743216658935,158.79942160348588L314.18950678523254,149.99633992693214L315.00469190457153,149.63677889900728L315.412284464241,148.66180202465446L315.81987702391046,146.17579624654732L316.8388584230842,155.18753689404437L317.5682345824928,151.42198001184371L317.7720308623276,152.9246985682654L317.9758271421623,149.2844894249985L318.38341970183177,152.2787075689428L319.809993660675,162.32834134539007L320.2175862203446,160.92863646944573L321.7621474990921,155.90658969699962L322.57733261843106,163.9144057602685L322.9849251781006,159.5639043051928L324.4114991369438,167.03393701669933L324.61529541677857,164.19075943552545L324.81909169661327,168.13855530944107L326.1598566955261,163.30404537513454L326.7712455350303,169.18046510626877L328.8092083333778,160.30875381132643L329.7423807726212,175.74823648258285L330.14997333229064,162.24478772824997L331.78034357096857,164.2874711026089L331.98413985080333,165.30361882270543L332.39173241047286,167.67421465223075L333.2069175298118,172.3264509683751L333.9362936892204,159.836345191914L335.1590713682289,174.33821292536717L335.3628676480636,172.26644333534412L337.60462672624584,168.99794910297604L338.53779916548916,161.29266430906188L338.9453917251587,180.69479760009096L339.5567805646629,171.56241841048202L339.9643731243324,178.92995683821948L340.3719656840019,171.9558094773401L340.98335452350614,168.62256378867198L342.5279158022537,177.5767552808906L342.7317120820884,179.51116175479487L343.3431009215927,179.1629235751107L343.54689720142744,183.02422258387256L344.15828604093167,170.36417020445936L344.7696748804359,179.55524122210494L345.17726744010537,168.8330233348707L346.1962488392791,174.00576440561503L347.7408101180267,183.3815675191754L348.7597915172004,182.65281931099875L348.9635877970352,175.62430842798508L351.11953791528697,172.01713291536538L351.5271304749565,170.72757476802553L353.56509327330394,183.38194841009485L353.97268583297347,179.8671562586561L354.1764821128082,173.57611944851837L355.31345083188626,184.32839309193898L355.7210433915557,173.05402187734632L356.7400247907295,182.2160759322222L357.55520991006847,181.7772203401652L357.75900618990323,189.24039701512228L358.3703950294075,176.00935452106336L360.32254886782454,183.67786602803068L361.9529191065025,182.89361162496152L362.7681042258415,180.2948621347085L363.9050729449196,185.7400787186212L364.31266550458906,185.7578074595975L365.12785062392805,189.8053275015046L368.3027821413536,187.14106477311265L368.71037470102306,185.41871066197922L369.52555982036205,191.60455232546482L369.7293561001968,190.66094701229264L369.9331523800315,190.389544918988L370.3407449397011,190.58920101365433L370.95213377920527,198.83310019406412L371.68150993861383,185.53664834120804L371.88530621844865,196.79671883309916L373.1080838974571,190.45398473726308L373.92326901679604,188.39326098390296L374.9422504159698,197.55029420393203L375.34984297563926,199.37863987000367L376.28301541488264,194.00368034749877L376.89440425438687,186.9151964579014L377.91338565356057,193.1733381431808L378.52477449306485,186.96408900137502L379.5437558922386,189.97153444815706L379.74755217207337,196.33002357747787L380.4769283314819,199.94519779940526L381.2921134508209,193.9252860709944L383.1262799693336,196.03050480903124L384.67084124808116,196.18597755704573L385.28223008758545,193.1995157372786L385.48602636742015,196.05834447259556L387.32019288593284,202.9897627976064L389.4761430041847,195.7438670789502L390.0875318436889,198.29961052175693L391.31030952269737,200.3383118546856L392.6510745216102,204.3725007144133L393.4662596409492,213.93798750584082L394.2814447602882,200.17695261064378L395.7080187191315,197.55922782731463L395.9118149989662,209.5625896352145L396.8449874382095,202.1488249004393L398.067765117218,201.69144415912004L398.88295023655695,204.2497153325738L399.49433907606124,204.0812230404048L400.3095241954002,216.95914502572168L404.5034371119995,213.54002574794978L405.4366095512428,207.29860863667727L407.4745723495903,207.7215706894606L408.49355374876404,208.02697595393454L408.9011463084335,211.83990181593109L409.1049425882683,210.28583223828323L409.4267261880073,207.22350387265865L409.63052246784207,215.851860496544L411.26089270652005,213.22582536588217L412.89126294519804,215.51768065443088L413.09505922503274,211.01118705463242L413.6206391046066,217.48903354751806L413.8244353844413,206.84718364427968L416.2699907424583,207.28849771408923L416.4737870222931,213.08195247768612L416.88137958196256,231.1830316408986L419.2411259800491,216.74144855205415L419.85251481955333,220.6097421031544L420.6676999388923,213.3852801553269L421.4828850582313,224.5203837992037L422.41605749747464,217.2814479964386L423.84263145631786,213.38957383478206L424.0464277361526,227.83977890898413L424.2502240159873,209.60407211898317L424.65781657565685,219.31197748782355L425.2692054151611,224.2415716461942L427.8327480930824,214.0077251705404L429.05552577209085,214.57570278427798L429.66691461159513,221.92364264288938L429.8707108914299,219.6341765791988L432.0266610096817,217.37743250813043L432.6380498491859,222.1384651214377L432.84184612902067,228.97341416449567L434.9977962472725,229.9961062831166L435.6091850867767,217.26126077770974L435.81298136661144,228.99986877017116L436.2205739262809,222.7316161623037L437.0357590456199,231.52081263352252L437.23955532545466,229.58668317119606L437.85094416495895,223.9137284439222L438.7841166042022,230.90924032273585L439.80309800337596,230.73271469481202L442.0448570815582,233.14053395509805L443.18182580063626,227.35438537186442L443.58941836030573,235.86009511969917L445.2197885989837,226.3391033129484L448.598516396244,232.66954502002167L450.228886634922,230.5498524270471L450.6364791945915,236.2157433590882L451.3658553540001,226.7036159228256L452.58863303300853,242.31574605991727L452.7924293128433,242.7891588462991L454.2190032716865,239.11196865740197L455.9673608302688,234.30564465113193L456.7825459496078,237.52067564899346L457.5977310689468,232.37892524851037L458.41291618828575,236.53950064058836L459.02430502779004,224.716404116912L459.4318975874595,247.1155256676629L460.77266258637235,252.51939827359587L460.97645886620705,236.38544757690983L461.1802551460418,231.3696681914104L461.3840514258766,241.88374650440971L462.6068291048851,231.707553063376L462.8106253847198,231.38840109935603L464.3551866634674,237.99464245853076L464.7627792231369,235.74063387679269L465.3741680626411,242.71883253199675L465.7817606223106,238.46282665138244L465.98555690214533,242.5874944176941L466.1893531819801,237.87961340086838L467.6159271408233,242.12841698046108L468.54909958006664,239.42374518816425L468.7528958599014,237.51091099087762L469.16048841957087,246.2304390502913L470.1794698187446,244.09042073279906L471.8098400574226,244.8412606143016L472.01363633725737,241.4169127429996L472.94680877650063,249.44183427119484L473.35440133617016,243.28428241508735L474.98477157484814,247.81532616596425L475.1885678546829,226.74613720001085L477.54831425276944,244.27058213768092L479.5862770511169,237.72677226284253L479.9938696107864,241.34461272120578L480.723245770195,245.3511696760525L481.53843088953397,253.33862538835646L481.7422271693687,235.43086567996912L481.94602344920344,236.1430970728222L482.5574122887077,251.15438909776518L483.16880112821195,241.00070284742404L483.98398624755094,239.16577815638072L484.9171586867942,246.94111225301947L488.7892880036544,246.2869147857059L489.7224604428977,250.50472769503736L490.5376455622368,250.9046977868671L491.14903440174095,251.4680354566773L491.55662696141053,249.37497060161436L492.37181208074946,246.49720119966847L492.77940464041893,242.85823860850147L494.731558478836,250.47055139163194L495.54674359817506,240.8275706113277L497.4988974365921,254.433098132063L498.5178788357658,247.8791773346366L498.72167511560053,248.8390917044491L498.9254713954353,253.40171477518996L501.6928103531913,271.1749853625776L502.3041991926956,247.43211527458868L502.9155880321998,249.1799544508755L503.3231805918693,252.5130270073075L504.74975455071257,251.28202218221546L505.5649396700515,241.52525889634867L506.2943158294601,253.82034852207087L507.51709350846863,255.78370270585043L507.72088978830334,264.27580425992795L507.9246860681381,245.73853574109438L508.5360749076423,252.60977330083813L509.555056306816,252.04193419288944L510.8958213057289,258.459911558533L511.0996175855636,261.2791276382311L513.1375803839111,252.3501441995881L513.3413766637459,254.90789597633355L514.2745491029891,253.6876253498794L514.4783453828239,260.744391413824L515.2935305021629,260.55134897057656L515.7011230618324,255.29775514557528L516.9239007408408,252.64401885713798L517.5352895803451,260.9331748040634L518.4684620195884,270.69160015939667L518.6722582994231,255.29668172571144L519.0798508590926,250.23128264134684L519.2836471389274,264.9935758843361L519.6912396985969,263.6173477396064L521.9329987767791,270.96591087426776L522.3405913364486,258.61548818588915L524.088948895031,265.10358410715173L524.2927451748657,261.5610561714904L524.9041340143699,269.5880552865187L531.253997049221,273.91902742536274L532.2729784483947,266.34639655074557L534.1071449669074,259.681117099062L534.3109412467422,265.31937612622215L535.8555025254898,260.34404043107486L536.6706876448287,267.824599582536L538.0972616036719,259.30129959951387L538.3010578835067,263.54321251611L540.864600561428,255.32749926373657L541.4759894009323,274.5428921249122L543.310155919445,273.2230358362555L545.0585134780273,265.6086800927391L545.4661060376968,265.54687188445274L547.0964762763747,262.48748676684176L547.3002725562095,262.8946591596931L547.8258524357833,274.69427895215483L548.4372412752876,273.92107038574864L548.8448338349571,272.2579967522546L549.660018954296,269.85405565405716L549.8638152341308,261.51399882971936L550.6790003534697,269.0258602894667L550.8827966333046,268.08156244735017L551.6979817526435,269.2759671177315L552.0197653523827,260.5086545611552L552.6311541918868,271.5697961137717L552.8349504717216,274.23326243387754L553.4463393112259,266.61416286709215L555.2805058297386,267.02739488820686L555.8918946692429,263.4240629112285L558.0478447874946,275.61745466146766L560.0858075858421,264.9828763121453L560.8151837452507,264.16164086344605L562.2417577040939,271.3510608466876L563.6683316629371,269.4949793963933L566.0280780610236,268.5211451947987L566.4356706206931,273.7358188931256L567.4546520198669,273.20658827382636L568.4736334190405,272.53113016792014L568.9992132986144,274.28430181707876L569.406805858284,285.27158515777654L570.6295835372924,262.97198001633376L571.0371760969618,271.4284163297754L571.6485649364662,272.7753851266049L571.8523612163009,272.379812593572L573.1931262152137,267.0641335487065L574.0083113345528,272.72469200787583L576.250070412735,263.2855917487986L576.8614592522392,276.6637966435394L577.9984279713173,280.40584216807815L580.647779609169,263.20370020112506L582.1923408879165,276.79523863718373L582.8037297274208,272.72216427722884L585.7748649650116,270.1199175158066L588.0166240431937,269.18856996495003L589.7649816017761,288.40299328560354L590.7839630009498,269.78722661092394L590.9877592807845,280.7789421368658L592.0067406799583,287.39906870137537L593.025722079132,283.7773847073708L593.6371109186363,271.9800502604255L594.7740796377143,294.0604353645232L596.4044498763924,279.9264390063274L597.0158387158965,273.20246772660727L598.5603999946441,271.4017885918638L598.7641962744789,282.05025214652113L598.9679925543136,296.4336628040371L599.3755851139831,268.7057041584774L600.5983627929916,275.65194260289803L601.6173441921653,282.2905250637756L602.0249367518348,280.0833660651252L604.9960719894256,280.06819968124313L607.3558183875122,284.02894584641876L608.3747997866859,261.9588447971453L608.7823923463554,278.16357195194746L609.1899849060248,281.86029145707624L609.3937811858596,286.01657316969903L610.0051700253639,271.31567261762956L610.2089663051986,300.13415659191276L616.5588293400497,295.4083737018747L617.1702181795539,281.9687414897669L617.985403298893,276.8983561970028L618.1891995787277,289.7781133840222L619.3261682978058,276.51192504603574L619.5299645776405,284.19200178637425L621.9755199356574,290.62140587960016L623.7238774942398,280.08353919736123L624.1314700539092,287.5029480430332L624.335266333744,272.99934898721904L625.150451453083,296.4002136560233L625.965636572422,271.6399839222851L626.780821691761,286.02446799966503L628.5291792503432,284.7555472148678L629.3443643696824,278.83899543140643L630.1595494890213,290.83245407540164L631.178530888195,277.05310178962566L631.7041107677688,280.3836119889634L632.3154996072731,283.44611348682406L632.7230921669426,281.9733814336943L632.9268884467773,286.0236369649317L633.3344810064468,290.0162394615491L634.3534624056205,276.8463818997266L635.1686475249595,295.5217406900706L635.3724438047942,279.8833983324339L635.576240084629,279.89901486012985L636.1018199642028,294.01382816656604L636.5094125238722,283.1058047635531L637.528393923046,286.0857221847959L637.9359864827155,289.29005361046666L639.5663567213935,284.1547091027191L640.7033254404716,284.302183141426L645.3048309167405,281.93006374822306L645.508627196575,291.1531296030992L645.9162197562446,290.4254894412336L647.3427937150877,292.24341254669224L647.7503862747574,286.81647872691127L647.9541825545921,296.96580204490283L649.0911512736701,286.339360910677L649.2949475535049,292.27045580197046L649.4987438333396,298.0545960512654L650.1101326728439,289.5717397585954L650.3139289526786,285.5544832315579L650.9253177921828,278.70163231528767L652.3518917510261,297.1449246563681L652.8774716305999,279.93848900995977L653.8964530297736,289.83694371784776L656.138212107956,283.43108560873094L656.3420083877905,287.85638018980023L656.5458046676254,293.40855786917325L658.2941622262077,282.52868576774966L658.4979585060424,298.0176150056352L659.5169399052162,293.60277761162615L659.720736185051,297.52823942708534L659.9245324648856,295.8659275754301L660.1283287447204,289.5239552614328L660.53592130439,291.0554830219409L660.7397175842245,293.5618837774602L661.0615011839637,291.088031882327L661.672890023468,281.5713337550314L665.255414100563,289.35490894610837L665.6630066602326,302.40849089816857L667.2933768989104,295.2893626027821L667.4971731787452,295.54341684602986L667.7009694585801,285.4197517254278L668.1085620182495,305.9772310543749L669.653123296997,294.5781700033456L670.2645121365013,293.0293290192279L670.6721046961708,297.4902195880386L671.2834935356749,291.60701307324933L671.6910860953445,291.327439138401L672.098678655014,292.4806037101442L674.050832493431,291.74686929356795L674.86601761277,307.1216697614188L675.2736101724395,294.6555254864335L676.0887952917785,288.77488132873845L676.2925915716132,301.1113841853349L677.1077766909523,295.3201108879128L677.311572970787,288.33249383906514L677.5153692506218,295.9166553206063L678.6523379696998,303.5964550493671L679.6713193688736,295.2206983579463L679.8751156487083,292.4031097212675L680.6903007680473,296.3931844872379L681.709282167221,299.38096211199934L682.0310657669601,297.9985704596646L682.2348620467949,288.4032356707341L682.846250886299,289.4973275235212L683.0500471661338,302.2030868132639L684.6804174048118,297.6094038193673L684.8842136846465,297.6308029637488L685.0880099644813,298.4824058066594L686.2249786835594,305.13667404812725L686.4287749633941,293.1183882414759L687.243960082733,300.87374287806904L687.8553489222373,306.15822349398996L688.4667377617416,297.46102949303275L688.8743303214111,298.1579213697677L689.2819228810805,288.40908754031415L689.8933117205848,299.1285006853237L690.0971080004196,294.9905017368326L691.4378729993324,293.0591423902837L693.8834283573493,293.31832134771986L694.2910209170188,304.0318133702549L697.0583598747749,307.6838647584708L697.2621561546096,297.6087805433173L699.6219025526962,302.3049231945358L699.8256988325309,301.7994463180289L701.6598653510435,298.9772869903171L702.0674579107132,293.03175287053324L702.4750504703826,301.99435858942616L703.2044266297912,301.8779791003222L703.8158154692954,300.5274437794292L704.4272043087997,295.11335637156657L705.2423894281386,311.17455690264495L705.4461857079734,303.30548901338364L706.4651671071472,310.4098318158074L706.8727596668167,295.4890186974484L707.3983395463905,305.1019783480135L707.6021358262252,288.36632387799835L708.4173209455643,305.38671162349755L711.066672583416,290.73795850094024L711.5922524629898,300.8523091072404L711.7960487428245,308.806558056661L712.2036413024939,299.22164582834347L713.2226227016677,309.46456443316873L713.6302152613373,303.775681540174L714.0378078210067,303.74666457740426L714.4454003806762,299.80257373334115L716.1937579392585,304.1548757636722L717.8241281779365,307.9893739022864L718.4355170174407,294.57837776202894L718.6393132972754,301.1965998719415L719.2507021367798,303.17009960475633L719.7762820163535,287.52573224530346L719.9800782961883,298.1538008225486L720.5914671356926,301.33846442619887L721.814244814701,306.57817304586524L722.62942993404,314.9065261310428L722.8332262138748,312.28035249459214L725.8043614514655,311.24277100366686L726.4157502909698,296.22071015363866L727.0271391304741,314.8133463615758L727.6385279699782,315.8649515636249L728.5717004092216,301.6696663938511L729.1830892487258,309.57027897652915L729.3868855285606,309.51131013691474L729.5906818083954,315.86242383297787L730.8134594874037,299.25928477647085L731.8324408865775,310.9296094150158L732.0362371664123,308.6805524152301L733.1732058854903,311.16797787767325L733.5807984451599,302.7568675836416L735.0073724040031,304.1770366898925L735.6187612435073,303.5772719976076L736.0263538031769,317.3524344832701L736.2301500830115,300.490151095774L736.7557299625854,308.0738624335014L736.9595262424201,297.5747427457008L737.3671188020896,307.18649047061325L738.5898964810981,308.1130595717536L740.2202667197761,310.01121215541923L740.4240629996109,305.24387752871803L741.5610317186889,302.7459948792147L742.5800131178626,312.3351661605402L743.5989945170363,312.86072637643423L746.3663334747924,308.119915608303L746.5701297546273,322.96153804187156L746.7739260344619,312.55161608210784L748.8118888328094,300.6282413672845L750.3564501115569,303.47041478148896L750.9678389510613,310.70554167506L751.986820350235,302.9912540048688L753.938974188652,304.678358392733L754.1427704684867,313.20134673773015L754.3465667483215,312.86903672376684L755.3655481474952,314.06749268847284L756.5883258265037,308.54055768912264L757.1997146660079,296.3470274330945L758.1328871052513,320.10759163561255L758.336683385086,302.61760001292566L758.5404796649208,307.542242589344L758.9480722245903,309.832401181979L759.7632573439292,309.2252956828836L760.3746461834335,302.38207091894026L760.5784424632682,313.69868639914046L761.3936275826072,313.7110826672449L761.7154111823462,304.32066719295807L761.919207462181,320.7533748762518L762.9381888613548,323.7561457526593L763.3457814210243,319.66880529645005L765.3837442193718,309.2402543080823L765.5875404992064,317.0716832492163L766.9283054981194,324.7905762368876L767.9472868972931,313.92749796236535L768.3548794569625,317.783395245361L768.9662682964669,313.8898936406852L771.529810974388,313.3056762232018L772.1411998138923,318.9062963022346L772.7525886533965,317.98028122424984L773.7715700525703,305.80247137525924L774.5009462119789,305.0962996106696L775.7237238909873,306.58689891056446L776.3351127304916,321.9093095637726L776.7427052901611,323.50396133756135L777.7616866893349,306.51491052679563L778.1692792490043,318.7350338942881L779.1024516882476,320.8699274975919L779.3062479680824,323.91459637513464L780.9366182067604,322.1059531575308L781.7518033260993,309.5347868681294L781.955599605934,318.35400446908733L782.6849757653426,323.80119476049157L783.092568325012,315.43658778507535L784.5191422838553,325.50564699841266L785.3343274031944,324.2858265157724L786.1495125225333,321.36487793414403L787.0826849617766,314.6131708702012L787.4902775214463,310.8457095334035L788.7130552004546,315.76643932128604L791.2765978783759,318.84583852538975L791.6841904380454,313.66966943637067L792.0917829977149,322.06886823255894L792.7031718372192,315.0902886864355L793.3145606767234,311.4892420549736L793.9259495162275,319.65737856886767L794.1297457960624,317.2645871866748L795.2667145151405,325.89384409818786L796.8970847538185,324.5235024494854L798.119862432827,319.68784984242063L798.7312512723312,315.7906085814451L798.9350475521659,314.997351302099L800.6834051107483,327.2441024075031L802.3137753494262,310.9171092675697L804.2659291878433,312.82873153920366L805.0811143071822,319.76174268078654L806.5076882660254,321.6194169476529L807.8484532649384,309.5224598529193L808.867434664112,320.68543778680765L810.49780490279,322.9822100308615L810.9053974624594,311.7604017631476L811.1091937422942,317.94385420177514L812.449958741207,317.1147239231098L812.8575513008766,321.8306729021376L813.0613475807113,330.4642927460003L813.2651438605461,326.55874113769215L814.080328979885,311.29104027109054L814.2841252597198,325.446955170376L814.4879215395545,320.10977310178737L814.895514099224,311.47272523965L815.5069029387282,320.7735967214279L815.9144954983977,320.3478299264198L817.0514642174758,320.83346584867L817.2552604973106,317.343743245018L817.8666493368148,323.2174967397164L818.8856307359885,330.8613888427108L819.0894270158233,322.852949503392L819.7008158553275,321.23738335548273L820.8377845744056,331.16734813034026L821.2453771340752,317.7537550065414L821.8567659735794,327.4431698525666L822.0605622534141,321.50594608011534L822.2643585332488,326.8934403765136L822.875747372753,317.33889554240733L824.0985250517616,321.8711512189369L825.0316974910048,318.7303246974663L825.8468826103439,323.07715574913675L827.2734565691871,314.1690866846142L827.4772528490219,322.77465910622925L827.8848454086913,333.01937828630986L828.4962342481956,317.9857522029104L829.6332029672736,323.95562871508946L831.6711657656211,318.39257833128954L831.8749620454558,320.98294822131555L832.6901471647949,326.0887217431379L833.2157270443687,326.68720525687564L834.642301003212,324.3242618721858L835.0498935628814,334.94350070539L835.4574861225509,322.8296112779662L836.0688749620551,317.4887934324195L837.2058436811332,328.96846485257527L837.4096399609679,325.821544076394L837.6134362408027,322.33563038193614L837.8172325206375,322.27974329612425L838.0210288004722,320.43342650394584L838.2248250803069,326.59367922293643L839.040010199646,324.9533551652654L839.4476027593154,323.9730111915935L839.8551953189849,314.5424290385323L840.4665841584891,324.32062609522774L841.0779729979934,327.66786086857246L841.3997565977324,324.973507757547L842.0111454372367,327.01252072850065L844.252904515419,320.79977431552567L845.2718859145928,315.62893769937835L845.5936695143317,328.6547492407687L846.8164471933403,319.8784684343627L847.835428592514,327.0811503468892L848.650613711853,314.74887191685355L848.8544099916877,329.4318705957107L849.9913787107657,327.8440748584713L850.60276755027,337.0320641223144L851.8255452292784,321.4937921971414L852.6407303486175,315.5489852327491L853.4559154679565,318.812874147637L853.9814953475303,324.0846814838757L855.2042730265388,323.4682268440311L855.815661866043,335.6047619679363L856.630846985382,321.40857651053483L857.0384395450515,324.8299118809287L857.2422358248863,317.77657383525883L857.8536246643905,333.50078978199934L858.1754082641296,327.86717069876653L858.9905933834685,321.6313976983908L859.6019822229728,327.20012681953466L859.8057785028075,323.3273664567431L860.0095747826423,332.8558375760933L860.4171673423118,321.7594116737604L862.3693211807288,337.96825937578166L863.9996914194068,316.23029520823536L865.0186728185805,327.88070963962923L865.2224690984153,331.47756647097765L865.42626537825,323.3260506517488L865.6300616580849,339.45522289871855L866.241450497589,321.7104152509451L867.1746229368324,323.9656011318886L868.6011968956756,333.4791828789345L870.4353634141883,336.06847934909666L871.1647395735969,334.5476511607793L873.6102949316139,329.43290938912725L874.221683771118,331.27721784736696L874.6292763307877,327.0392869722011L875.1548562103615,337.5754915849736L875.7662450498656,329.9910184654074L876.1738376095352,330.32748365303695L876.5814301692046,337.2421774040409L876.9890227288741,331.9352242238747L877.192819008709,320.1183604606978L877.3966152885436,333.147946284835L879.9601579664649,327.39552386119294L881.1829356454734,330.4254764986675L883.0171021639861,346.3020141867255L883.3388857637252,335.73835080130823L884.7654597225684,343.4281575733154L885.5806448419074,339.1215278268665L885.7844411217421,335.18723626736636L886.8034225209159,323.9580525663948L887.0072188007507,330.8933490534942L887.7365949601593,331.1814410943585L889.3669651988372,328.1170351419007L889.9783540383414,333.37547666951275L890.1821503181762,336.22315568882516L892.1343041565933,338.9941025010996L892.7456929960974,332.1893477200168L892.9494892759323,339.87420291007163L893.3570818356017,330.8071291999183L893.5608781154365,343.4985531405121L894.1722669549408,330.85193582261996L894.3760632347754,327.3558419526796L894.5798595146102,320.643643665014L896.1244207933578,333.34202752149895L896.5320133530273,343.1022188256404L896.9396059126967,337.5184271999562L899.3851612707138,331.45204677937704L900.1145374301224,332.6929201419266L900.318333709957,349.4121963024071L900.5221299897918,332.158737940675L900.7259262696265,336.9842449987046L901.5411113889655,334.20422605725867L902.1525002284699,341.44600122869576L905.3274317458953,337.28968488962573L905.5312280257301,335.6433012036913L905.7350243055647,339.2873885090468L906.9578019845733,335.5271987261651L907.3653945442428,327.2316715129514L908.1805796635817,340.5103946248312L909.1137521028252,329.14641016483506L909.3175483826598,342.3954237850008L910.3365297818335,327.79313935461175L912.374492580181,328.89800003248405L914.3266464185981,348.8790182681248L914.7342389782675,336.14036385352387L914.9380352581023,328.7184965300994L915.141831537937,336.11432476521503L915.7532203774413,335.31462696668603L916.1608129371108,328.0897841279392L916.8901890965194,332.99316606576485L918.7243556150321,315.88898231799504L919.3357444545363,338.91820132879496L919.9471332940407,333.9597633398906L922.1030834122924,338.6761278362851L924.5486387703094,326.70483011851024L925.6856074893874,341.3478352508291L926.908385168396,338.45659616091496L927.1121814482306,337.29134695909227L927.5197740079002,341.36161657682237L928.3349591272391,336.66287694206255L929.6757241261519,338.0858507905383L930.2871129656562,343.0453621993064L930.6947055253256,343.46015241054596L931.1022980849953,334.09148234511275L931.7136869244994,340.8210284828353L932.1212794841689,338.4635214503588L932.3250757640037,338.7956237056388L932.7326683236731,328.4280845172714L933.3440571631775,331.15817212182714L936.3151924007682,333.5083729739403L936.518988680603,346.1768742064751L937.1303775201071,349.3330748705111L938.4711425190201,338.4162909763517L938.8787350786895,340.41357907840614L939.0825313585243,337.15869303979525L940.916697877037,339.64286361619975L941.1204941568717,343.7909388608316L942.2574628759497,344.0141755660542L942.4612591557845,332.75105794680775L942.6650554356193,332.916122220702L943.2764442751235,340.8531271994075L943.4802405549583,337.6041622832711L944.499221954132,343.5492116327939L945.5182033533058,343.7641726171311L945.9257959129752,348.87770246313056" fill="none"></path></g></g></g></g></g></g><g transform="translate(39, 377)" clip-path="url(#clip_1)"><clipPath id="clip_1"><rect width="1072" height="22"></rect></clipPath><g><g><line x1="0" y1="0" x2="0" y2="5" style="visibility: inherit;" fill="rgb(0, 0, 0)" stroke="rgb(204, 204, 204)" stroke-width="1px"></line><line x1="107.2611999130249" y1="0" x2="107.2611999130249" y2="5" style="visibility: inherit;" fill="rgb(0, 0, 0)" stroke="rgb(204, 204, 204)" stroke-width="1px"></line><line x1="214.5223998260498" y1="0" x2="214.5223998260498" y2="5" style="visibility: inherit;" fill="rgb(0, 0, 0)" stroke="rgb(204, 204, 204)" stroke-width="1px"></line><line x1="321.78359973907465" y1="0" x2="321.78359973907465" y2="5" style="visibility: inherit;" fill="rgb(0, 0, 0)" stroke="rgb(204, 204, 204)" stroke-width="1px"></line><line x1="429.0447996520996" y1="0" x2="429.0447996520996" y2="5" style="visibility: inherit;" fill="rgb(0, 0, 0)" stroke="rgb(204, 204, 204)" stroke-width="1px"></line><line x1="536.3059995651245" y1="0" x2="536.3059995651245" y2="5" style="visibility: inherit;" fill="rgb(0, 0, 0)" stroke="rgb(204, 204, 204)" stroke-width="1px"></line><line x1="643.5671994781493" y1="0" x2="643.5671994781493" y2="5" style="visibility: inherit;" fill="rgb(0, 0, 0)" stroke="rgb(204, 204, 204)" stroke-width="1px"></line><line x1="750.8283993911742" y1="0" x2="750.8283993911742" y2="5" style="visibility: inherit;" fill="rgb(0, 0, 0)" stroke="rgb(204, 204, 204)" stroke-width="1px"></line><line x1="858.0895993041992" y1="0" x2="858.0895993041992" y2="5" style="visibility: inherit;" fill="rgb(0, 0, 0)" stroke="rgb(204, 204, 204)" stroke-width="1px"></line><line x1="965.3507992172241" y1="0" x2="965.3507992172241" y2="5" style="visibility: inherit;" fill="rgb(0, 0, 0)" stroke="rgb(204, 204, 204)" stroke-width="1px"></line><line x1="1072.611999130249" y1="0" x2="1072.611999130249" y2="5" style="visibility: inherit;" fill="rgb(0, 0, 0)" stroke="rgb(204, 204, 204)" stroke-width="1px"></line></g><g transform="translate(0, 8)"><text style="text-anchor: middle; visibility: hidden; font-family: Roboto, sans-serif; font-size: 12px; font-weight: 200;" x="0" y="0" dx="0em" dy="0.95em" fill="rgb(33, 33, 33)" stroke="none" stroke-width="1px">-10k</text><text style="text-anchor: middle; visibility: inherit; font-family: Roboto, sans-serif; font-size: 12px; font-weight: 200;" x="107.2611999130249" y="0" dx="0em" dy="0.95em" fill="rgb(33, 33, 33)" stroke="none" stroke-width="1px">0</text><text style="text-anchor: middle; visibility: inherit; font-family: Roboto, sans-serif; font-size: 12px; font-weight: 200;" x="214.5223998260498" y="0" dx="0em" dy="0.95em" fill="rgb(33, 33, 33)" stroke="none" stroke-width="1px">10k</text><text style="text-anchor: middle; visibility: inherit; font-family: Roboto, sans-serif; font-size: 12px; font-weight: 200;" x="321.78359973907465" y="0" dx="0em" dy="0.95em" fill="rgb(33, 33, 33)" stroke="none" stroke-width="1px">20k</text><text style="text-anchor: middle; visibility: inherit; font-family: Roboto, sans-serif; font-size: 12px; font-weight: 200;" x="429.0447996520996" y="0" dx="0em" dy="0.95em" fill="rgb(33, 33, 33)" stroke="none" stroke-width="1px">30k</text><text style="text-anchor: middle; visibility: inherit; font-family: Roboto, sans-serif; font-size: 12px; font-weight: 200;" x="536.3059995651245" y="0" dx="0em" dy="0.95em" fill="rgb(33, 33, 33)" stroke="none" stroke-width="1px">40k</text><text style="text-anchor: middle; visibility: inherit; font-family: Roboto, sans-serif; font-size: 12px; font-weight: 200;" x="643.5671994781493" y="0" dx="0em" dy="0.95em" fill="rgb(33, 33, 33)" stroke="none" stroke-width="1px">50k</text><text style="text-anchor: middle; visibility: inherit; font-family: Roboto, sans-serif; font-size: 12px; font-weight: 200;" x="750.8283993911742" y="0" dx="0em" dy="0.95em" fill="rgb(33, 33, 33)" stroke="none" stroke-width="1px">60k</text><text style="text-anchor: middle; visibility: inherit; font-family: Roboto, sans-serif; font-size: 12px; font-weight: 200;" x="858.0895993041992" y="0" dx="0em" dy="0.95em" fill="rgb(33, 33, 33)" stroke="none" stroke-width="1px">70k</text><text style="text-anchor: middle; visibility: inherit; font-family: Roboto, sans-serif; font-size: 12px; font-weight: 200;" x="965.3507992172241" y="0" dx="0em" dy="0.95em" fill="rgb(33, 33, 33)" stroke="none" stroke-width="1px">80k</text><text style="text-anchor: middle; visibility: hidden; font-family: Roboto, sans-serif; font-size: 12px; font-weight: 200;" x="1072.611999130249" y="0" dx="0em" dy="0.95em" fill="rgb(33, 33, 33)" stroke="none" stroke-width="1px">90k</text></g><line x1="0" y1="0" x2="1072.611999130249" y2="0" fill="rgb(0, 0, 0)" stroke="rgb(204, 204, 204)" stroke-width="1px"></line></g></g></g></g></svg>