<svg viewBox="0 0 1112.5999755859375 400" xmlns="http://www.w3.org/2000/svg"><g><g><g><g><g><line x1="51.53200149536133" y1="376.55199909210205" x2="46.53200149536133" y2="376.55199909210205" style="visibility: inherit;" fill="rgb(0, 0, 0)" stroke="rgb(204, 204, 204)" stroke-width="1px"></line><line x1="51.53200149536133" y1="329.4829992055893" x2="46.53200149536133" y2="329.4829992055893" style="visibility: inherit;" fill="rgb(0, 0, 0)" stroke="rgb(204, 204, 204)" stroke-width="1px"></line><line x1="51.53200149536133" y1="282.41399931907654" x2="46.53200149536133" y2="282.41399931907654" style="visibility: inherit;" fill="rgb(0, 0, 0)" stroke="rgb(204, 204, 204)" stroke-width="1px"></line><line x1="51.53200149536133" y1="235.34499943256378" x2="46.53200149536133" y2="235.34499943256378" style="visibility: inherit;" fill="rgb(0, 0, 0)" stroke="rgb(204, 204, 204)" stroke-width="1px"></line><line x1="51.53200149536133" y1="188.27599954605103" x2="46.53200149536133" y2="188.27599954605103" style="visibility: inherit;" fill="rgb(0, 0, 0)" stroke="rgb(204, 204, 204)" stroke-width="1px"></line><line x1="51.53200149536133" y1="141.20699965953827" x2="46.53200149536133" y2="141.20699965953827" style="visibility: inherit;" fill="rgb(0, 0, 0)" stroke="rgb(204, 204, 204)" stroke-width="1px"></line><line x1="51.53200149536133" y1="94.13799977302547" x2="46.53200149536133" y2="94.13799977302547" style="visibility: inherit;" fill="rgb(0, 0, 0)" stroke="rgb(204, 204, 204)" stroke-width="1px"></line><line x1="51.53200149536133" y1="47.0689998865128" x2="46.53200149536133" y2="47.0689998865128" style="visibility: inherit;" fill="rgb(0, 0, 0)" stroke="rgb(204, 204, 204)" stroke-width="1px"></line><line x1="51.53200149536133" y1="0" x2="46.53200149536133" y2="0" style="visibility: inherit;" fill="rgb(0, 0, 0)" stroke="rgb(204, 204, 204)" stroke-width="1px"></line></g><g transform="translate(41.53200149536133, 0)"><text style="text-anchor: end; visibility: hidden; font-family: Roboto, sans-serif; font-size: 12px; font-weight: 200;" x="0" y="376.55199909210205" dx="0em" dy="0.3em" fill="rgb(33, 33, 33)" stroke="none" stroke-width="1px">0.25</text><text style="text-anchor: end; visibility: inherit; font-family: Roboto, sans-serif; font-size: 12px; font-weight: 200;" x="0" y="329.4829992055893" dx="0em" dy="0.3em" fill="rgb(33, 33, 33)" stroke="none" stroke-width="1px">0.3</text><text style="text-anchor: end; visibility: inherit; font-family: Roboto, sans-serif; font-size: 12px; font-weight: 200;" x="0" y="282.41399931907654" dx="0em" dy="0.3em" fill="rgb(33, 33, 33)" stroke="none" stroke-width="1px">0.35</text><text style="text-anchor: end; visibility: inherit; font-family: Roboto, sans-serif; font-size: 12px; font-weight: 200;" x="0" y="235.34499943256378" dx="0em" dy="0.3em" fill="rgb(33, 33, 33)" stroke="none" stroke-width="1px">0.4</text><text style="text-anchor: end; visibility: inherit; font-family: Roboto, sans-serif; font-size: 12px; font-weight: 200;" x="0" y="188.27599954605103" dx="0em" dy="0.3em" fill="rgb(33, 33, 33)" stroke="none" stroke-width="1px">0.45</text><text style="text-anchor: end; visibility: inherit; font-family: Roboto, sans-serif; font-size: 12px; font-weight: 200;" x="0" y="141.20699965953827" dx="0em" dy="0.3em" fill="rgb(33, 33, 33)" stroke="none" stroke-width="1px">0.5</text><text style="text-anchor: end; visibility: inherit; font-family: Roboto, sans-serif; font-size: 12px; font-weight: 200;" x="0" y="94.13799977302547" dx="0em" dy="0.3em" fill="rgb(33, 33, 33)" stroke="none" stroke-width="1px">0.55</text><text style="text-anchor: end; visibility: inherit; font-family: Roboto, sans-serif; font-size: 12px; font-weight: 200;" x="0" y="47.0689998865128" dx="0em" dy="0.3em" fill="rgb(33, 33, 33)" stroke="none" stroke-width="1px">0.6</text><text style="text-anchor: end; visibility: hidden; font-family: Roboto, sans-serif; font-size: 12px; font-weight: 200;" x="0" y="0" dx="0em" dy="0.3em" fill="rgb(33, 33, 33)" stroke="none" stroke-width="1px">0.65</text></g><line x1="51.53200149536133" y1="0" x2="51.53200149536133" y2="376.55199909210205" fill="rgb(0, 0, 0)" stroke="rgb(204, 204, 204)" stroke-width="1px"></line></g></g><g transform="translate(51, 0)" clip-path="url(#clip_0)"><clipPath id="clip_0"><rect width="1061" height="376"></rect></clipPath><g><g><g><line x1="0" y1="0" x2="0" y2="376.55199909210205" fill="rgb(0, 0, 0)" stroke="rgb(66, 66, 66)" stroke-width="1px" opacity="0.25"></line><line x1="88.42233320871988" y1="0" x2="88.42233320871988" y2="376.55199909210205" fill="rgb(0, 0, 0)" stroke="rgb(66, 66, 66)" stroke-width="1px" opacity="0.25"></line><line x1="176.84466641743975" y1="0" x2="176.84466641743975" y2="376.55199909210205" fill="rgb(0, 0, 0)" stroke="rgb(66, 66, 66)" stroke-width="1px" opacity="0.25"></line><line x1="265.26699962615965" y1="0" x2="265.26699962615965" y2="376.55199909210205" fill="rgb(0, 0, 0)" stroke="rgb(66, 66, 66)" stroke-width="1px" opacity="0.25"></line><line x1="353.6893328348795" y1="0" x2="353.6893328348795" y2="376.55199909210205" fill="rgb(0, 0, 0)" stroke="rgb(66, 66, 66)" stroke-width="1px" opacity="0.25"></line><line x1="442.1116660435994" y1="0" x2="442.1116660435994" y2="376.55199909210205" fill="rgb(0, 0, 0)" stroke="rgb(66, 66, 66)" stroke-width="1px" opacity="0.25"></line><line x1="530.5339992523193" y1="0" x2="530.5339992523193" y2="376.55199909210205" fill="rgb(0, 0, 0)" stroke="rgb(66, 66, 66)" stroke-width="1px" opacity="0.25"></line><line x1="618.9563324610392" y1="0" x2="618.9563324610392" y2="376.55199909210205" fill="rgb(0, 0, 0)" stroke="rgb(66, 66, 66)" stroke-width="1px" opacity="0.25"></line><line x1="707.378665669759" y1="0" x2="707.378665669759" y2="376.55199909210205" fill="rgb(0, 0, 0)" stroke="rgb(66, 66, 66)" stroke-width="1px" opacity="0.25"></line><line x1="795.8009988784789" y1="0" x2="795.8009988784789" y2="376.55199909210205" fill="rgb(0, 0, 0)" stroke="rgb(66, 66, 66)" stroke-width="1px" opacity="0.25"></line><line x1="884.2233320871989" y1="0" x2="884.2233320871989" y2="376.55199909210205" fill="rgb(0, 0, 0)" stroke="rgb(66, 66, 66)" stroke-width="1px" opacity="0.25"></line><line x1="972.6456652959187" y1="0" x2="972.6456652959187" y2="376.55199909210205" fill="rgb(0, 0, 0)" stroke="rgb(66, 66, 66)" stroke-width="1px" opacity="0.25"></line><line x1="1061.0679985046386" y1="0" x2="1061.0679985046386" y2="376.55199909210205" fill="rgb(0, 0, 0)" stroke="rgb(66, 66, 66)" stroke-width="1px" opacity="0.25"></line></g><g><line x1="0" y1="376.55199909210205" x2="1061.0679985046386" y2="376.55199909210205" fill="rgb(0, 0, 0)" stroke="rgb(66, 66, 66)" stroke-width="1px" opacity="0.25"></line><line x1="0" y1="329.4829992055893" x2="1061.0679985046386" y2="329.4829992055893" fill="rgb(0, 0, 0)" stroke="rgb(66, 66, 66)" stroke-width="1px" opacity="0.25"></line><line x1="0" y1="282.41399931907654" x2="1061.0679985046386" y2="282.41399931907654" fill="rgb(0, 0, 0)" stroke="rgb(66, 66, 66)" stroke-width="1px" opacity="0.25"></line><line x1="0" y1="235.34499943256378" x2="1061.0679985046386" y2="235.34499943256378" fill="rgb(0, 0, 0)" stroke="rgb(66, 66, 66)" stroke-width="1px" opacity="0.25"></line><line x1="0" y1="188.27599954605103" x2="1061.0679985046386" y2="188.27599954605103" fill="rgb(0, 0, 0)" stroke="rgb(66, 66, 66)" stroke-width="1px" opacity="0.25"></line><line x1="0" y1="141.20699965953827" x2="1061.0679985046386" y2="141.20699965953827" fill="rgb(0, 0, 0)" stroke="rgb(66, 66, 66)" stroke-width="1px" opacity="0.25"></line><line x1="0" y1="94.13799977302547" x2="1061.0679985046386" y2="94.13799977302547" fill="rgb(0, 0, 0)" stroke="rgb(66, 66, 66)" stroke-width="1px" opacity="0.25"></line><line x1="0" y1="47.0689998865128" x2="1061.0679985046386" y2="47.0689998865128" fill="rgb(0, 0, 0)" stroke="rgb(66, 66, 66)" stroke-width="1px" opacity="0.25"></line><line x1="0" y1="0" x2="1061.0679985046386" y2="0" fill="rgb(0, 0, 0)" stroke="rgb(66, 66, 66)" stroke-width="1px" opacity="0.25"></line></g></g></g><g><g><line x1="0" y1="611.8969985246658" x2="1061.0679985046386" y2="611.8969985246658" fill="rgb(0, 0, 0)" stroke="rgb(153, 153, 153)" stroke-width="1.5px"></line></g></g><g><g><line x1="88.42233320871988" y1="0" x2="88.42233320871988" y2="376.55199909210205" fill="rgb(0, 0, 0)" stroke="rgb(153, 153, 153)" stroke-width="1.5px"></line></g></g><g><g><g><g><g><path style="fill: none;" stroke="rgb(51, 187, 238)" stroke-width="2px" d="M106.10679985046386,380.3600923441341L110.52791651089986,364.8261654148673L114.94903317133586,353.1173695097413L119.37014983177184,343.4300967077078L123.79126649220784,335.4580480623809L128.21238315264384,329.2398424450968L132.63349981307982,323.9960155696767L137.05461647351584,317.58215019776435L141.47573313395182,314.20161164065513L145.8968497943878,310.5567137637162L150.3179664548238,300.4967111435031L154.7390831152598,292.695128522327L159.1601997756958,286.4345694627931L163.5813164361318,276.50286277109893L168.00243309656776,278.7169211450839L172.42354975700377,269.5764311025355L176.84466641743975,263.79123584715865L181.26578307787577,259.7930720018762L185.68689973831175,252.16008371317363L190.10801639874774,244.6808831666047L194.52913305918372,237.74581011652728L198.95024971961973,229.32972732419626L203.37136638005575,227.21720839531284L207.79248304049173,217.28899378278766L212.21359970092772,209.0351033085951L216.6347163613637,206.75629842580713L221.0558330217997,202.1506581960605L225.4769496822357,194.07789633070183L229.8980663426717,200.49313976612055L234.31918300310767,206.33801691886893L238.74029966354368,196.89154784102348L243.16141632397967,186.74270601465653L247.58253298441568,186.82884619439045L252.00364964485166,177.01486919309335L256.4247663052877,169.54497152399952L260.84588296572366,165.77847701789412L265.26699962615965,159.56479033890764L269.68811628659563,156.4013990639864L274.10923294703167,150.62488599803413L278.53034960746766,147.53552531148517L282.95146626790364,141.50218390003883L287.37258292833957,140.48039255216003L291.7936995887756,136.17710179595682L296.2148162492116,135.81679368940524L300.6359329096476,138.61301970099876L305.05704957008356,133.09859698875763L309.4781662305196,134.5345003096885L313.8992828909556,128.95701195178955L318.3203995513916,128.47231768534456L322.74151621182756,124.75487042837777L327.1626328722636,122.97627212211279L331.5837495326996,119.53682344213458L336.0048661931355,118.15094808389053L340.42598285357155,119.69171256516385L344.84709951400754,118.35684345862413L349.2682161744435,115.93674904499846L353.6893328348795,111.02042269558866L358.11044949531555,112.09972853600331L362.53156615575153,112.22014153981408L366.9526828161875,109.76949874082642L371.3737994766235,106.0398077103787L375.79491613705954,105.30818169664818L380.2160327974955,103.55127983731494L384.63714945793146,105.35893746998396L389.05826611836744,102.8662780031871L393.4793827788035,101.1824199696659L397.90049943923947,103.9752829977823L402.32161609967545,102.18670866916959L406.7427327601115,98.0635029702899L411.1638494205475,94.08336850217589L415.58496608098346,95.49846566953681L420.0060827414194,96.72407112108779L424.42719940185543,93.99516469078397L428.8483160622914,92.1318745865224L433.2694327227274,90.147844320781L437.6905493831634,89.44693521338613L442.1116660435994,86.57879960020267L446.5327827040354,96.11682842767684L450.9538993644714,93.21661047521496L455.3750160249074,92.34253590692241L459.7961326853434,89.18223866375716L464.21724934577935,90.71269101495274L468.63836600621534,88.91978702670463L473.0594826666514,85.73534018775584L477.48059932708736,83.5610868341676L481.90171598752335,82.78370532245255L486.32283264795933,86.04515381112516L490.7439493083954,89.96008155677704L495.16506596883136,87.07497220392858L499.58618262926734,86.58653239078663L504.0072992897033,82.52795210306029L508.42841595013937,81.10948348291238L512.8495326105754,79.4676465601667L517.2706492710113,78.59550630743486L521.6917659314473,79.31484795436292L526.1128825918834,76.69636939655953L530.5339992523193,75.91606045678263L534.9551159127552,80.49365629546475L539.3762325731913,78.98518834678262L543.7973492336272,80.52769772631987L548.2184658940633,77.38644025559395L552.6395825544993,74.7485690266413L557.0606992149353,72.75163768974731L561.4818158753712,74.30231573496435L565.9029325358073,74.55492871235316L570.3240491962432,75.34662890013985L574.7451658566791,76.08523426303086L579.1662825171152,75.4363950315017L583.5873991775512,72.03469183926005L588.0085158379873,70.8597261270996L592.4296324984232,71.05848679562395L596.8507491588592,70.04807929908685L601.2718658192952,72.1153487517422L605.6929824797312,73.61929567355429L610.1140991401671,71.39627982815378L614.5352158006033,69.45999936794787L618.9563324610392,69.42787254522783L623.3774491214751,68.76846405024233L627.7985657819112,68.5234423025545L632.2196824423471,67.3973887055935L636.6407991027831,67.02300324602379L641.0619157632191,65.51810716757504L645.4830324236551,65.36826382277475L649.9041490840912,66.37036026515833L654.3252657445272,65.2018218315834L658.7463824049631,67.24953561879182L663.1674990653992,67.76270859298762L667.5886157258351,66.67736322963437L672.009732386271,67.7582908622398L676.4308490467071,64.79195439126501L680.8519657071431,63.68994635842158L685.2730823675791,63.32998823732238L689.6941990280151,60.59112276338878L694.1153156884511,62.97690512908881L698.536432348887,62.03608485229004L702.9575490093231,59.81478073236933L707.378665669759,60.101171210118565L711.799782330195,58.69147155120619L716.2208989906311,59.80373285255522L720.642015651067,58.32474618322501L725.0631323115031,58.679957535945974L729.484248971939,57.76344289417492L733.905365632375,56.98761030728121L738.326482292811,55.8443169054037L742.747598953247,55.79847326563071L747.168715613683,55.54502083568766L751.5898322741191,55.12936412750278L756.010948934555,56.16025734954706L760.432065594991,55.04665843215639L764.853182255427,58.633524533613276L769.2742989158629,56.8318654412029L773.695415576299,57.18175813776708L778.1165322367349,58.67195855841254L782.537648897171,55.311053358908495L786.958765557607,56.9847261865197L791.379882218043,55.61664018686758L795.8009988784789,54.11799473733487L800.2221155389149,52.503352169486064L804.6432321993509,53.07843912595083L809.0643488597868,53.461152748217536L813.485465520223,50.30181167287079L817.9065821806589,51.117382426628154L822.327698841095,52.35981918115166L826.7488155015309,51.93797833207429L831.1699321619669,51.60955092585212L835.5910488224029,49.94394488172055L840.0121654828388,48.53037265571925L844.4332821432748,50.65698996930289L848.8543988037109,49.937240256616846L853.2755154641469,48.865258027651784L857.6966321245828,49.12578634184514L862.1177487850189,50.26114387870935L866.5388654454548,47.89227485486769L870.9599821058908,47.337032087995354L875.3810987663268,46.062507327911696L879.8022154267629,46.99228831833894L884.2233320871989,46.15690776472462L888.6444487476348,49.60948063008872L893.0655654080708,51.53040100000376L897.4866820685068,52.68295322195281L901.9077987289428,48.93117430553952L906.3289153893787,46.00231310595018L910.7500320498148,45.2240144902967L915.1711487102508,46.79041687012866L919.5922653706868,46.3370315944054L924.0133820311228,46.40388613171797L928.4344986915587,46.63228365179692L932.8556153519947,46.27979066754599L937.2767320124307,45.76707062263679L941.6978486728667,45.23349234961205L946.1189653333028,41.5620375854783L950.5400819937388,42.14564057849113L954.9611986541747,43.022972874736816L959.3823153146108,42.005522199558236L963.8034319750467,43.014224744152855L968.2245486354827,43.09227577047165L972.6456652959187,44.682956439188835" fill="none"></path></g></g></g></g><g opacity="0.2"><g><g><g><path style="fill: none;" stroke="rgb(51, 187, 238)" stroke-width="2px" d="M101.68568319002787,378.7171676553736L106.10679985046386,359.7013064695377L110.52791651089986,344.5450704160166L114.94903317133586,336.9198896064263L119.37014983177184,329.5771416044349L123.79126649220784,323.8347246058273L128.21238315264384,320.06919698386196L132.63349981307982,316.20954379623697L137.05461647351584,308.0195254267588L141.47573313395182,309.14920054653453L145.8968497943878,305.1012681722803L150.3179664548238,285.4264158055868L154.7390831152598,281.001925058074L159.1601997756958,277.0481463047895L163.5813164361318,261.60950549897956L168.00243309656776,282.03744655688L172.42354975700377,255.86708850037192L176.84466641743975,255.11397175385477L181.26578307787577,253.79604550275994L185.68689973831175,240.71085244685082L190.10801639874774,233.46223001051905L194.52913305918372,227.34328269396303L198.95024971961973,216.70566295361425L203.37136638005575,224.04843901091576L207.79248304049173,202.39669726758004L212.21359970092772,196.6542802689724L216.6347163613637,203.33809320072646L221.0558330217997,195.24220039690783L225.4769496822357,181.9687562096796L229.8980663426717,210.11600364282992L234.31918300310767,215.1053319502306L238.74029966354368,182.72184490088657L243.16141632397967,171.5194437112703L247.58253298441568,186.95805646177007L252.00364964485166,162.29390384298614L256.4247663052877,158.34012508970164L260.84588296572366,160.1287352797146L265.26699962615965,150.24426034119318L269.68811628659563,151.65631215794755L274.10923294703167,141.96011640605542L278.53034960746766,142.90148428389168L282.95146626790364,132.4521717854824L287.37258292833957,138.94770553060718L291.7936995887756,129.722165662323L296.2148162492116,135.27633152961153L300.6359329096476,142.80735871823214L305.05704957008356,124.82696292058188L309.4781662305196,136.68835529105573L313.8992828909556,120.59077941500854L318.3203995513916,127.74527628568075L322.74151621182756,119.17869954294397L327.1626328722636,120.3083746627197L331.5837495326996,114.3776504221726L336.0048661931355,116.072135046526L340.42598285357155,122.00285928707311L344.84709951400754,116.35453979881484L349.2682161744435,112.30660742456061L353.6893328348795,103.64593317147447L358.11044949531555,113.71868729662518L362.53156615575153,112.40076104553034L366.9526828161875,106.09353454234503L371.3737994766235,100.44527116470712L375.79491613705954,104.21074267605215L380.2160327974955,100.91592704831507L384.63714945793146,108.07042391898727L389.05826611836744,99.12728880299193L393.4793827788035,98.65663291938398L397.90049943923947,108.16457753995701L402.32161609967545,99.5038471762505L406.7427327601115,91.87869442197035L411.1638494205475,88.11316680000496L415.58496608098346,97.62111142057799L420.0060827414194,98.56247929841425L424.42719940185543,89.9018050453281L428.8483160622914,89.33693943013006L433.2694327227274,87.1717989221687L437.6905493831634,88.3955715522938L442.1116660435994,82.27659618042759L446.5327827040354,110.4238716688881L450.9538993644714,88.86628354652211L455.3750160249074,91.03142405448347L459.7961326853434,84.4417927990093L464.21724934577935,93.00836954174608L468.63836600621534,86.23043104433245L473.0594826666514,80.95866992933276L477.48059932708736,80.29970680378534L481.90171598752335,81.61763305488017L486.32283264795933,90.9373265441341L490.7439493083954,95.83247317525485L495.16506596883136,82.7473081746559L499.58618262926734,85.85387267107387L504.0072992897033,76.44008167147058L508.42841595013937,78.98178055269051L512.8495326105754,77.00489117604826L517.2706492710113,77.2872959283371L521.6917659314473,80.39386042475508L526.1128825918834,72.76865155985456L530.5339992523193,74.74559704711717L534.9551159127552,87.36005005348781L539.3762325731913,76.72248642375942L543.7973492336272,82.84146179562563L548.2184658940633,72.67455404950519L552.6395825544993,70.79176218321231L557.0606992149353,69.75624068440632L561.4818158753712,76.62833280278969L565.9029325358073,74.93384817843628L570.3240491962432,76.53417918181995L574.7451658566791,77.19314230736737L579.1662825171152,74.46313618420797L583.5873991775512,66.93213705089755L588.0085158379873,69.0972775588589L592.4296324984232,71.35662779841036L596.8507491588592,68.53246805428122L601.2718658192952,75.21625293072512L605.6929824797312,75.87521605627254L610.1140991401671,68.06175606005291L614.5352158006033,66.55557867763898L618.9563324610392,69.37968231114775L623.3774491214751,67.77935130776407L627.7985657819112,68.15590968102265L632.2196824423471,65.70830831015209L636.6407991027831,66.46142505666924L641.0619157632191,63.2607630499019L645.4830324236551,65.14349880557441L649.9041490840912,67.87350492873381L654.3252657445272,63.449014181221L658.7463824049631,70.32110629960437L663.1674990653992,68.53246805428122L667.5886157258351,65.04934518460468L672.009732386271,69.37968231114775L676.4308490467071,60.34244968480303L680.8519657071431,62.036934309156436L685.2730823675791,62.79005105567359L689.6941990280151,56.48282455248827L694.1153156884511,66.55557867763898L698.536432348887,60.62485443709187L702.9575490093231,56.48282455248827L707.378665669759,60.5307569267425L711.799782330195,56.57692206283764L716.2208989906311,61.472124804578755L720.642015651067,56.10626617922969L725.0631323115031,59.2127745650273L729.484248971939,56.38867093151853L733.905365632375,55.82386142694085L738.326482292811,54.129376802587444L742.747598953247,55.72970780597112L747.168715613683,55.16484219077307L751.5898322741191,54.505879065225656L756.010948934555,57.706597182613365L760.432065594991,53.376260056070294L764.853182255427,64.01382368579868L769.2742989158629,54.129376802587444L773.695415576299,57.706597182613365L778.1165322367349,60.90725918938071L782.537648897171,50.26969555965232L786.958765557607,59.49523542793651L791.379882218043,53.5645111873894L795.8009988784789,51.87002656303599L800.2221155389149,50.08138831771285L804.6432321993509,53.941069560647975L809.0643488597868,54.03522318161771L813.485465520223,45.56280005985067L817.9065821806589,52.3407385572643L822.327698841095,54.223474312936816L826.7488155015309,51.30521705845831L831.1699321619669,51.11690981651884L835.5910488224029,47.445535815523186L840.0121654828388,46.410014316717195L844.4332821432748,53.84691593967824L848.8543988037109,48.85761568758775L853.2755154641469,47.25728468420408L857.6966321245828,49.51657881313517L862.1177487850189,51.96418018400573L866.5388654454548,44.33897131910521L870.9599821058908,46.50416793768693L875.3810987663268,44.150720187786106L879.8022154267629,48.386959803979806L884.2233320871989,44.90383693430326L888.6444487476348,54.78833992813486L893.0655654080708,54.411781554876285L897.4866820685068,54.411781554876285L901.9077987289428,43.303505930919584L906.3289153893787,41.60902130656618L910.7500320498148,44.05656656681637L915.1711487102508,49.140020439876594L919.5922653706868,45.65695368082041L924.0133820311228,46.50416793768693L928.4344986915587,46.97487993191524L932.8556153519947,45.75105119116978L937.2767320124307,44.99799055527299L941.6978486728667,44.43312494007495L946.1189653333028,36.054855439277645L950.5400819937388,43.02104506801038L954.9611986541747,44.33897131910521L959.3823153146108,40.47934618679045L963.8034319750467,44.52727856104468L968.2245486354827,43.20935230994985L972.6456652959187,47.06897744226461" fill="none"></path></g></g></g></g></g></g><g transform="translate(51, 376)" clip-path="url(#clip_1)"><clipPath id="clip_1"><rect width="1061" height="23"></rect></clipPath><g><g><line x1="0" y1="0" x2="0" y2="5" style="visibility: inherit;" fill="rgb(0, 0, 0)" stroke="rgb(204, 204, 204)" stroke-width="1px"></line><line x1="88.42233320871988" y1="0" x2="88.42233320871988" y2="5" style="visibility: inherit;" fill="rgb(0, 0, 0)" stroke="rgb(204, 204, 204)" stroke-width="1px"></line><line x1="176.84466641743975" y1="0" x2="176.84466641743975" y2="5" style="visibility: inherit;" fill="rgb(0, 0, 0)" stroke="rgb(204, 204, 204)" stroke-width="1px"></line><line x1="265.26699962615965" y1="0" x2="265.26699962615965" y2="5" style="visibility: inherit;" fill="rgb(0, 0, 0)" stroke="rgb(204, 204, 204)" stroke-width="1px"></line><line x1="353.6893328348795" y1="0" x2="353.6893328348795" y2="5" style="visibility: inherit;" fill="rgb(0, 0, 0)" stroke="rgb(204, 204, 204)" stroke-width="1px"></line><line x1="442.1116660435994" y1="0" x2="442.1116660435994" y2="5" style="visibility: inherit;" fill="rgb(0, 0, 0)" stroke="rgb(204, 204, 204)" stroke-width="1px"></line><line x1="530.5339992523193" y1="0" x2="530.5339992523193" y2="5" style="visibility: inherit;" fill="rgb(0, 0, 0)" stroke="rgb(204, 204, 204)" stroke-width="1px"></line><line x1="618.9563324610392" y1="0" x2="618.9563324610392" y2="5" style="visibility: inherit;" fill="rgb(0, 0, 0)" stroke="rgb(204, 204, 204)" stroke-width="1px"></line><line x1="707.378665669759" y1="0" x2="707.378665669759" y2="5" style="visibility: inherit;" fill="rgb(0, 0, 0)" stroke="rgb(204, 204, 204)" stroke-width="1px"></line><line x1="795.8009988784789" y1="0" x2="795.8009988784789" y2="5" style="visibility: inherit;" fill="rgb(0, 0, 0)" stroke="rgb(204, 204, 204)" stroke-width="1px"></line><line x1="884.2233320871989" y1="0" x2="884.2233320871989" y2="5" style="visibility: inherit;" fill="rgb(0, 0, 0)" stroke="rgb(204, 204, 204)" stroke-width="1px"></line><line x1="972.6456652959187" y1="0" x2="972.6456652959187" y2="5" style="visibility: inherit;" fill="rgb(0, 0, 0)" stroke="rgb(204, 204, 204)" stroke-width="1px"></line><line x1="1061.0679985046386" y1="0" x2="1061.0679985046386" y2="5" style="visibility: inherit;" fill="rgb(0, 0, 0)" stroke="rgb(204, 204, 204)" stroke-width="1px"></line></g><g transform="translate(0, 8)"><text style="text-anchor: middle; visibility: hidden; font-family: Roboto, sans-serif; font-size: 12px; font-weight: 200;" x="0" y="0" dx="0em" dy="0.95em" fill="rgb(33, 33, 33)" stroke="none" stroke-width="1px">-20</text><text style="text-anchor: middle; visibility: inherit; font-family: Roboto, sans-serif; font-size: 12px; font-weight: 200;" x="88.42233320871988" y="0" dx="0em" dy="0.95em" fill="rgb(33, 33, 33)" stroke="none" stroke-width="1px">0</text><text style="text-anchor: middle; visibility: inherit; font-family: Roboto, sans-serif; font-size: 12px; font-weight: 200;" x="176.84466641743975" y="0" dx="0em" dy="0.95em" fill="rgb(33, 33, 33)" stroke="none" stroke-width="1px">20</text><text style="text-anchor: middle; visibility: inherit; font-family: Roboto, sans-serif; font-size: 12px; font-weight: 200;" x="265.26699962615965" y="0" dx="0em" dy="0.95em" fill="rgb(33, 33, 33)" stroke="none" stroke-width="1px">40</text><text style="text-anchor: middle; visibility: inherit; font-family: Roboto, sans-serif; font-size: 12px; font-weight: 200;" x="353.6893328348795" y="0" dx="0em" dy="0.95em" fill="rgb(33, 33, 33)" stroke="none" stroke-width="1px">60</text><text style="text-anchor: middle; visibility: inherit; font-family: Roboto, sans-serif; font-size: 12px; font-weight: 200;" x="442.1116660435994" y="0" dx="0em" dy="0.95em" fill="rgb(33, 33, 33)" stroke="none" stroke-width="1px">80</text><text style="text-anchor: middle; visibility: inherit; font-family: Roboto, sans-serif; font-size: 12px; font-weight: 200;" x="530.5339992523193" y="0" dx="0em" dy="0.95em" fill="rgb(33, 33, 33)" stroke="none" stroke-width="1px">100</text><text style="text-anchor: middle; visibility: inherit; font-family: Roboto, sans-serif; font-size: 12px; font-weight: 200;" x="618.9563324610392" y="0" dx="0em" dy="0.95em" fill="rgb(33, 33, 33)" stroke="none" stroke-width="1px">120</text><text style="text-anchor: middle; visibility: inherit; font-family: Roboto, sans-serif; font-size: 12px; font-weight: 200;" x="707.378665669759" y="0" dx="0em" dy="0.95em" fill="rgb(33, 33, 33)" stroke="none" stroke-width="1px">140</text><text style="text-anchor: middle; visibility: inherit; font-family: Roboto, sans-serif; font-size: 12px; font-weight: 200;" x="795.8009988784789" y="0" dx="0em" dy="0.95em" fill="rgb(33, 33, 33)" stroke="none" stroke-width="1px">160</text><text style="text-anchor: middle; visibility: inherit; font-family: Roboto, sans-serif; font-size: 12px; font-weight: 200;" x="884.2233320871989" y="0" dx="0em" dy="0.95em" fill="rgb(33, 33, 33)" stroke="none" stroke-width="1px">180</text><text style="text-anchor: middle; visibility: inherit; font-family: Roboto, sans-serif; font-size: 12px; font-weight: 200;" x="972.6456652959187" y="0" dx="0em" dy="0.95em" fill="rgb(33, 33, 33)" stroke="none" stroke-width="1px">200</text><text style="text-anchor: middle; visibility: hidden; font-family: Roboto, sans-serif; font-size: 12px; font-weight: 200;" x="1061.0679985046386" y="0" dx="0em" dy="0.95em" fill="rgb(33, 33, 33)" stroke="none" stroke-width="1px">220</text></g><line x1="0" y1="0" x2="1061.0679985046386" y2="0" fill="rgb(0, 0, 0)" stroke="rgb(204, 204, 204)" stroke-width="1px"></line></g></g></g></g></svg>