<svg viewBox="0 0 1112.5999755859375 400" xmlns="http://www.w3.org/2000/svg"><g><g><g><g><g><line x1="41.149001121520996" y1="376.55199909210205" x2="36.149001121520996" y2="376.55199909210205" style="visibility: inherit;" fill="rgb(0, 0, 0)" stroke="rgb(204, 204, 204)" stroke-width="1px"></line><line x1="41.149001121520996" y1="342.31999917463827" x2="36.149001121520996" y2="342.31999917463827" style="visibility: inherit;" fill="rgb(0, 0, 0)" stroke="rgb(204, 204, 204)" stroke-width="1px"></line><line x1="41.149001121520996" y1="308.0879992571744" x2="36.149001121520996" y2="308.0879992571744" style="visibility: inherit;" fill="rgb(0, 0, 0)" stroke="rgb(204, 204, 204)" stroke-width="1px"></line><line x1="41.149001121520996" y1="273.8559993397106" x2="36.149001121520996" y2="273.8559993397106" style="visibility: inherit;" fill="rgb(0, 0, 0)" stroke="rgb(204, 204, 204)" stroke-width="1px"></line><line x1="41.149001121520996" y1="239.62399942224675" x2="36.149001121520996" y2="239.62399942224675" style="visibility: inherit;" fill="rgb(0, 0, 0)" stroke="rgb(204, 204, 204)" stroke-width="1px"></line><line x1="41.149001121520996" y1="205.391999504783" x2="36.149001121520996" y2="205.391999504783" style="visibility: inherit;" fill="rgb(0, 0, 0)" stroke="rgb(204, 204, 204)" stroke-width="1px"></line><line x1="41.149001121520996" y1="171.15999958731913" x2="36.149001121520996" y2="171.15999958731913" style="visibility: inherit;" fill="rgb(0, 0, 0)" stroke="rgb(204, 204, 204)" stroke-width="1px"></line><line x1="41.149001121520996" y1="136.9279996698553" x2="36.149001121520996" y2="136.9279996698553" style="visibility: inherit;" fill="rgb(0, 0, 0)" stroke="rgb(204, 204, 204)" stroke-width="1px"></line><line x1="41.149001121520996" y1="102.6959997523915" x2="36.149001121520996" y2="102.6959997523915" style="visibility: inherit;" fill="rgb(0, 0, 0)" stroke="rgb(204, 204, 204)" stroke-width="1px"></line><line x1="41.149001121520996" y1="68.46399983492766" x2="36.149001121520996" y2="68.46399983492766" style="visibility: inherit;" fill="rgb(0, 0, 0)" stroke="rgb(204, 204, 204)" stroke-width="1px"></line><line x1="41.149001121520996" y1="34.231999917463874" x2="36.149001121520996" y2="34.231999917463874" style="visibility: inherit;" fill="rgb(0, 0, 0)" stroke="rgb(204, 204, 204)" stroke-width="1px"></line><line x1="41.149001121520996" y1="0" x2="36.149001121520996" y2="0" style="visibility: inherit;" fill="rgb(0, 0, 0)" stroke="rgb(204, 204, 204)" stroke-width="1px"></line></g><g transform="translate(31.149001121520996, 0)"><text style="text-anchor: end; visibility: hidden; font-family: Roboto, sans-serif; font-size: 12px; font-weight: 200;" x="0" y="376.55199909210205" dx="0em" dy="0.3em" fill="rgb(33, 33, 33)" stroke="none" stroke-width="1px">0.9</text><text style="text-anchor: end; visibility: inherit; font-family: Roboto, sans-serif; font-size: 12px; font-weight: 200;" x="0" y="342.31999917463827" dx="0em" dy="0.3em" fill="rgb(33, 33, 33)" stroke="none" stroke-width="1px">1</text><text style="text-anchor: end; visibility: inherit; font-family: Roboto, sans-serif; font-size: 12px; font-weight: 200;" x="0" y="308.0879992571744" dx="0em" dy="0.3em" fill="rgb(33, 33, 33)" stroke="none" stroke-width="1px">1.1</text><text style="text-anchor: end; visibility: inherit; font-family: Roboto, sans-serif; font-size: 12px; font-weight: 200;" x="0" y="273.8559993397106" dx="0em" dy="0.3em" fill="rgb(33, 33, 33)" stroke="none" stroke-width="1px">1.2</text><text style="text-anchor: end; visibility: inherit; font-family: Roboto, sans-serif; font-size: 12px; font-weight: 200;" x="0" y="239.62399942224675" dx="0em" dy="0.3em" fill="rgb(33, 33, 33)" stroke="none" stroke-width="1px">1.3</text><text style="text-anchor: end; visibility: inherit; font-family: Roboto, sans-serif; font-size: 12px; font-weight: 200;" x="0" y="205.391999504783" dx="0em" dy="0.3em" fill="rgb(33, 33, 33)" stroke="none" stroke-width="1px">1.4</text><text style="text-anchor: end; visibility: inherit; font-family: Roboto, sans-serif; font-size: 12px; font-weight: 200;" x="0" y="171.15999958731913" dx="0em" dy="0.3em" fill="rgb(33, 33, 33)" stroke="none" stroke-width="1px">1.5</text><text style="text-anchor: end; visibility: inherit; font-family: Roboto, sans-serif; font-size: 12px; font-weight: 200;" x="0" y="136.9279996698553" dx="0em" dy="0.3em" fill="rgb(33, 33, 33)" stroke="none" stroke-width="1px">1.6</text><text style="text-anchor: end; visibility: inherit; font-family: Roboto, sans-serif; font-size: 12px; font-weight: 200;" x="0" y="102.6959997523915" dx="0em" dy="0.3em" fill="rgb(33, 33, 33)" stroke="none" stroke-width="1px">1.7</text><text style="text-anchor: end; visibility: inherit; font-family: Roboto, sans-serif; font-size: 12px; font-weight: 200;" x="0" y="68.46399983492766" dx="0em" dy="0.3em" fill="rgb(33, 33, 33)" stroke="none" stroke-width="1px">1.8</text><text style="text-anchor: end; visibility: inherit; font-family: Roboto, sans-serif; font-size: 12px; font-weight: 200;" x="0" y="34.231999917463874" dx="0em" dy="0.3em" fill="rgb(33, 33, 33)" stroke="none" stroke-width="1px">1.9</text><text style="text-anchor: end; visibility: hidden; font-family: Roboto, sans-serif; font-size: 12px; font-weight: 200;" x="0" y="0" dx="0em" dy="0.3em" fill="rgb(33, 33, 33)" stroke="none" stroke-width="1px">2</text></g><line x1="41.149001121520996" y1="0" x2="41.149001121520996" y2="376.55199909210205" fill="rgb(0, 0, 0)" stroke="rgb(204, 204, 204)" stroke-width="1px"></line></g></g><g transform="translate(41, 0)" clip-path="url(#clip_0)"><clipPath id="clip_0"><rect width="1071" height="376"></rect></clipPath><g><g><g><line x1="0" y1="0" x2="0" y2="376.55199909210205" fill="rgb(0, 0, 0)" stroke="rgb(66, 66, 66)" stroke-width="1px" opacity="0.25"></line><line x1="89.28758323987324" y1="0" x2="89.28758323987324" y2="376.55199909210205" fill="rgb(0, 0, 0)" stroke="rgb(66, 66, 66)" stroke-width="1px" opacity="0.25"></line><line x1="178.57516647974649" y1="0" x2="178.57516647974649" y2="376.55199909210205" fill="rgb(0, 0, 0)" stroke="rgb(66, 66, 66)" stroke-width="1px" opacity="0.25"></line><line x1="267.8627497196197" y1="0" x2="267.8627497196197" y2="376.55199909210205" fill="rgb(0, 0, 0)" stroke="rgb(66, 66, 66)" stroke-width="1px" opacity="0.25"></line><line x1="357.15033295949297" y1="0" x2="357.15033295949297" y2="376.55199909210205" fill="rgb(0, 0, 0)" stroke="rgb(66, 66, 66)" stroke-width="1px" opacity="0.25"></line><line x1="446.4379161993662" y1="0" x2="446.4379161993662" y2="376.55199909210205" fill="rgb(0, 0, 0)" stroke="rgb(66, 66, 66)" stroke-width="1px" opacity="0.25"></line><line x1="535.7254994392395" y1="0" x2="535.7254994392395" y2="376.55199909210205" fill="rgb(0, 0, 0)" stroke="rgb(66, 66, 66)" stroke-width="1px" opacity="0.25"></line><line x1="625.0130826791127" y1="0" x2="625.0130826791127" y2="376.55199909210205" fill="rgb(0, 0, 0)" stroke="rgb(66, 66, 66)" stroke-width="1px" opacity="0.25"></line><line x1="714.3006659189859" y1="0" x2="714.3006659189859" y2="376.55199909210205" fill="rgb(0, 0, 0)" stroke="rgb(66, 66, 66)" stroke-width="1px" opacity="0.25"></line><line x1="803.5882491588592" y1="0" x2="803.5882491588592" y2="376.55199909210205" fill="rgb(0, 0, 0)" stroke="rgb(66, 66, 66)" stroke-width="1px" opacity="0.25"></line><line x1="892.8758323987324" y1="0" x2="892.8758323987324" y2="376.55199909210205" fill="rgb(0, 0, 0)" stroke="rgb(66, 66, 66)" stroke-width="1px" opacity="0.25"></line><line x1="982.1634156386057" y1="0" x2="982.1634156386057" y2="376.55199909210205" fill="rgb(0, 0, 0)" stroke="rgb(66, 66, 66)" stroke-width="1px" opacity="0.25"></line><line x1="1071.450998878479" y1="0" x2="1071.450998878479" y2="376.55199909210205" fill="rgb(0, 0, 0)" stroke="rgb(66, 66, 66)" stroke-width="1px" opacity="0.25"></line></g><g><line x1="0" y1="376.55199909210205" x2="1071.450998878479" y2="376.55199909210205" fill="rgb(0, 0, 0)" stroke="rgb(66, 66, 66)" stroke-width="1px" opacity="0.25"></line><line x1="0" y1="342.31999917463827" x2="1071.450998878479" y2="342.31999917463827" fill="rgb(0, 0, 0)" stroke="rgb(66, 66, 66)" stroke-width="1px" opacity="0.25"></line><line x1="0" y1="308.0879992571744" x2="1071.450998878479" y2="308.0879992571744" fill="rgb(0, 0, 0)" stroke="rgb(66, 66, 66)" stroke-width="1px" opacity="0.25"></line><line x1="0" y1="273.8559993397106" x2="1071.450998878479" y2="273.8559993397106" fill="rgb(0, 0, 0)" stroke="rgb(66, 66, 66)" stroke-width="1px" opacity="0.25"></line><line x1="0" y1="239.62399942224675" x2="1071.450998878479" y2="239.62399942224675" fill="rgb(0, 0, 0)" stroke="rgb(66, 66, 66)" stroke-width="1px" opacity="0.25"></line><line x1="0" y1="205.391999504783" x2="1071.450998878479" y2="205.391999504783" fill="rgb(0, 0, 0)" stroke="rgb(66, 66, 66)" stroke-width="1px" opacity="0.25"></line><line x1="0" y1="171.15999958731913" x2="1071.450998878479" y2="171.15999958731913" fill="rgb(0, 0, 0)" stroke="rgb(66, 66, 66)" stroke-width="1px" opacity="0.25"></line><line x1="0" y1="136.9279996698553" x2="1071.450998878479" y2="136.9279996698553" fill="rgb(0, 0, 0)" stroke="rgb(66, 66, 66)" stroke-width="1px" opacity="0.25"></line><line x1="0" y1="102.6959997523915" x2="1071.450998878479" y2="102.6959997523915" fill="rgb(0, 0, 0)" stroke="rgb(66, 66, 66)" stroke-width="1px" opacity="0.25"></line><line x1="0" y1="68.46399983492766" x2="1071.450998878479" y2="68.46399983492766" fill="rgb(0, 0, 0)" stroke="rgb(66, 66, 66)" stroke-width="1px" opacity="0.25"></line><line x1="0" y1="34.231999917463874" x2="1071.450998878479" y2="34.231999917463874" fill="rgb(0, 0, 0)" stroke="rgb(66, 66, 66)" stroke-width="1px" opacity="0.25"></line><line x1="0" y1="0" x2="1071.450998878479" y2="0" fill="rgb(0, 0, 0)" stroke="rgb(66, 66, 66)" stroke-width="1px" opacity="0.25"></line></g></g></g><g><g><line x1="0" y1="684.6399983492764" x2="1071.450998878479" y2="684.6399983492764" fill="rgb(0, 0, 0)" stroke="rgb(153, 153, 153)" stroke-width="1.5px"></line></g></g><g><g><line x1="89.28758323987324" y1="0" x2="89.28758323987324" y2="376.55199909210205" fill="rgb(0, 0, 0)" stroke="rgb(153, 153, 153)" stroke-width="1.5px"></line></g></g><g><g><g><g><g><path style="fill: none;" stroke="rgb(0, 153, 136)" stroke-width="2px" d="M107.14509988784789,-4.073207808273534L111.60947904984155,11.144335602105597L116.07385821183522,23.277384367555776L120.53823737382888,32.981210132843266L125.00261653582254,40.41912771633403L129.4669956978162,46.54509703648331L133.93137485980986,51.62010354937271L138.39575402180353,56.56585436856486L142.8601331837972,61.02867781179364L147.32451234579085,65.27462232112423L151.7888915077845,72.51417663867373L156.25327066977817,78.95650377137405L160.71764983177184,86.301009302399L165.1820289937655,95.42070494888343L169.64640815575916,97.54465088625346L174.11078731775282,104.96055591382635L178.57516647974649,110.42842406054615L183.03954564174015,112.32934288229558L187.5039248037338,118.30236543414672L191.96830396572747,126.41242654526228L196.43268312772113,131.17858973247604L200.8970622897148,137.25477977971596L205.36144145170846,140.0973200834083L209.82582061370212,147.59596054575798L214.29019977569578,153.4926747283999L218.75457893768944,154.88968208941287L223.2189580996831,159.81507444442042L227.68333726167677,166.70807548529265L232.14771642367043,163.00841648107365L236.6120955856641,157.38621999348584L241.07647474765776,165.057447770542L245.54085390965142,174.46335142032177L250.00523307164508,173.48582391244577L254.46961223363874,183.1539620320732L258.9339913956324,189.89309605696397L263.39837055762604,195.0396092353748L267.8627497196197,199.46059121507182L272.32712888161336,201.52300277249404L276.79150804360705,206.8177005258481L281.25588720560074,210.59452330245887L285.7202663675944,215.19973202520637L290.184645529588,217.9307823873551L294.6490246915817,221.27550192540662L299.1134038535754,222.10427995140694L303.577783015569,219.78468752460083L308.04216217756266,224.04868672417956L312.50654133955635,224.47757597984227L316.97092050155004,228.49919353983543L321.4352996635437,230.10459554291253L325.8996788255373,233.0211882262555L330.364057987531,233.97194904829774L334.8284371495247,235.76394394876473L339.2928163115183,236.0324864491553L343.757195473512,235.45533493166877L348.22157463550565,237.44806113971362L352.6859537974993,237.49554706796167L357.15033295949297,241.25925120898344L361.61471212148666,240.4537113985846L366.0790912834803,241.03448972077825L370.54347044547393,241.487979472325L375.0078496074676,243.96400055258886L379.4722287694613,244.27897018675458L383.93660793145494,246.94664576315748L388.4009870934486,247.73434492580898L392.86536625544227,250.27536104011713L397.32974541743596,250.10555239689984L401.7941245794296,248.81247342722043L406.2585037414232,251.90012179033957L410.7228829034169,253.20609950810675L415.1872620654106,256.6628695467811L419.65164122740424,255.87273536793774L424.1160203893979,254.6588924417609L428.58039955139157,256.84724529794954L433.04477871338526,259.7909663049111L437.5091578753789,261.2646564979892L441.9735370373725,262.76408785936206L446.4379161993662,264.1863793577259L450.9022953613599,256.55462054917524L455.36667452335354,260.4444085282327L459.8310536853472,262.31039627651205L464.29543284734086,264.92136432624176L468.7598120093345,263.71925535104856L473.2241911713282,265.54569778449695L477.6885703333219,266.3522364821105L482.1529494953155,268.7742980627049L486.61732865730914,270.15659486383265L491.08170781930284,267.4020590775706L495.5460869812965,265.24162422813123L500.01046614329016,266.3404176034644L504.4748453052838,265.9508371858807L508.9392244672775,270.00405459271883L513.4036036292712,271.74545305606483L517.8679827912648,272.9180529560605L522.3323619532584,275.0818275188494L526.7967411152521,274.5117677485458L531.2611202772458,276.56039526026876L535.7254994392395,276.8701411016421L540.1898786012331,270.1569858345565L544.6542577632267,271.4625479264909L549.1186369252204,272.95456843799946L553.5830160872141,276.1319118963236L558.0473952492079,277.5130572723587L562.5117744112015,279.1277502295746L566.9761535731951,279.9958362182278L571.4405327351888,279.27231340188337L575.9049118971824,279.9058766771234L580.369291059176,280.682796303298L584.8336702211697,281.31505183836794L589.2980493831634,283.4960008772646L593.7624285451571,284.40716836216865L598.2268077071508,284.71307063591814L602.6911868691444,284.7493124399762L607.155566031138,283.4741554106698L611.6199451931317,282.5390235691369L616.0843243551253,283.9878391279501L620.5487035171191,284.0903839773243L625.0130826791127,284.52726033138686L629.4774618411063,286.9331464650411L633.9418410031001,287.366572717066L638.4062201650937,288.2329985992653L642.8705993270873,288.8784929489301L647.334978489081,290.0679551489885L651.7993576510746,290.7538342475024L656.2637368130684,290.2843066245066L660.728115975062,290.66039423689773L665.1924951370556,289.8621810116655L669.6568742990494,290.9305677052112L674.121253461043,291.318249048274L678.5856326230366,289.6534782467174L683.0500117850303,291.70391580344483L687.514390947024,293.09311626052937L691.9787701090177,293.6325271070835L696.4431492710113,294.1150625687955L700.9075284330049,293.96363190444197L705.3719075949986,293.93142236661987L709.8362867569923,295.4441655069624L714.3006659189859,295.29079424666196L718.7650450809796,296.2021354826609L723.2294242429733,294.48347494728216L727.693803404967,295.4052709995811L732.1581825669606,297.13134216984975L736.6225617289542,296.6773070725631L741.0869408909479,297.0198257671945L745.5513200529415,298.16510621922583L750.0156992149352,299.18209883809914L754.480078376929,299.27504834743775L758.9444575389226,298.28163514846614L763.4088367009163,298.67071833022356L767.8732158629099,300.6551787025855L772.3375950249035,297.29048870697505L776.8019741868972,299.09974935018977L781.2663533488908,299.5153082020284L785.7307325108845,298.80677197155677L790.1951116728783,299.8777103607397L794.6594908348719,298.2024926152309L799.1238699968656,299.1567366694697L803.5882491588592,299.9212426352415L808.0526283208528,301.94422053344283L812.5170074828465,301.2125398431249L816.9813866448401,298.6798177003092L821.4457658068338,301.4498760279646L825.9101449688276,300.7556240772667L830.3745241308212,299.8085072037815L834.8389032928148,301.2903518360999L839.3032824548085,302.3211267097844L843.7676616168021,303.9397563006205L848.2320407787957,304.1759543014926L852.6964199407894,303.6468594134477L857.1607991027831,305.11013729001746L861.6251782647769,306.40506101568644L866.0895574267705,305.4798271486551L870.5539365887641,305.1925160819409L875.0183157507578,305.92294320240035L879.4826949127514,306.7181527971797L883.947074074745,307.80569681124257L888.4114532367388,306.2546061290461L892.8758323987324,306.9777255385253L897.3402115607261,305.05557140635455L901.8045907227198,304.6450774405809L906.2689698847134,304.1193950602035L910.7333490467071,306.78676907968025L915.1977282087007,307.7587382202071L919.6621073706943,308.3445150757632L924.1264865326881,307.22895983795877L928.5908656946817,307.1622751618406L933.0552448566754,307.85233085984163L937.519624018669,307.991614035164L941.9840031806627,307.75843438744073L946.4483823426564,308.3048145762781L950.91276150465,308.6616161735499L955.3771406666438,311.25348158815507L959.8415198286374,311.3796122844554L964.305898990631,311.09286914472926L968.7702781526247,311.37321768805606L973.2346573146183,311.1762629774996L977.699036476612,311.9776677246323L982.1634156386057,310.14943000062885" fill="none"></path></g><g><path style="fill: none;" stroke="rgb(238, 51, 119)" stroke-width="2px" d="M111.60947904984155,-1.36493128345527L116.07385821183522,5.57823176222137L120.53823737382888,20.538186255276518L125.00261653582254,29.973654890218732L129.4669956978162,40.398969324900825L133.93137485980986,41.564640354105805L138.39575402180353,46.616546378081416L142.8601331837972,43.90685628718031L147.32451234579085,47.535390661668174L151.7888915077845,53.73222171388778L156.25327066977817,67.19013086572947L160.71764983177184,77.5007567553252L165.1820289937655,86.49116208003132L169.64640815575916,91.72025325412866L174.11078731775282,98.0508323398993L178.57516647974649,104.8626118754254L183.03954564174015,113.09072989927515L187.5039248037338,115.6062331256862L191.96830396572747,122.88330679432677L196.43268312772113,127.8733693309834L200.8970622897148,133.16550970996423L205.36144145170846,136.46766389966868L209.82582061370212,142.3416708678489L214.29019977569578,143.2676459475754L218.75457893768944,145.59851418308247L223.2189580996831,149.5851262890355L227.68333726167677,154.62303351105922L232.14771642367043,159.70955476321393L236.6120955856641,164.60790258847015L241.07647474765776,171.0602440622656L245.54085390965142,177.26083948688947L250.00523307164508,185.92805592350928L254.46961223363874,187.20664917551883L258.9339913956324,185.82167104750792L263.39837055762604,186.70978300103997L267.8627497196197,194.9297153949576L272.32712888161336,204.08989368572819L276.79150804360705,205.80475695703618L281.25588720560074,208.66246490488294L285.7202663675944,215.5013808565114L290.184645529588,220.86392620171807L294.6490246915817,223.51667450966536L299.1134038535754,227.7619844873271L303.577783015569,230.06703376328014L308.04216217756266,231.74820455964098L312.50654133955635,233.15667582386635L316.97092050155004,231.98899105488888L321.4352996635437,234.83945200425984L325.8996788255373,234.9508656283579L330.364057987531,229.97126743436348L334.8284371495247,233.7388191324852L339.2928163115183,235.31977096369437L343.757195473512,240.95620279940874L348.22157463550565,245.77666475305054L352.6859537974993,249.922065510776L357.15033295949297,249.95707189768456L361.61471212148666,249.39527614017032L366.0790912834803,251.97400849689956L370.54347044547393,257.5538182175289L375.0078496074676,256.22907275547783L379.4722287694613,259.41025260260244L383.93660793145494,263.8690678236068L388.4009870934486,265.889703126306L392.86536625544227,263.4994641803507L397.32974541743596,263.29085837696135L401.7941245794296,263.4406410154805L406.2585037414232,265.8132946735935L410.7228829034169,266.03092068866016L415.1872620654106,264.2946898370522L419.65164122740424,265.44767233291145L424.1160203893979,269.0817476929312L428.58039955139157,269.591606307899L433.04477871338526,265.3869131694263L437.5091578753789,266.55073235588395L441.9735370373725,271.6655948562554L446.4379161993662,270.2765786590357L450.9022953613599,272.8483939462266L455.36667452335354,280.46406418910476L459.8310536853472,282.73272686131395L464.29543284734086,286.23105761149475L468.7598120093345,281.9151798029612L473.2241911713282,282.152877522035L477.6885703333219,287.4832841544294L482.1529494953155,289.2011708185571L486.61732865730914,284.6332136825834L491.08170781930284,282.11792656018446L495.5460869812965,287.62461405681665L500.01046614329016,286.6293206417001L504.4748453052838,280.99025236616956L508.9392244672775,282.43585053944605L513.4036036292712,291.1674944395567L517.8679827912648,298.2480190976318L522.3323619532584,296.7057178709771L526.7967411152521,297.9819791317816L531.2611202772458,299.8741596526383L535.7254994392395,299.3899073420735L540.1898786012331,295.4113334235806L544.6542577632267,301.2179229852242L549.1186369252204,296.4199981258457L553.5830160872141,298.83612700177343L558.0473952492079,296.5993651348635L562.5117744112015,301.8988303719036L566.9761535731951,306.67841713737596L571.4405327351888,304.17823957932234L575.9049118971824,309.8292622577474L580.369291059176,309.71103188675136L584.8336702211697,309.3519095179675L589.2980493831634,311.8742426162801L593.7624285451571,308.6998633537274L598.2268077071508,306.75908015281976L602.6911868691444,307.80421789677797L607.155566031138,310.6971412511907L611.6199451931317,315.15668024948917L616.0843243551253,310.7569972476809L620.5487035171191,308.1400234488907L625.0130826791127,309.16960132078856L629.4774618411063,307.49894882611716L633.9418410031001,313.2759118547473L638.4062201650937,309.6051941927646L642.8705993270873,313.3367779588616L647.334978489081,317.0542736708875L651.7993576510746,315.2035743077112L656.2637368130684,317.91140283047116L660.728115975062,318.66560590096844L665.1924951370556,322.14054365242237L669.6568742990494,319.25412982373444L674.121253461043,319.85979692081867L678.5856326230366,316.9995828679939L683.0500117850303,314.26443660123164L687.514390947024,321.7442832102046L691.9787701090177,320.561941616506L696.4431492710113,327.9140045783194L700.9075284330049,328.6410720723896L705.3719075949986,329.18063772574817L709.8362867569923,325.3590795546684L714.3006659189859,326.13072310151017L718.7650450809796,333.62048914660255L723.2294242429733,328.549638568753L727.693803404967,330.88932421965586L732.1581825669606,329.96043552732107L736.6225617289542,334.35399331408223L741.0869408909479,329.7058186851595L745.5513200529415,332.66744042134565L750.0156992149352,333.98671403178787L754.480078376929,335.74783707175317L758.9444575389226,337.7359716783985L763.4088367009163,335.36405291332215L767.8732158629099,337.5187759780777L772.3375950249035,332.05628287933075L776.8019741868972,336.42029448990905L781.2663533488908,332.3493361235687L785.7307325108845,340.00972518691884L790.1951116728783,334.99260561313434L794.6594908348719,340.57387779727594L799.1238699968656,344.8385867938002L803.5882491588592,345.4628077785783L808.0526283208528,349.0424361354143L812.5170074828465,346.5001406338923L816.9813866448401,346.12359053777453L821.4457658068338,345.0466153981561L825.9101449688276,347.5604498685336L830.3745241308212,345.4842653756868L834.8389032928148,352.6125934400006L839.3032824548085,349.53842160277065L843.7676616168021,349.95090393238405L848.2320407787957,351.3672163196589L852.6964199407894,352.27824798405385L857.1607991027831,354.24807716144926L861.6251782647769,360.04055373735173L866.0895574267705,355.3420567085217L870.5539365887641,354.37697581120113L875.0183157507578,356.4897108413767L879.4826949127514,353.1235368720278L883.947074074745,354.03150918776635L888.4114532367388,355.5024810019478L892.8758323987324,349.44535969472855L897.3402115607261,351.7557276049873L901.8045907227198,354.0721930636366L906.2689698847134,359.7045086078942L910.7333490467071,360.9925102460861L915.1977282087007,361.1499797218484L919.6621073706943,360.8391590935247L924.1264865326881,365.0108255290359L928.5908656946817,368.8347877360956L933.0552448566754,368.0877082672039L937.519624018669,364.7205249029804L941.9840031806627,367.4966812978238L946.4483823426564,371.97008528535457L950.91276150465,372.3133313425745L955.3771406666438,372.09952256731975L959.8415198286374,372.8172222263509L964.305898990631,371.5814912624664L968.7702781526247,362.8427589927092L973.2346573146183,363.9499115241892L977.699036476612,363.98433582467095L982.1634156386057,367.2361214987777" fill="none"></path></g></g></g></g><g opacity="0.2"><g><g><g><path style="fill: none;" stroke="rgb(0, 153, 136)" stroke-width="2px" d="M98.21634156386057,-36.901935030655295L102.68072072585423,4.316151341522125L107.14509988784789,20.236509474599817L111.60947904984155,31.01236027869647L116.07385821183522,40.06175870772913L120.53823737382888,46.85783623841659L125.00261653582254,51.2636829570723L129.4669956978162,55.57971187542271L133.93137485980986,59.15589675945465L138.39575402180353,63.939623001430206L142.8601331837972,67.69862648853699L147.32451234579085,71.62967533960881L151.7888915077845,83.35932507443498L156.25327066977817,88.61242175671559L160.71764983177184,97.31258768460657L165.1820289937655,109.09638926904886L169.64640815575916,100.73003052266505L174.11078731775282,116.08328371669568L178.57516647974649,118.62972649581906L183.03954564174015,115.18061686401369L187.5039248037338,127.26170271707207L191.96830396572747,138.57735809292632L196.43268312772113,138.32777805355005L200.8970622897148,146.3690216636175L205.36144145170846,144.36111841681077L209.82582061370212,158.843902052317L214.29019977569578,162.33773694951748L218.75457893768944,156.985191844091L223.2189580996831,167.2031602547421L227.68333726167677,177.0475747608068L232.14771642367043,157.45892871085346L236.6120955856641,148.95292593328168L241.07647474765776,176.56428888665164L245.54085390965142,188.5722064907562L250.00523307164508,172.01953267583815L254.46961223363874,197.6561690619326L258.9339913956324,200.00179703174098L263.39837055762604,202.75937897432624L267.8627497196197,206.09206416984307L272.32712888161336,204.61662010449183L276.79150804360705,214.75974714950917L281.25588720560074,216.2597574646486L285.7202663675944,222.10754510733318L290.184645529588,222.02735792986846L294.6490246915817,226.29258123196257L299.1134038535754,223.34744699033L303.577783015569,216.30529888452173L308.04216217756266,230.44468552340413L312.50654133955635,225.1209098633276L316.97092050155004,234.53161987977637L321.4352996635437,232.5126985475165L325.8996788255373,237.3960772512574L330.364057987531,235.39809028135852L334.8284371495247,238.45193629946237L339.2928163115183,236.43530019974094L343.757195473512,234.58960765543918L348.22157463550565,240.43715045178033L352.6859537974993,237.56677596033376L357.15033295949297,246.9048074205155L361.61471212148666,239.24540168298628L366.0790912834803,241.90565720406852L370.54347044547393,242.16821409964518L375.0078496074676,247.67803217298467L379.4722287694613,244.75142463800304L383.93660793145494,250.94815912776187L388.4009870934486,248.9158936697865L392.86536625544227,254.08688521157907L397.32974541743596,249.85083943207388L401.7941245794296,246.87285497270133L406.2585037414232,256.53159433501816L410.7228829034169,255.16506608475765L415.1872620654106,261.8480246047926L419.65164122740424,254.68753409967246L424.1160203893979,252.8381280524958L428.58039955139157,260.1297745822326L433.04477871338526,264.2065478153536L437.5091578753789,263.4751917876064L441.9735370373725,265.01323490142124L446.4379161993662,266.31981660527174L450.9022953613599,245.10698233634923L455.36667452335354,266.27909049681887L459.8310536853472,265.10937789893114L464.29543284734086,268.83781640083635L468.7598120093345,261.91609188825885L473.2241911713282,268.2853614346696L477.6885703333219,267.56204452853086L482.1529494953155,272.4073904335964L486.61732865730914,272.23004006552424L491.08170781930284,263.2702553981774L495.5460869812965,262.00097195397217L500.01046614329016,267.9886076664642L504.4748453052838,265.36646655950517L508.9392244672775,276.0838807029761L513.4036036292712,274.35755075108375L517.8679827912648,274.676952806054L522.3323619532584,278.3274893630329L526.7967411152521,273.65667809309036L531.2611202772458,279.6333365278531L535.7254994392395,277.3347598637022L540.1898786012331,260.0872529339281L544.6542577632267,273.4208910643925L549.1186369252204,275.19259920526235L553.5830160872141,280.8979270838098L558.0473952492079,279.5847753364113L562.5117744112015,281.5497896653985L566.9761535731951,281.2979652012077L571.4405327351888,278.18702917736687L575.9049118971824,280.85622158998336L580.369291059176,281.84817574256L584.8336702211697,282.2634351409728L589.2980493831634,286.76742443560954L593.7624285451571,285.7739195895247L598.2268077071508,285.1719240465426L602.6911868691444,284.80367514606326L607.155566031138,281.5614198667102L611.6199451931317,281.1363258068373L616.0843243551253,286.16106246617L620.5487035171191,284.24420125138556L625.0130826791127,285.18257486248064L629.4774618411063,290.54197566552244L633.9418410031001,288.01671209510346L638.4062201650937,289.53263742256416L642.8705993270873,289.8467344734273L647.334978489081,291.85214844907614L651.7993576510746,291.7826528952734L656.2637368130684,289.58001519001283L660.728115975062,291.2245256554844L665.1924951370556,288.66486117381726L669.6568742990494,292.5331477455299L674.121253461043,291.8997710628682L678.5856326230366,287.15632204438253L683.0500117850303,294.77957213853585L687.514390947024,295.17691694615627L691.9787701090177,294.44164337691467L696.4431492710113,294.8388657613634L700.9075284330049,293.73648590791174L705.3719075949986,293.8831080598867L709.8362867569923,297.7132802174762L714.3006659189859,295.0607373562112L718.7650450809796,297.56914733665917L723.2294242429733,291.90548414421426L727.693803404967,296.78796507802934L732.1581825669606,299.72044892525275L736.6225617289542,295.9962544266332L741.0869408909479,297.5336038091417L745.5513200529415,299.8830268972728L750.0156992149352,300.707587766409L754.480078376929,299.4144726114458L758.9444575389226,296.7915153500087L763.4088367009163,299.2543431028597L767.8732158629099,303.6318692611284L772.3375950249035,292.2434537135593L776.8019741868972,301.81364031501175L781.2663533488908,300.1386464797864L785.7307325108845,297.74396762584945L790.1951116728783,301.4841179445142L794.6594908348719,295.68966599696773L799.1238699968656,300.58810275082794L803.5882491588592,301.06800158389944L808.0526283208528,304.9786873807449L812.5170074828465,300.11501880764797L816.9813866448401,294.8807344860855L821.4457658068338,305.60496351944784L825.9101449688276,299.7142461512198L830.3745241308212,298.38783189355365L834.8389032928148,303.5131187845775L839.3032824548085,303.8672890203111L843.7676616168021,306.36770068687457L848.2320407787957,304.5302513028008L852.6964199407894,302.8532170813804L857.1607991027831,307.3050541048721L861.6251782647769,308.3474466041899L866.0895574267705,304.091976348108L870.5539365887641,304.76154948186957L875.0183157507578,307.01858388308966L879.4826949127514,307.9109671893487L883.947074074745,309.4370128323368L888.4114532367388,303.92797010575134L892.8758323987324,308.06240465274396L897.3402115607261,302.1723402080983L901.8045907227198,304.0293364919205L906.2689698847134,303.3308714896373L910.7333490467071,310.7878301088955L915.1977282087007,309.21669193099723L919.6621073706943,309.22318035909746L924.1264865326881,305.555626981252L928.5908656946817,307.06224814766335L933.0552448566754,308.88741440684305L937.519624018669,308.2005387981476L941.9840031806627,307.4086649158558L946.4483823426564,309.124384859534L950.91276150465,309.1968185694576L955.3771406666438,315.1412797100628L959.8415198286374,311.5688083289058L964.305898990631,310.6627544351401L968.7702781526247,311.7937405030461L973.2346573146183,310.88083091166504L977.699036476612,313.17977484533105L982.1634156386057,307.4070734146237" fill="none"></path></g><g><path style="fill: none;" stroke="rgb(238, 51, 119)" stroke-width="2px" d="M102.68072072585423,-8.650829389695108L107.14509988784789,10.044127506834403L111.60947904984155,17.96290713747607L116.07385821183522,15.18312579308889L120.53823737382888,41.931160539617096L125.00261653582254,43.73065874046329L129.4669956978162,55.7742831029809L133.93137485980986,43.29552598051087L138.39575402180353,54.14858499822752L142.8601331837972,39.85706716464356L147.32451234579085,52.96634442910226L151.7888915077845,63.01532805508087L156.25327066977817,87.36117532647442L160.71764983177184,92.95942373750658L165.1820289937655,99.97296562886054L169.64640815575916,99.56256234959186L174.11078731775282,107.54573656854875L178.57516647974649,115.07965855508353L183.03954564174015,125.4324556855023L187.5039248037338,119.37940519159757L191.96830396572747,133.7987736241622L196.43268312772113,135.3584040239205L200.8970622897148,141.10368266416668L205.36144145170846,141.42088110204628L209.82582061370212,151.15266629014525L214.29019977569578,144.65660714557526L218.75457893768944,149.09481438928418L223.2189580996831,155.5650422446251L227.68333726167677,162.17989267346982L232.14771642367043,167.33933562939853L236.6120955856641,171.95542374159027L241.07647474765776,180.73875581079074L245.54085390965142,186.56173235734371L250.00523307164508,198.92888035494556L254.46961223363874,189.12453903375126L258.9339913956324,183.74420386834845L263.39837055762604,188.04195092639137L267.8627497196197,207.25961395836407L272.32712888161336,217.83016110351667L276.79150804360705,208.37705186193512L281.25588720560074,212.9490268245903L285.7202663675944,225.759754780992L290.184645529588,228.9077442181346L294.6490246915817,227.4957969711727L299.1134038535754,234.12994945342246L303.577783015569,233.5246076770805L308.04216217756266,234.26996075412555L312.50654133955635,235.26938272017594L316.97092050155004,230.23746390143674L321.4352996635437,239.11514342829548L325.8996788255373,235.11798606450458L330.364057987531,222.50187014338496L334.8284371495247,239.39014667966183L339.2928163115183,237.6911987105068L343.757195473512,249.41085055297728L348.22157463550565,253.0073576835117L352.6859537974993,256.1401666473633L357.15033295949297,250.00958147804738L361.61471212148666,248.55258250389917L366.0790912834803,255.84210703199307L370.54347044547393,265.9235327984727L375.0078496074676,254.24195456240147L379.4722287694613,264.18202237328927L383.93660793145494,270.55729065511343L388.4009870934486,268.92065608035466L392.86536625544227,259.9141057614177L397.32974541743596,262.97794967187724L401.7941245794296,263.66531497325946L406.2585037414232,269.3722751607629L410.7228829034169,266.3573597112603L415.1872620654106,261.69034355964055L419.65164122740424,267.17714607670007L424.1160203893979,274.53286073296084L428.58039955139157,270.3563942303506L433.04477871338526,259.07987346171706L437.5091578753789,268.29646113557055L441.9735370373725,279.3378886068125L446.4379161993662,268.19305436320633L450.9022953613599,276.70611687701296L455.36667452335354,291.8875695534219L459.8310536853472,286.13572086962773L464.29543284734086,291.47855373676583L468.7598120093345,275.4413630901606L473.2241911713282,282.5094241006458L477.6885703333219,295.47889410302093L482.1529494953155,291.7780008147487L486.61732865730914,277.78127797862294L491.08170781930284,278.34499587658627L495.5460869812965,295.884645301765L500.01046614329016,285.1363805190251L504.4748453052838,272.5316499528738L508.9392244672775,284.6042477993609L513.4036036292712,304.2649602897228L517.8679827912648,308.86880608474434L522.3323619532584,294.3922660309949L526.7967411152521,299.8963710229883L531.2611202772458,302.7124304339232L535.7254994392395,298.66352887622634L540.1898786012331,289.4434725458413L544.6542577632267,309.92780732768966L549.1186369252204,289.2231108367779L553.5830160872141,302.4603203156651L558.0473952492079,293.24422233449843L562.5117744112015,309.84802822746394L566.9761535731951,313.8477972855844L571.4405327351888,300.4279732422419L575.9049118971824,318.30579627538515L580.369291059176,309.53368633025735L584.8336702211697,308.8132259647917L589.2980493831634,315.6577422637492L593.7624285451571,303.9382944598982L598.2268077071508,303.8479053514583L602.6911868691444,309.3719245127153L607.155566031138,315.03652628280986L611.6199451931317,321.84598874693677L616.0843243551253,304.1574727449685L620.5487035171191,304.2145627507055L625.0130826791127,310.7139681286354L629.4774618411063,304.9929700841101L633.9418410031001,321.9413563976925L638.4062201650937,304.0991176997906L642.8705993270873,318.9341536080071L647.334978489081,322.6305172389264L651.7993576510746,312.4275252629468L656.2637368130684,321.9731456146111L660.728115975062,319.79691050671426L665.1924951370556,327.3529502796032L669.6568742990494,314.92450908070265L674.121253461043,320.7682975664449L678.5856326230366,312.7092617887568L683.0500117850303,310.1617172010881L687.514390947024,332.9640531236641L691.9787701090177,318.78842922595794L696.4431492710113,338.9420990210395L700.9075284330049,329.731673313495L705.3719075949986,329.989986205786L709.8362867569923,319.6267422980486L714.3006659189859,327.28818842177293L718.7650450809796,344.85513821424115L723.2294242429733,320.94336270197863L727.693803404967,334.39885269601035L732.1581825669606,328.5671024888187L736.6225617289542,340.944329994224L741.0869408909479,322.7335567417755L745.5513200529415,337.10987302562495L750.0156992149352,335.9656244474512L754.480078376929,338.38952163170103L758.9444575389226,340.7181735883667L763.4088367009163,331.80617476570757L767.8732158629099,340.7508605752111L772.3375950249035,323.8625432312104L776.8019741868972,342.9663119057765L781.2663533488908,326.2428985740582L785.7307325108845,351.50030878194406L790.1951116728783,327.46692625245765L794.6594908348719,348.94578607348836L799.1238699968656,351.2356502885865L803.5882491588592,346.39913925574547L808.0526283208528,354.41187867066833L812.5170074828465,342.68669738160935L816.9813866448401,345.5587653935978L821.4457658068338,343.43115268872856L825.9101449688276,351.33120157409985L830.3745241308212,342.3699886364165L834.8389032928148,363.30508553647127L839.3032824548085,344.92716384692574L843.7676616168021,350.5696274268043L848.2320407787957,353.49168490057104L852.6964199407894,353.6447954806462L857.1607991027831,357.20282092754235L861.6251782647769,368.7292686012053L866.0895574267705,348.2943111652767L870.5539365887641,352.92935446522034L875.0183157507578,359.65881338664L879.4826949127514,348.0742759180045L883.947074074745,355.3934676613742L888.4114532367388,357.70893872321994L892.8758323987324,340.3596777338997L897.3402115607261,355.22127947037546L901.8045907227198,357.54689125161053L906.2689698847134,368.1529819242806L910.7333490467071,362.924512703374L915.1977282087007,361.38618393549183L919.6621073706943,360.3729281510391L924.1264865326881,371.2683251823027L928.5908656946817,374.5707310466853L933.0552448566754,366.96708906386624L937.519624018669,359.66974985664535L941.9840031806627,371.6609158900887L946.4483823426564,378.6801912666507L950.91276150465,372.8282004284044L955.3771406666438,371.77880940443765L959.8415198286374,373.8937717148977L964.305898990631,369.72789481663966L968.7702781526247,349.73466058807344L973.2346573146183,365.6106403214092L977.699036476612,364.03597227539353L982.1634156386057,372.11380000993796" fill="none"></path></g></g></g></g></g></g><g transform="translate(41, 376)" clip-path="url(#clip_1)"><clipPath id="clip_1"><rect width="1071" height="23"></rect></clipPath><g><g><line x1="0" y1="0" x2="0" y2="5" style="visibility: inherit;" fill="rgb(0, 0, 0)" stroke="rgb(204, 204, 204)" stroke-width="1px"></line><line x1="89.28758323987324" y1="0" x2="89.28758323987324" y2="5" style="visibility: inherit;" fill="rgb(0, 0, 0)" stroke="rgb(204, 204, 204)" stroke-width="1px"></line><line x1="178.57516647974649" y1="0" x2="178.57516647974649" y2="5" style="visibility: inherit;" fill="rgb(0, 0, 0)" stroke="rgb(204, 204, 204)" stroke-width="1px"></line><line x1="267.8627497196197" y1="0" x2="267.8627497196197" y2="5" style="visibility: inherit;" fill="rgb(0, 0, 0)" stroke="rgb(204, 204, 204)" stroke-width="1px"></line><line x1="357.15033295949297" y1="0" x2="357.15033295949297" y2="5" style="visibility: inherit;" fill="rgb(0, 0, 0)" stroke="rgb(204, 204, 204)" stroke-width="1px"></line><line x1="446.4379161993662" y1="0" x2="446.4379161993662" y2="5" style="visibility: inherit;" fill="rgb(0, 0, 0)" stroke="rgb(204, 204, 204)" stroke-width="1px"></line><line x1="535.7254994392395" y1="0" x2="535.7254994392395" y2="5" style="visibility: inherit;" fill="rgb(0, 0, 0)" stroke="rgb(204, 204, 204)" stroke-width="1px"></line><line x1="625.0130826791127" y1="0" x2="625.0130826791127" y2="5" style="visibility: inherit;" fill="rgb(0, 0, 0)" stroke="rgb(204, 204, 204)" stroke-width="1px"></line><line x1="714.3006659189859" y1="0" x2="714.3006659189859" y2="5" style="visibility: inherit;" fill="rgb(0, 0, 0)" stroke="rgb(204, 204, 204)" stroke-width="1px"></line><line x1="803.5882491588592" y1="0" x2="803.5882491588592" y2="5" style="visibility: inherit;" fill="rgb(0, 0, 0)" stroke="rgb(204, 204, 204)" stroke-width="1px"></line><line x1="892.8758323987324" y1="0" x2="892.8758323987324" y2="5" style="visibility: inherit;" fill="rgb(0, 0, 0)" stroke="rgb(204, 204, 204)" stroke-width="1px"></line><line x1="982.1634156386057" y1="0" x2="982.1634156386057" y2="5" style="visibility: inherit;" fill="rgb(0, 0, 0)" stroke="rgb(204, 204, 204)" stroke-width="1px"></line><line x1="1071.450998878479" y1="0" x2="1071.450998878479" y2="5" style="visibility: inherit;" fill="rgb(0, 0, 0)" stroke="rgb(204, 204, 204)" stroke-width="1px"></line></g><g transform="translate(0, 8)"><text style="text-anchor: middle; visibility: hidden; font-family: Roboto, sans-serif; font-size: 12px; font-weight: 200;" x="0" y="0" dx="0em" dy="0.95em" fill="rgb(33, 33, 33)" stroke="none" stroke-width="1px">-20</text><text style="text-anchor: middle; visibility: inherit; font-family: Roboto, sans-serif; font-size: 12px; font-weight: 200;" x="89.28758323987324" y="0" dx="0em" dy="0.95em" fill="rgb(33, 33, 33)" stroke="none" stroke-width="1px">0</text><text style="text-anchor: middle; visibility: inherit; font-family: Roboto, sans-serif; font-size: 12px; font-weight: 200;" x="178.57516647974649" y="0" dx="0em" dy="0.95em" fill="rgb(33, 33, 33)" stroke="none" stroke-width="1px">20</text><text style="text-anchor: middle; visibility: inherit; font-family: Roboto, sans-serif; font-size: 12px; font-weight: 200;" x="267.8627497196197" y="0" dx="0em" dy="0.95em" fill="rgb(33, 33, 33)" stroke="none" stroke-width="1px">40</text><text style="text-anchor: middle; visibility: inherit; font-family: Roboto, sans-serif; font-size: 12px; font-weight: 200;" x="357.15033295949297" y="0" dx="0em" dy="0.95em" fill="rgb(33, 33, 33)" stroke="none" stroke-width="1px">60</text><text style="text-anchor: middle; visibility: inherit; font-family: Roboto, sans-serif; font-size: 12px; font-weight: 200;" x="446.4379161993662" y="0" dx="0em" dy="0.95em" fill="rgb(33, 33, 33)" stroke="none" stroke-width="1px">80</text><text style="text-anchor: middle; visibility: inherit; font-family: Roboto, sans-serif; font-size: 12px; font-weight: 200;" x="535.7254994392395" y="0" dx="0em" dy="0.95em" fill="rgb(33, 33, 33)" stroke="none" stroke-width="1px">100</text><text style="text-anchor: middle; visibility: inherit; font-family: Roboto, sans-serif; font-size: 12px; font-weight: 200;" x="625.0130826791127" y="0" dx="0em" dy="0.95em" fill="rgb(33, 33, 33)" stroke="none" stroke-width="1px">120</text><text style="text-anchor: middle; visibility: inherit; font-family: Roboto, sans-serif; font-size: 12px; font-weight: 200;" x="714.3006659189859" y="0" dx="0em" dy="0.95em" fill="rgb(33, 33, 33)" stroke="none" stroke-width="1px">140</text><text style="text-anchor: middle; visibility: inherit; font-family: Roboto, sans-serif; font-size: 12px; font-weight: 200;" x="803.5882491588592" y="0" dx="0em" dy="0.95em" fill="rgb(33, 33, 33)" stroke="none" stroke-width="1px">160</text><text style="text-anchor: middle; visibility: inherit; font-family: Roboto, sans-serif; font-size: 12px; font-weight: 200;" x="892.8758323987324" y="0" dx="0em" dy="0.95em" fill="rgb(33, 33, 33)" stroke="none" stroke-width="1px">180</text><text style="text-anchor: middle; visibility: inherit; font-family: Roboto, sans-serif; font-size: 12px; font-weight: 200;" x="982.1634156386057" y="0" dx="0em" dy="0.95em" fill="rgb(33, 33, 33)" stroke="none" stroke-width="1px">200</text><text style="text-anchor: middle; visibility: hidden; font-family: Roboto, sans-serif; font-size: 12px; font-weight: 200;" x="1071.450998878479" y="0" dx="0em" dy="0.95em" fill="rgb(33, 33, 33)" stroke="none" stroke-width="1px">220</text></g><line x1="0" y1="0" x2="1071.450998878479" y2="0" fill="rgb(0, 0, 0)" stroke="rgb(204, 204, 204)" stroke-width="1px"></line></g></g></g></g></svg>