<svg viewBox="0 0 1112.5999755859375 400" xmlns="http://www.w3.org/2000/svg"><g><g><g><g><g><line x1="41.149001121520996" y1="376.55199909210205" x2="36.149001121520996" y2="376.55199909210205" style="visibility: inherit;" fill="rgb(0, 0, 0)" stroke="rgb(204, 204, 204)" stroke-width="1px"></line><line x1="41.149001121520996" y1="345.1726658344269" x2="36.149001121520996" y2="345.1726658344269" style="visibility: inherit;" fill="rgb(0, 0, 0)" stroke="rgb(204, 204, 204)" stroke-width="1px"></line><line x1="41.149001121520996" y1="313.7933325767517" x2="36.149001121520996" y2="313.7933325767517" style="visibility: inherit;" fill="rgb(0, 0, 0)" stroke="rgb(204, 204, 204)" stroke-width="1px"></line><line x1="41.149001121520996" y1="282.41399931907654" x2="36.149001121520996" y2="282.41399931907654" style="visibility: inherit;" fill="rgb(0, 0, 0)" stroke="rgb(204, 204, 204)" stroke-width="1px"></line><line x1="41.149001121520996" y1="251.0346660614014" x2="36.149001121520996" y2="251.0346660614014" style="visibility: inherit;" fill="rgb(0, 0, 0)" stroke="rgb(204, 204, 204)" stroke-width="1px"></line><line x1="41.149001121520996" y1="219.65533280372617" x2="36.149001121520996" y2="219.65533280372617" style="visibility: inherit;" fill="rgb(0, 0, 0)" stroke="rgb(204, 204, 204)" stroke-width="1px"></line><line x1="41.149001121520996" y1="188.27599954605105" x2="36.149001121520996" y2="188.27599954605105" style="visibility: inherit;" fill="rgb(0, 0, 0)" stroke="rgb(204, 204, 204)" stroke-width="1px"></line><line x1="41.149001121520996" y1="156.89666628837585" x2="36.149001121520996" y2="156.89666628837585" style="visibility: inherit;" fill="rgb(0, 0, 0)" stroke="rgb(204, 204, 204)" stroke-width="1px"></line><line x1="41.149001121520996" y1="125.51733303070066" x2="36.149001121520996" y2="125.51733303070066" style="visibility: inherit;" fill="rgb(0, 0, 0)" stroke="rgb(204, 204, 204)" stroke-width="1px"></line><line x1="41.149001121520996" y1="94.13799977302551" x2="36.149001121520996" y2="94.13799977302551" style="visibility: inherit;" fill="rgb(0, 0, 0)" stroke="rgb(204, 204, 204)" stroke-width="1px"></line><line x1="41.149001121520996" y1="62.75866651535033" x2="36.149001121520996" y2="62.75866651535033" style="visibility: inherit;" fill="rgb(0, 0, 0)" stroke="rgb(204, 204, 204)" stroke-width="1px"></line><line x1="41.149001121520996" y1="31.379333257675185" x2="36.149001121520996" y2="31.379333257675185" style="visibility: inherit;" fill="rgb(0, 0, 0)" stroke="rgb(204, 204, 204)" stroke-width="1px"></line><line x1="41.149001121520996" y1="0" x2="36.149001121520996" y2="0" style="visibility: inherit;" fill="rgb(0, 0, 0)" stroke="rgb(204, 204, 204)" stroke-width="1px"></line></g><g transform="translate(31.149001121520996, 0)"><text style="text-anchor: end; visibility: hidden; font-family: Roboto, sans-serif; font-size: 12px; font-weight: 200;" x="0" y="376.55199909210205" dx="0em" dy="0.3em" fill="rgb(33, 33, 33)" stroke="none" stroke-width="1px">0.8</text><text style="text-anchor: end; visibility: inherit; font-family: Roboto, sans-serif; font-size: 12px; font-weight: 200;" x="0" y="345.1726658344269" dx="0em" dy="0.3em" fill="rgb(33, 33, 33)" stroke="none" stroke-width="1px">0.9</text><text style="text-anchor: end; visibility: inherit; font-family: Roboto, sans-serif; font-size: 12px; font-weight: 200;" x="0" y="313.7933325767517" dx="0em" dy="0.3em" fill="rgb(33, 33, 33)" stroke="none" stroke-width="1px">1</text><text style="text-anchor: end; visibility: inherit; font-family: Roboto, sans-serif; font-size: 12px; font-weight: 200;" x="0" y="282.41399931907654" dx="0em" dy="0.3em" fill="rgb(33, 33, 33)" stroke="none" stroke-width="1px">1.1</text><text style="text-anchor: end; visibility: inherit; font-family: Roboto, sans-serif; font-size: 12px; font-weight: 200;" x="0" y="251.0346660614014" dx="0em" dy="0.3em" fill="rgb(33, 33, 33)" stroke="none" stroke-width="1px">1.2</text><text style="text-anchor: end; visibility: inherit; font-family: Roboto, sans-serif; font-size: 12px; font-weight: 200;" x="0" y="219.65533280372617" dx="0em" dy="0.3em" fill="rgb(33, 33, 33)" stroke="none" stroke-width="1px">1.3</text><text style="text-anchor: end; visibility: inherit; font-family: Roboto, sans-serif; font-size: 12px; font-weight: 200;" x="0" y="188.27599954605105" dx="0em" dy="0.3em" fill="rgb(33, 33, 33)" stroke="none" stroke-width="1px">1.4</text><text style="text-anchor: end; visibility: inherit; font-family: Roboto, sans-serif; font-size: 12px; font-weight: 200;" x="0" y="156.89666628837585" dx="0em" dy="0.3em" fill="rgb(33, 33, 33)" stroke="none" stroke-width="1px">1.5</text><text style="text-anchor: end; visibility: inherit; font-family: Roboto, sans-serif; font-size: 12px; font-weight: 200;" x="0" y="125.51733303070066" dx="0em" dy="0.3em" fill="rgb(33, 33, 33)" stroke="none" stroke-width="1px">1.6</text><text style="text-anchor: end; visibility: inherit; font-family: Roboto, sans-serif; font-size: 12px; font-weight: 200;" x="0" y="94.13799977302551" dx="0em" dy="0.3em" fill="rgb(33, 33, 33)" stroke="none" stroke-width="1px">1.7</text><text style="text-anchor: end; visibility: inherit; font-family: Roboto, sans-serif; font-size: 12px; font-weight: 200;" x="0" y="62.75866651535033" dx="0em" dy="0.3em" fill="rgb(33, 33, 33)" stroke="none" stroke-width="1px">1.8</text><text style="text-anchor: end; visibility: inherit; font-family: Roboto, sans-serif; font-size: 12px; font-weight: 200;" x="0" y="31.379333257675185" dx="0em" dy="0.3em" fill="rgb(33, 33, 33)" stroke="none" stroke-width="1px">1.9</text><text style="text-anchor: end; visibility: hidden; font-family: Roboto, sans-serif; font-size: 12px; font-weight: 200;" x="0" y="0" dx="0em" dy="0.3em" fill="rgb(33, 33, 33)" stroke="none" stroke-width="1px">2</text></g><line x1="41.149001121520996" y1="0" x2="41.149001121520996" y2="376.55199909210205" fill="rgb(0, 0, 0)" stroke="rgb(204, 204, 204)" stroke-width="1px"></line></g></g><g transform="translate(41, 0)" clip-path="url(#clip_0)"><clipPath id="clip_0"><rect width="1071" height="376"></rect></clipPath><g><g><g><line x1="0" y1="0" x2="0" y2="376.55199909210205" fill="rgb(0, 0, 0)" stroke="rgb(66, 66, 66)" stroke-width="1px" opacity="0.25"></line><line x1="107.14509988784789" y1="0" x2="107.14509988784789" y2="376.55199909210205" fill="rgb(0, 0, 0)" stroke="rgb(66, 66, 66)" stroke-width="1px" opacity="0.25"></line><line x1="214.29019977569578" y1="0" x2="214.29019977569578" y2="376.55199909210205" fill="rgb(0, 0, 0)" stroke="rgb(66, 66, 66)" stroke-width="1px" opacity="0.25"></line><line x1="321.4352996635437" y1="0" x2="321.4352996635437" y2="376.55199909210205" fill="rgb(0, 0, 0)" stroke="rgb(66, 66, 66)" stroke-width="1px" opacity="0.25"></line><line x1="428.58039955139157" y1="0" x2="428.58039955139157" y2="376.55199909210205" fill="rgb(0, 0, 0)" stroke="rgb(66, 66, 66)" stroke-width="1px" opacity="0.25"></line><line x1="535.7254994392395" y1="0" x2="535.7254994392395" y2="376.55199909210205" fill="rgb(0, 0, 0)" stroke="rgb(66, 66, 66)" stroke-width="1px" opacity="0.25"></line><line x1="642.8705993270873" y1="0" x2="642.8705993270873" y2="376.55199909210205" fill="rgb(0, 0, 0)" stroke="rgb(66, 66, 66)" stroke-width="1px" opacity="0.25"></line><line x1="750.0156992149352" y1="0" x2="750.0156992149352" y2="376.55199909210205" fill="rgb(0, 0, 0)" stroke="rgb(66, 66, 66)" stroke-width="1px" opacity="0.25"></line><line x1="857.1607991027831" y1="0" x2="857.1607991027831" y2="376.55199909210205" fill="rgb(0, 0, 0)" stroke="rgb(66, 66, 66)" stroke-width="1px" opacity="0.25"></line><line x1="964.305898990631" y1="0" x2="964.305898990631" y2="376.55199909210205" fill="rgb(0, 0, 0)" stroke="rgb(66, 66, 66)" stroke-width="1px" opacity="0.25"></line><line x1="1071.450998878479" y1="0" x2="1071.450998878479" y2="376.55199909210205" fill="rgb(0, 0, 0)" stroke="rgb(66, 66, 66)" stroke-width="1px" opacity="0.25"></line></g><g><line x1="0" y1="376.55199909210205" x2="1071.450998878479" y2="376.55199909210205" fill="rgb(0, 0, 0)" stroke="rgb(66, 66, 66)" stroke-width="1px" opacity="0.25"></line><line x1="0" y1="345.1726658344269" x2="1071.450998878479" y2="345.1726658344269" fill="rgb(0, 0, 0)" stroke="rgb(66, 66, 66)" stroke-width="1px" opacity="0.25"></line><line x1="0" y1="313.7933325767517" x2="1071.450998878479" y2="313.7933325767517" fill="rgb(0, 0, 0)" stroke="rgb(66, 66, 66)" stroke-width="1px" opacity="0.25"></line><line x1="0" y1="282.41399931907654" x2="1071.450998878479" y2="282.41399931907654" fill="rgb(0, 0, 0)" stroke="rgb(66, 66, 66)" stroke-width="1px" opacity="0.25"></line><line x1="0" y1="251.0346660614014" x2="1071.450998878479" y2="251.0346660614014" fill="rgb(0, 0, 0)" stroke="rgb(66, 66, 66)" stroke-width="1px" opacity="0.25"></line><line x1="0" y1="219.65533280372617" x2="1071.450998878479" y2="219.65533280372617" fill="rgb(0, 0, 0)" stroke="rgb(66, 66, 66)" stroke-width="1px" opacity="0.25"></line><line x1="0" y1="188.27599954605105" x2="1071.450998878479" y2="188.27599954605105" fill="rgb(0, 0, 0)" stroke="rgb(66, 66, 66)" stroke-width="1px" opacity="0.25"></line><line x1="0" y1="156.89666628837585" x2="1071.450998878479" y2="156.89666628837585" fill="rgb(0, 0, 0)" stroke="rgb(66, 66, 66)" stroke-width="1px" opacity="0.25"></line><line x1="0" y1="125.51733303070066" x2="1071.450998878479" y2="125.51733303070066" fill="rgb(0, 0, 0)" stroke="rgb(66, 66, 66)" stroke-width="1px" opacity="0.25"></line><line x1="0" y1="94.13799977302551" x2="1071.450998878479" y2="94.13799977302551" fill="rgb(0, 0, 0)" stroke="rgb(66, 66, 66)" stroke-width="1px" opacity="0.25"></line><line x1="0" y1="62.75866651535033" x2="1071.450998878479" y2="62.75866651535033" fill="rgb(0, 0, 0)" stroke="rgb(66, 66, 66)" stroke-width="1px" opacity="0.25"></line><line x1="0" y1="31.379333257675185" x2="1071.450998878479" y2="31.379333257675185" fill="rgb(0, 0, 0)" stroke="rgb(66, 66, 66)" stroke-width="1px" opacity="0.25"></line><line x1="0" y1="0" x2="1071.450998878479" y2="0" fill="rgb(0, 0, 0)" stroke="rgb(66, 66, 66)" stroke-width="1px" opacity="0.25"></line></g></g></g><g><g><line x1="0" y1="627.5866651535034" x2="1071.450998878479" y2="627.5866651535034" fill="rgb(0, 0, 0)" stroke="rgb(153, 153, 153)" stroke-width="1.5px"></line></g></g><g><g><line x1="107.14509988784789" y1="0" x2="107.14509988784789" y2="376.55199909210205" fill="rgb(0, 0, 0)" stroke="rgb(153, 153, 153)" stroke-width="1.5px"></line></g></g><g><g><g><g><g><path style="fill: none;" stroke="rgb(51, 187, 238)" stroke-width="2px" d="M121.95255269234848,-0.4099566724554579L122.15612838213538,1.2028256766117236L123.37758252085685,1.4072250316507011L124.51332057966803,4.391115382534171L125.93835040817642,6.83963134733575L127.97410730604552,10.69020850131425L128.9062696750698,14.411492195632277L129.51699674443054,16.45178367070681L129.72057243421744,15.821173975539788L131.55275364229965,19.22088292968446L132.68849170111085,22.203409964755497L133.50279446025849,22.78032169084757L133.7063701500454,26.532743107525317L134.11352152961922,28.39432382178083L134.52067290919302,27.224038433102884L135.7421270479145,32.22773407247445L135.9457027377014,29.847655852561548L137.4885921760864,31.57998359993225L137.89574355566023,32.39854378809953L138.09931924544716,35.01197808769043L138.71004631480787,35.86951360950217L140.13507614331624,36.15876948283074L140.86366282255364,35.959135010587765L141.27081420212744,40.66673803654651L141.67796558170124,39.387533665506616L143.10299541020964,35.84709899827876L143.30657109999657,39.0631029005688L144.32444954893109,40.35775746148837L145.86733898731612,41.75830577961632L146.07091467710305,43.560625171646976L146.27449036688995,44.1601387991307L147.0887931260376,43.08823312622605L147.29236881582452,42.57960558304468L147.49594450561142,42.90117720518436L148.9209743341198,41.615732515960886L149.64956101335713,41.02514189999947L149.85313670314406,44.568979362471964L150.056712392931,44.84551668480492L150.2602880827179,46.040253487523444L150.6674394622917,45.65075872674142L151.48174222143936,45.115590729184L151.88889360101317,45.64012934943795L152.29604498058697,44.94424787893372L153.43178303939817,46.89416821666666L153.63535872918507,47.3393956466931L154.24608579854583,50.46657272020648L155.2639642474804,51.04088812940292L158.43545920416068,53.164169077607426L158.63903489394758,54.09520449770132L158.84261058373448,52.542674880709924L161.28551886117742,54.42919705631661L161.48909455096432,52.07851119112738L161.81052985062786,53.702217876126745L164.0498624382839,56.8060419281495L164.66058950764466,58.952016693088304L165.06774088721846,59.69110901587551L165.47489226679227,61.99637464453294L166.40705463581656,67.33382151130313L167.01778170517727,71.55440561573455L167.62850877453803,70.82170152369702L168.03566015411184,68.35708418664075L169.0535386030464,71.02358686286759L169.4606899826202,67.30134375722571L169.66426567240714,70.85126716478081L171.41073080057907,71.91996738000923L171.81788218015288,75.25117553786248L172.63218493930054,74.44734701799325L173.44648769844815,77.9374124968206L173.85363907802198,85.25930072762033L174.05721476780892,85.24070247365795L174.78580144704625,82.73128922305393L177.83943679384993,83.99826902307889L178.04301248363686,88.3349927335514L179.17875054244803,90.51284563271994L179.58590192202186,93.34474877352208L179.78947761180876,90.5233497505526L181.01093175053023,93.43231438533995L181.41808313010404,95.99819502707788L182.2323858892517,93.9910533945286L183.5716996378498,98.57469112672136L183.7752753276367,95.73528339375905L183.9788510174236,92.3983259279484L184.1824267072105,96.29651984339255L186.42175929486655,97.4510382551969L188.16822442303845,97.80971903854841L188.98252718218612,99.10590235056763L189.38967856175992,101.39852427342967L190.4075570106945,98.97825136664517L191.5432950695057,101.74701278011698L191.9504464490795,103.8776387082477L194.18977903673553,103.45909443984894L195.52909278533363,102.17343766763008L195.73266847512053,102.28091547317433L196.54697123426817,107.16147396069758L198.58272813213728,108.88361026938422L198.7863038219242,108.23141879587313L199.193455201498,108.7112998477763L200.12561757052228,108.88317675317471L200.3291932603092,109.94666234888894L200.73634463988301,113.72379128909377L201.55064739903068,109.90689933855836L201.95779877860448,110.11965694441366L202.77210153775215,111.03033147438975L203.90783959656332,116.47571704922096L204.72214235571096,116.35717371006555L205.3328694250717,118.8130755309212L205.74002080464552,120.4827494265607L206.55432356379316,121.46623925745784L206.7578992535801,121.26191151147547L207.89363731239126,123.99832304396885L208.09721300217817,124.04387518403932L209.31866714089963,127.15606363583507L209.72581852047347,130.00278384464707L210.74369696940803,129.74517864302894L211.55799972855564,127.97602119897795L213.9151919260883,125.37179889202875L214.1187676158752,130.2735381560256L214.32234330566214,130.52929201498588L214.52591899544905,131.1286367268497L214.72949468523598,128.92992844770438L214.93307037502288,127.83786919711224L215.54379744438359,133.07975510712248L215.74737313417052,131.56766027447267L215.95094882395742,130.79491923543384L218.91886809085082,133.3412128794549L219.12244378063772,134.99059200231898L219.52959516021153,139.37971507712442L219.73317084999846,137.22975105461435L219.9367465397854,139.20042812316817L220.46175752923583,139.77872498122028L221.27606028838346,142.60094455851302L221.6832116679573,140.61888104276704L222.49751442710493,141.95231657352818L222.90466580667876,136.1138331383859L223.7189685658264,139.9470795057383L225.05828231442447,141.51158916575508L225.46543369399834,144.9236511073825L226.27973645314594,146.44246089402492L227.2976149020805,143.76405860613968L229.65480709961318,145.48482590591925L229.85838278940008,145.81600827106965L230.46910985876082,145.62842225391418L230.87626123833465,145.7755805203268L231.07983692812155,151.38795857353207L231.69056399748226,150.79188081130772L232.09771537705612,150.46667357395924L233.64060481544112,149.55225596698799L234.6584832643757,155.5086218427715L235.6763617133102,155.41247761417102L235.87993740309716,153.1783872971885L237.62640253126906,154.3357834087589L237.82997822105597,157.76020475461243L238.44070529041667,155.72633850580743L238.84785666999053,154.22130598738474L239.05143235977744,151.95463381034813L239.8657351189251,151.95096634521371L240.6800378780727,153.33704735374752L242.0193516266708,155.0661217395435L242.2229273164577,153.68430086343403L243.24080576539228,157.36400342202313L243.64795714496609,158.99702776217424L244.46225990411375,160.90836844128935L245.07298697347446,163.1712504948661L245.59799796292495,157.0971205784678L247.02302779143332,160.71557140279918L247.63375486079403,159.7571954899959L248.6516333097286,164.32470081720078L248.8552089995155,165.6701742886335L249.7873713685398,163.05053589917256L250.60167412768743,166.76554040462892L252.23027964598273,164.67763138245866L252.63743102555654,167.19607328236253L253.04458240513034,170.61430100137554L253.24815809491727,168.96539310301532L254.38389615372844,173.1735826096742L256.01250167202375,177.9278984447791L257.0303801209583,177.36210925064873L258.3696938695564,176.7388057721244L258.77684524913025,179.599892724184L259.18399662870405,178.64924052016238L259.387572318491,177.75393129876528L259.7947236980648,176.36802400372667L259.99829938785166,170.93437632149255L260.4054507674255,173.27357873945348L260.60902645721245,177.8882885493776L260.8126021469993,176.0775900437552L261.8304805959339,175.62408377524847L263.169794344532,179.92604297200583L267.35916775014687,183.79523403979343L267.56274343993374,186.2191393405051L268.98777326844214,187.18240237151193L269.5985003378029,189.02844524749605L269.80207602758975,186.47150880140296L270.2092274071636,184.92736672473845L270.73423839661405,185.82781335210694L271.1413897761879,184.7864501245574L272.3628439149093,187.4187714045448L275.73791456137656,186.67846134972294L275.94149025116343,187.36265241092116L276.3486416307373,190.0519764503335L276.959368700098,190.0665977476101L278.5879742183933,191.859807956188L278.7915499081802,194.9869438450022L280.741590726139,190.78871954341653L281.55589348528673,186.79953708062382L281.7594691750736,193.94360611248922L282.1666205546474,195.5402839453737L282.37019624443434,197.9085226074049L282.9809233137951,195.15003258048586L283.3023586134586,201.04636570416508L283.9130856828193,198.92389078726893L284.3202370623932,199.1241699845153L285.54169120111465,201.95088938671063L286.76314533983606,197.8469681992996L287.4917320190735,197.10623894792212L287.8988833986473,199.9576644230795L288.7131861577949,195.22965394890815L289.5274889169426,198.42256974281358L289.7310646067295,195.36052912565685L292.495408183836,198.43241544953798L292.9025595634098,199.070380895454L294.1240137021312,200.57347229059468L294.73474077149194,203.3772826411801L295.1418921510658,200.47489724571324L296.0740545200901,193.2781072028965L296.277630209877,198.10269765921396L297.4990843485985,204.95938542978166L297.9062357281723,208.2193645245276L299.5348412464675,202.83159398821732L300.26342792570495,206.79062239698825L301.6884577542133,211.87348909602412L302.0956091337871,217.0554725405821L302.299184823574,215.3514636668828L302.50276051336095,216.1913922767716L304.65637702110666,216.2270876122325L306.08140684961506,212.7667285987212L306.6921339189758,209.8794828024662L307.30286098833653,213.97074439098665L309.04932611650844,216.31371402550306L312.1029614633121,217.11698744616697L312.30653715309904,216.1691780775462L313.03512383233635,219.13237919585407L313.8494265914841,218.16065502655226L314.6637293506317,218.90733748775833L315.0708807302055,215.19147508572493L315.4780321097793,214.17020633632953L316.4959105587139,214.76756413252883L317.22449723795125,212.63195899350538L317.4280729277382,216.52594027576657L317.63164861752506,217.45173797485234L318.03879999709886,216.60427153123433L319.46382982560726,216.62014915306725L319.8709812051811,210.58092092533158L321.41387064356616,214.56920111886402L322.22817340271376,211.86994340160646L322.63532478228757,218.440250030993L324.06035461079597,216.68774470369843L324.2639303005829,217.48584207131555L324.4675059903698,219.48773724536494L325.8068197389679,221.8787037953079L326.41754680832855,220.870915604929L328.4533037061977,223.34188275388343L329.38546607522204,217.39354655313375L329.79261745479585,218.47125234037577L331.42122297309106,220.9225130662638L331.624798662878,227.81858294048266L332.03195004245185,227.56786561630716L332.84625280159946,227.19950157231054L333.57483948083683,228.62235973140622L334.79629361955836,231.15728347843907L334.99986930934523,232.99899595832002L337.23920189700124,222.70702875485816L338.17136426602553,226.1958628735408L338.57851564559934,224.20472914159572L339.1892427149601,227.1790829582592L339.5963940945339,229.66066396733078L340.00354547410774,228.16901641907157L340.6142725434685,225.05907985481215L342.15716198185345,234.81262488375984L342.3607376716403,231.4267741786637L342.9714647410011,226.0380082295286L343.17504043078804,224.4718325981235L343.7857675001487,225.13861168736398L344.39649456950946,224.78845770240187L344.80364594908326,221.78175214118588L345.82152439801786,224.51969648746987L347.36441383640283,222.89477508209478L348.3822922853374,226.21110263293193L348.58586797512436,225.90299718698517L350.73948448287007,225.75290754121028L351.14663586244393,233.527288378211L353.182392760313,227.29725438817812L353.58954413988687,226.98632105763204L353.79311982967374,228.9238697409481L354.9288578884849,227.875655471453L355.3360092680587,230.20728783128047L356.3538877169933,234.1782284563128L357.1681904761409,229.91340504396402L357.37176616592785,230.60699677228973L357.9824932352886,232.14454126078718L359.9325340532474,232.94492635547866L361.56113957154275,237.03383340609523L362.37544233069036,236.8389658349634L363.51118038950153,240.56448561193577L363.9183317690754,241.17858958325235L364.732634528223,239.4090727390448L367.9041294849033,238.26376528959494L368.3112808644771,238.71317250883754L369.1255836236248,239.00340569734846L369.3291593134117,241.0128566697964L369.5327350031986,243.48411351768505L369.93988638277244,242.4230963929528L370.5506134521331,237.3557670917404L371.2792001313705,235.51998223463798L371.4827758211574,230.74444775031145L372.7042299598789,238.95246073001792L373.5185327190265,240.7268292570077L374.5364111679611,236.30070446975574L374.9435625475349,239.33310533054433L375.8757249165592,241.76042586378608L376.4864519859199,237.31998101717548L377.50433043485447,240.75052450723877L378.1150575042152,241.47461486319636L379.13293595314974,239.548667350653L379.33651164293667,240.59594194726455L380.06509832217404,241.03173505614436L380.8794010813217,237.83058713176845L382.7115822894039,235.52357301523307L384.2544717277889,244.0531984307614L384.8651987971497,241.14330952026762L385.06877448693655,237.8307078020977L386.9009556950187,241.34442650843775L389.05457220276446,246.84787396334903L389.6652992721252,245.46846130681075L390.88675341084667,243.05572609470286L392.22606715944477,245.58279672282623L393.04036991859243,242.38378685817239L393.85467267774004,244.7793175709875L395.27970250624844,243.2391521140504L395.48327819603537,244.5854381681111L396.4154405650596,246.52010557426132L397.6368947037811,244.32393478568378L398.45119746292875,240.45450085239636L399.0619245322895,247.83976833563756L399.8762272914371,244.58007801627267L404.065600697052,246.7804298448809L404.99776306607623,250.4503592060465L407.03351996394537,247.652306923582L408.0513984128799,247.99754274034706L408.4585497924537,255.78065041487577L408.6621254822407,251.1327554763876L408.9835607819042,254.12475906561053L409.18713647169113,253.59324082807652L410.81574198998635,251.30460770548828L412.4443475082817,246.61665178618097L412.64792319806855,248.6548284004112L413.17293418751905,246.92048023331824L413.3765098773059,248.94315209693207L415.81941815474886,248.36280142367485L416.0229938445358,248.00341378414421L416.4301452241096,248.1015817151619L418.78733742164223,244.9327901108221L419.398064491003,246.73219759658372L420.21236725015063,246.26730374483827L421.0266700092983,246.40469327405518L421.9588323783226,249.90842343903742L423.38386220683094,246.61130861302888L423.58743789661787,246.76670964877724L423.79101358640474,246.3419519858637L424.19816496597855,248.8239340441273L424.80889203533934,250.64059982235813L427.3696599226589,250.73557095485288L428.5911140613803,255.1777257998199L429.20184113074106,248.10112272497605L429.405416820528,246.28911988877599L431.55903332827376,252.75572441718998L432.16976039763443,256.32932314705437L432.37333608742136,258.74257395740364L434.52695259516713,254.70446190661372L435.1376796645278,259.0714136622383L435.3412553543148,251.5120857462831L435.7484067338886,253.67540877781985L436.5627094930362,259.84440295756633L436.76628518282314,260.87099871127634L437.3770122521839,259.02114128526176L438.3091746212082,257.52356977568667L439.3270530701427,256.0872028330506L441.5663856577987,257.6996814715084L442.7021237166099,258.28564636177646L443.1092750961837,251.65321867488512L444.737880614479,255.86669070307136L448.1129512609462,252.28820273592527L449.74155677924153,250.71016142311476L450.14870815881534,251.68969652807942L450.8772948380527,255.8586367879621L452.0987489767742,257.74112324553187L452.3023246665611,256.4771455350217L453.7273544950695,260.88748970260406L455.47381962324135,258.1181534938267L456.288122382389,254.49218628238307L457.1024251415367,250.61054383982855L457.9167279006843,254.52945350750886L458.527454970045,256.4872768239687L458.93460634961883,260.767835797862L460.273920098217,265.6018881068067L460.47749578800386,263.5060802266981L460.6810714777908,260.9365047520559L460.88464716757767,262.5667751319884L462.1061013062992,259.56934279746605L462.30967699608607,257.2170640923502L463.8525664344711,255.8130436198403L464.2597178140449,258.3843266650813L464.87044488340564,261.096995445386L465.2775962629795,257.32504927175364L465.4811719527664,257.753485582157L465.6847476425533,262.5732086482025L467.1097774710617,263.0019209193668L468.04193984008594,260.4680414340383L468.2455155298729,260.012079841222L468.6526669094467,267.89776515363525L469.6705453583813,261.1840312560049L471.2991508766765,261.85120244359393L471.5027265664634,265.4529826372641L472.4348889354877,266.78873086066545L472.8420403150615,264.37680686207256L474.4706458333568,257.57937762719666L474.67422152314373,258.8863725402511L477.03141372067637,258.19052095121896L479.0671706185455,259.41772450189086L479.4743219981193,262.5369225322214L480.20290867735673,267.11767158121256L481.01721143650434,268.2933926917343L481.2207871262912,265.869349024981L481.42436281607814,266.2313807158283L482.0350898854389,263.53445351397687L482.6458169547996,259.9284550231288L483.4601197139473,264.6489706825932L484.3922820829715,266.84582356194863L488.26022018892286,268.59853074781626L489.1923825579471,270.6107838427899L490.00668531709476,268.60788999904867L490.61741238645544,265.8691416541463L491.02456376602936,263.72351555955146L491.83886652517697,262.24246100413234L492.2460179047508,262.7329674680841L494.1960587227096,265.7109450600265L495.0103614818573,264.0795175111518L496.9604022998161,267.481329334836L497.97828074875065,265.6630232206292L498.1818564385375,263.26400373302636L498.38543212832445,265.4351533511105L501.1497757054309,264.9491263217693L501.7605027747917,265.65566567051667L502.3712298441524,264.0411428118761L502.7783812237262,266.5789987242642L504.2034110522346,271.4695165944029L505.01771381138224,274.4455287295401L505.7463004906196,270.7295420539063L506.96775462934113,270.2753948166478L507.171330319128,274.06555479391415L507.37490600891493,278.2081793268705L507.9856330782756,274.4052647499523L509.00351152721015,273.8884119752948L510.3428252758083,272.5781846131436L510.5464009655952,269.96011873656545L512.5821578634643,267.3919017115355L512.7857335532512,268.2430196125203L513.7178959222755,272.5553270296345L513.9214716120624,269.99069416946674L514.73577437121,272.5681446747266L515.1429257507839,275.42320442174895L516.3643798895054,275.5140597910091L516.975106958866,267.73168496198986L517.9072693278904,269.0464801705799L518.1108450176772,264.1921251703886L518.5179963972511,269.3229471551147L518.721572087038,268.32341023493325L519.1287234666119,266.2835903076584L521.3680560542679,264.14349421633614L521.7752074338417,269.4806543555735L523.5216725620136,269.7179305936266L523.7252482518005,271.4572644433283L524.3359753211613,268.74595700126474L530.6789652345218,270.08030204517075L531.6968436834563,269.61322801060095L533.5290248915386,268.89826842894786L533.7326005813255,267.812873235865L535.2754900197106,268.5331891613455L536.0897927788582,274.23813111925983L537.5148226073665,281.9892151806932L537.7183982971534,277.3369940922842L540.279166184473,278.5018192828268L540.8898932538337,279.0896153688327L542.722074461916,278.35588667037683L544.4685395900877,277.9304476922472L544.8756909696616,275.08713805172926L546.5042964879569,272.74503738648303L546.7078721777439,278.9066158442259L547.2328831671942,275.0563702605243L547.8436102365552,271.3480210650086L548.2507616161289,273.4748465232575L549.0650643752765,267.25985976022287L549.2686400650634,273.2997715961611L550.082942824211,275.40526057086663L550.286518513998,277.21617864760435L551.1008212731456,279.94065087196606L551.4222565728093,278.3032321579691L552.0329836421699,275.62935246367323L552.2365593319569,279.0107001531108L552.8472864013175,270.5351667126197L554.6794676093997,271.2411808857654L555.2901946787605,277.8222342028402L557.4438111865062,280.3607389706092L559.4795680843754,278.3733669045209L560.2081547636127,283.05716204879405L561.6331845921211,276.8321479364778L563.0582144206295,277.9170267954694L565.4154066181621,282.8405309648054L565.8225579977359,279.630455378776L566.8404364466704,273.78538993283496L567.858314895605,277.76691894746205L568.3833258850555,280.4518311007791L568.7904772646293,277.7884209618088L570.0119314033508,280.17897214200065L570.4190827829245,277.73967998837423L571.0298098522853,280.46270511691074L571.2333855420721,278.7645817798631L572.5726992906704,280.82121317532733L573.387002049818,275.2728394797237L575.6263346374741,275.11316754296604L576.2370617068348,280.8090726891543L577.3727997656459,280.71280413856L580.0192837328758,283.4426635163519L581.5621731712608,286.57497703587273L582.1729002406215,286.1144924271043L585.140819507515,285.31866220577473L587.3801520951708,286.98171690709506L589.1266172233428,283.24023725234775L590.1444956722775,282.0916462415749L590.3480713620644,286.9693385026019L591.3659498109989,290.5419591721696L592.3838282599335,291.8993394870429L592.9945553292941,290.6529966625894L594.1302933881053,289.52736449463845L595.7588989064006,291.5069751583095L596.3696259757613,286.4866026681805L597.9125154141464,286.1305811279446L598.1160911039333,287.3073893764073L598.3196667937202,288.19100832831464L598.726818173294,290.0700341244982L599.9482723120154,288.7422433719245L600.9661507609501,286.43646256358335L601.373302140524,283.38628421130517L604.3412214074173,284.4036340736422L606.6984136049499,281.3168179568934L607.7162920538844,286.36950671194313L608.1234434334583,288.36280415727293L608.530594813032,284.10212205254163L608.734170502819,286.879304067635L609.3448975721798,284.6162389025566L609.5484732619666,286.7824460189711L615.8914631753272,286.2958924302599L616.5021902446879,287.33892919388643L617.3164930038357,286.23474860501886L617.5200686936225,286.52457962616967L618.6558067524337,283.740894920923L618.8593824422206,289.4963635966633L621.3022907196636,292.99192976561335L623.0487558478355,292.84134334973794L623.4559072274093,290.9581150326981L623.6594829171962,290.72175837530096L624.4737856763438,291.790317794845L625.2880884354915,289.19120726749173L626.1023911946392,289.0348206796381L627.848856322811,291.846067467035L628.6631590819587,290.52103684368103L629.4774618411063,286.99756099963133L630.495340290041,289.99892364199286L631.0203512794914,288.86122055756414L631.631078348852,293.30865057982476L632.0382297284259,292.8649891453473L632.2418054182128,289.42131518622756L632.6489567977867,289.05025005901336L633.6668352467212,292.84580472814645L634.4811380058688,291.4195223661699L634.6847136956558,291.7817274816715L634.8882893854427,289.62579575208343L635.4133003748932,294.2833440729016L635.820451754467,292.7884779881747L636.8383302034015,294.1178182737076L637.2454815829753,289.2062191929669L638.8740871012706,291.26028711626884L640.0098251600818,297.1623733995464L644.6063499452705,296.6122182866012L644.8099256350573,299.2522025015722L645.2170770146312,296.7143367843258L646.6421068431396,295.4773924841967L647.0492582227134,291.76371218949976L647.2528339125004,292.2351281052683L648.3885719713114,291.5107246864625L648.5921476610985,290.4229699769814L648.7957233508854,296.47549139621924L649.4064504202461,295.11924890808547L649.610026110033,297.116495867089L650.2207531793937,291.5558933790085L651.6457830079021,290.4058560236627L652.1707939973526,290.1661849309078L653.1886724462871,292.93705219073803L655.4280050339431,292.1465359270064L655.6315807237299,289.93345530211525L655.8351564135169,291.575115622299L657.5816215416888,297.71968535505437L657.7851972314758,295.76285092422404L658.8030756804103,296.9677208664759L659.0066513701973,301.03456647450616L659.2102270599842,298.8751890297303L659.4138027497711,298.7408279619051L659.820954129345,297.15179325468944L660.0245298191318,292.9511386086911L660.3459651187953,292.3576892641949L660.956692188156,294.10320927683506L664.5353385244102,295.1359624487889L664.9424899039841,295.2886393250491L666.5710954222793,291.4831459055037L666.7746711120662,296.2263209923196L666.9782468018532,298.457014239913L667.3853981814269,297.00291683422483L668.928287619812,300.38371822851593L669.5390146891726,298.0872074103141L669.9461660687465,296.17013022761336L670.5568931381072,296.2599884793518L670.964044517681,296.13862881521175L671.3711958972549,297.65438697479124L673.3212367152137,297.3552490335762L674.1355394743613,298.9014446574146L674.5426908539351,299.8381995823041L675.3569936130829,299.628649211665L675.5605693028698,297.6337919294012L676.3748720620174,298.94805974520114L676.5784477518043,298.6614810971906L676.7820234415913,303.4756582993621L677.9177615004024,305.52855029938166L678.935639949337,300.8953341280362L679.1392156391239,297.0002245490471L679.9535183982715,297.9020583258446L680.971396847206,299.64284854378826L681.2928321468696,299.15868982187106L681.4964078366565,300.6950067594312L682.1071349060172,298.2791127802725L682.3107105958042,298.9578746674081L683.9393161140994,301.2330468701699L684.1428918038863,300.1298664462906L684.3464674936732,299.4987666632504L685.4822055524844,296.76983490463806L685.6857812422713,296.4180823832362L686.5000840014189,299.04176933681674L687.1108110707797,300.3406803612142L687.7215381401404,302.8266726419929L688.1286895197144,295.510292156796L688.5358408992881,300.16714177978383L689.1465679686489,305.69736999364744L689.3501436584357,300.61489417213966L690.689457407034,296.5357713141511L693.1323656844768,296.75811573040755L693.5395170640506,298.06053852622796L696.303860641157,297.81738235022084L696.507436330944,298.180673820874L698.8646285284766,302.27508457744153L699.0682042182635,299.14007578827477L700.9003854263457,302.574167732235L701.3075368059197,299.8758437785135L701.7146881854934,305.7580912072583L702.4432748647307,303.8425398786043L703.0540019340915,308.90613607601455L703.6647290034522,310.99250804477697L704.4790317625999,310.68131378519234L704.6826074523868,305.38872529319224L705.7004859013214,305.00595488321403L706.1076372808952,305.61648558513224L706.6326482703457,310.6973081062061L706.8362239601325,306.9751200950037L707.6505267192803,304.1843370528482L710.29701068651,302.98520647760915L710.8220216759605,305.12081605053913L711.0255973657474,308.6934327918791L711.4327487453212,306.8472309907895L712.4506271942557,310.2049501883897L712.8577785738296,307.3502646647364L713.2649299534033,306.45807491406674L713.6720813329772,306.18749845195543L715.4185464611492,308.2793481185826L717.0471519794444,310.85892292728016L717.6578790488052,305.5787085673851L717.8614547385921,304.1473457985993L718.4721818079529,304.55101709550365L718.9971927974033,306.167196893776L719.2007684871901,307.7955087903166L719.811495556551,306.49537732557445L721.0329496952725,305.9988740406295L721.8472524544201,302.9236310271646L722.050828144207,306.4193035449206L725.0187474111003,305.08448774069126L725.629474480461,304.1112713208937L726.2402015498218,305.959235606892L726.8509286191825,307.819716937375L727.7830909882068,307.9021638147617L728.3938180575675,306.8456990952477L728.5973937473544,306.5455213449644L728.8009694371414,305.52834897879757L730.0224235758627,309.18322329256654L731.0403020247974,306.08709347263226L731.2438777145843,307.728414015203L732.3796157733955,310.87817851684576L732.7867671529692,314.0365561973423L734.2117969814777,312.38640907125784L734.8225240508384,308.519491882497L735.2296754304123,309.1219866742313L735.4332511201991,310.4031889869399L735.9582621096497,311.7743139947862L736.1618377994365,313.7197251058848L736.5689891790104,312.263747900644L737.7904433177318,315.9927811004179L739.4190488360271,315.5686722982144L739.622624525814,311.003467459688L740.7583625846252,311.90789891199177L741.7762410335597,308.9030947356808L742.7941194824942,310.8731127873754L745.5584630596007,310.3070234259274L745.7620387493877,308.81173043488684L745.9656144391745,310.419751692582L748.0013713370437,305.00145020032636L749.5442607754287,309.4164294430894L750.1549878447895,313.98267199806725L751.172866293724,314.17794304448006L753.1229071116828,315.6763172217764L753.3264828014698,315.8610684937606L753.5300584912567,314.76268301820824L754.5479369401912,312.574031333275L755.7693910789127,311.7083038161728L756.3801181482734,306.6473784335251L757.3122805172977,312.57938017166435L757.5158562070845,312.8438553638034L757.7194318968715,314.3596244617793L758.1265832764453,314.7750730560536L758.9408860355929,316.65918124752534L759.5516131049537,316.0632720021484L759.7551887947407,313.51041713674556L760.5694915538883,316.9896968354268L760.8909268535517,316.7312197659147L761.0945025433386,316.8124340500977L762.1123809922732,315.3067637710533L762.5195323718472,319.36927868985765L764.5552892697162,314.86725803849623L764.7588649595031,308.99156111566555L766.0981787081013,314.2531035179511L767.1160571570358,317.828442114664L767.5232085366096,314.50853070062794L768.1339356059704,313.7946042300988L770.6947034932899,316.2268949579787L771.3054305626506,317.9229439913993L771.9161576320113,317.9064172710745L772.9340360809459,317.596683490738L773.6626227601832,318.7141657495044L774.8840768989047,313.8725497585001L775.4948039682655,317.3640711826649L775.9019553478394,317.35850914881723L776.9198337967739,316.58336660470235L777.3269851763476,316.96303768992806L778.259147545372,314.39790802752066L778.4627232351589,318.22800312273466L780.0913287534541,319.3486199593261L780.9056315126018,321.21606397944413L781.1092072023887,322.25481088401773L781.8377938816261,321.0113634270973L782.2449452611999,316.64670608287923L783.6699750897083,317.87606779786086L784.4842778488559,315.7450854713929L785.2985806080035,314.971895655249L786.2307429770278,316.7533716827678L786.6378943566017,317.35757158567776L787.859348495323,318.17835818605545L790.4201163826426,319.68976908641673L790.8272677622165,317.71430283555975L791.2344191417902,320.9758720444191L791.8451462111511,317.0978177882356L792.4558732805118,318.6066324284049L793.0666003498725,320.47857253587847L793.2701760396594,315.85891934599647L794.4059140984707,316.1764884122818L796.0345196167659,314.45286466756096L797.2559737554874,318.24475739676575L797.8667008248481,318.09270470710635L798.070276514635,316.9595362802432L799.816741642807,317.5260391377969L801.4453471611022,318.7992549857893L803.3953879790611,324.1403073516099L804.2096907382087,326.61274754527267L805.6347205667171,324.7592532171323L806.9740343153152,320.92037498740564L807.9919127642497,316.55083056530884L809.620518282545,321.57299387282427L810.0276696621188,319.80758224488284L810.2312453519057,318.7474300167761L811.5705591005038,317.26115056016624L811.9777104800777,323.32531175282264L812.1812861698646,327.05669024865796L812.3848618596516,327.1717453282377L813.1991646187992,326.84012610234294L813.402740308586,320.9070232364721L813.6063159983729,325.86800062267423L814.0134673779468,324.73332449329115L814.6241944473074,323.8346450174983L815.0313458268814,322.84298373366056L816.1670838856925,321.02425922172904L816.3706595754794,322.3432150644905L816.9813866448401,324.46812105511924L817.9992650937747,322.8685998638576L818.2028407835617,323.6252212490235L818.8135678529223,321.211814195482L819.9493059117335,323.38014433427264L820.3564572913075,326.455861488312L820.9671843606682,325.33592779010803L821.1707600504551,325.9265088992738L821.3743357402419,324.2624986989745L821.9850628096027,323.84538364292735L823.2065169483242,324.1378763807819L824.1386793173484,327.1907171543122L824.952982076496,326.83822220308565L826.3780119050044,329.1096127020127L826.5815875947914,324.6855193179811L826.9887389743651,323.94271471626195L827.5994660437259,325.33999650318935L828.7352041025371,329.1097414928653L830.7709610004061,324.3401721321196L830.9745366901932,327.16444885939876L831.7888394493408,331.4994011360812L832.3138504387912,326.7523276575371L833.7388802672997,324.11417669588315L834.1460316468734,330.24180557099174L834.5531830264473,330.339153755822L835.163910095808,328.9647293465371L836.299648154619,324.74347440789L836.5032238444061,327.39872436633107L836.706799534193,325.91351852418836L836.9103752239799,328.25251884206887L837.1139509137669,328.5692882402562L837.3175266035537,327.24290425322823L838.1318293627014,325.5909529783392L838.5389807422752,331.247327110511L838.946132121849,329.2763553255439L839.5568591912097,327.9462013230079L840.1675862605704,326.1751507643855L840.489021560234,325.99290354412943L841.0997486295947,325.4149791620293L843.3390812172507,327.57836680109676L844.3569596661854,328.4219183224261L844.6783949658488,330.98498228216823L845.8998491045703,333.53989672555207L846.917727553505,333.3170842290842L847.7320303126526,330.2341028222479L847.9356060024395,329.5696695368625L849.0713440612506,326.4136887924789L849.6820711306112,326.408043167091L850.9035252693328,326.8438074324862L851.7178280284804,328.1833754513851L852.5321307876281,328.24271536590373L853.0571417770786,331.9786276921779L854.2785959158,332.55442284192316L854.8893229851608,326.11759228738435L855.7036257443084,329.33089355416104L856.1107771238821,328.83025703657944L856.3143528136691,325.40190255758984L856.9250798830299,326.40108573306793L857.2465151826934,332.77903191452765L858.060817941841,331.6267975405037L858.6715450112017,328.36116898656235L858.8751207009886,323.2929193409286L859.0786963907756,325.3330555584292L859.4858477703494,326.9739569026529L861.4358885883082,326.7235179178215L863.0644941066035,331.53285729800876L864.0823725555381,333.45367247534523L864.285948245325,329.3463071403885L864.489523935112,331.93863689788975L864.6930996248989,329.01369897478406L865.3038266942596,327.65602185734144L866.2359890632839,325.23490867454416L867.6610188917922,326.26723799385456L869.4932000998743,326.8608695885699L870.2217867791118,330.6290605555352L872.6646950565547,332.1492625770055L873.2754221259154,332.68544263345314L873.6825735054894,334.60069228564146L874.2075844949397,337.49953581103733L874.8183115643004,332.76049673452144L875.2254629438743,335.7380788221004L875.632614323448,335.5593648185449L876.039765703022,331.7964995740738L876.2433413928089,329.8037497395791L876.4469170825957,330.85010067461735L879.0076849699153,333.21113837300067L880.2291391086368,334.33135476960706L882.0613203167189,333.1070803047779L882.3827556163826,333.81654114447184L883.8077854448909,334.5297434298622L884.6220882040385,335.1042032972374L884.8256638938254,338.38536494234313L885.84354234276,338.2767195794818L886.0471180325469,338.11710192840144L886.7757047117843,339.7408001510004L888.4043102300795,340.2259289918085L889.0150372994402,339.26840284630345L889.2186129892272,327.93111455028514L891.168653807186,330.5869048508608L891.7793808765467,331.3362733027078L891.9829565663338,329.1743714366159L892.3901079459075,329.8469674598607L892.5936836356944,327.1843415205111L893.2044107050552,331.537484281838L893.407986394842,332.3874141636477L893.611562084629,335.7752858111708L895.154451523014,340.73298062506666L895.5616029025879,337.8822527586074L895.9687542821616,333.9427206456805L898.4116625596046,333.59130029672383L899.140249238842,335.35486111528L899.3438249286288,334.54938435016106L899.5474006184157,336.5634323751423L899.7509763082027,332.3117516854037L900.5652790673503,337.26786546555223L901.1760061367111,336.7310513254757L904.3475010933913,335.6712129234761L904.5510767831782,338.9224965513136L904.7546524729651,343.66444839020363L905.9761066116866,343.51442709712495L906.3832579912605,342.4779927469007L907.1975607504081,341.7624648078396L908.1297231194325,342.7601608229002L908.3332988092193,338.92837362503747L909.3511772581538,342.27223417502324L911.3869341560229,344.21274396945256L913.3369749739818,342.47835275389025L913.7441263535555,342.4257138279111L913.9477020433425,337.4467672978927L914.1512777331294,337.8169017926887L914.7620048024901,336.7721917171627L915.169156182064,335.1129901084894L915.8977428613014,340.4315523642792L917.7299240693835,340.36493702511996L918.3406511387442,342.2474673035944L918.9513782081051,341.55822330363696L921.1049947158508,341.59925522418223L923.5479029932936,343.58156643957136L924.6836410521049,341.7127672492642L925.9050951908264,341.6032669600561L926.1086708806132,340.1952286748703L926.5158222601871,338.91592246674514L927.3301250193347,336.71099412780984L928.6694387679328,338.59622543576074L929.2801658372936,336.5184651746946L929.6873172168673,333.92397206559843L930.0944685964412,342.91261641423984L930.7051956658019,339.83460311318163L931.1123470453757,339.98130073423255L931.3159227351626,335.8166205753628L931.7230741147365,336.2979223417L932.3338011840973,330.01479562064696L935.3017204509906,330.71507315837965L935.5052961407775,336.6532104574653L936.1160232101382,335.3280198846698L937.4553369587364,337.2039206986099L937.8624883383102,338.72926806060315L938.0660640280971,342.81944730185603L939.8982452361793,340.8314939935051L940.1018209259662,341.6532354264445L941.2375589847774,343.3648533321795L941.4411346745643,340.1047407559616L941.6447103643512,340.033675834966L942.2554374337119,340.6803296685765L942.4590131234988,342.3848566764526L943.4768915724334,341.481325209768L944.4947700213679,342.77955986351526L944.9019214009417,342.1094625884198" fill="none"></path></g></g></g></g><g opacity="0.2"><g><g><g><path style="fill: none;" stroke="rgb(51, 187, 238)" stroke-width="2px" d="M120.5275228638401,-2.526025314598456L121.13824993320083,8.559675136432077L121.34182562298774,-0.8110603138124185L121.95255269234848,2.360349356205518L122.15612838213538,3.6217535090543014L123.37758252085685,1.7138053812985417L124.51332057966803,8.866787265220935L125.93835040817642,10.512324725077349L127.97410730604552,16.465998209353074L128.9062696750698,19.993373654956187L129.51699674443054,19.512206381800198L129.72057243421744,14.875262122051538L131.55275364229965,24.32043766197809L132.68849170111085,26.677195938480352L133.50279446025849,23.645688748568432L133.7063701500454,32.16137315863563L134.11352152961922,31.186694275843664L134.52067290919302,25.468610582933593L135.7421270479145,39.73327693419094L135.9457027377014,26.27753869317216L137.4885921760864,34.178475146538275L137.89574355566023,33.626384049242986L138.09931924544716,38.932129496642744L138.71004631480787,37.15581688425941L140.13507614331624,36.5926532912124L140.86366282255364,35.659683302890514L141.27081420212744,47.728142566045335L141.67796558170124,37.46872711048583L143.10299541020964,30.536446999992663L143.30657109999657,43.887108752610985L144.32444954893109,42.29973930253125L145.86733898731612,43.859128256589756L146.07091467710305,46.26410425952429L146.27449036688995,45.059409240322736L147.0887931260376,41.48037461690505L147.29236881582452,41.816664268282864L147.49594450561142,43.38353463838983L148.9209743341198,39.68756548213493L149.64956101335713,40.139255976060056L149.85313670314406,49.88473555617132L150.056712392931,45.26032266830383L150.2602880827179,47.83235869160025L150.6674394622917,45.06651658556875L151.48174222143936,44.312838732847965L151.88889360101317,46.42693727981879L152.29604498058697,43.900425673177196L153.43178303939817,49.81904872326595L153.63535872918507,48.00723679173274L154.24608579854583,55.15733833047646L155.2639642474804,51.902361243197376L158.43545920416068,56.34909049991421L158.63903489394758,55.49175762784215L158.84261058373448,50.21388045522285L161.28551886117742,57.25898031972662L161.48909455096432,48.55248239334374L161.81052985062786,56.13777790362576L164.0498624382839,61.46177800618375L164.66058950764466,62.17097884049652L165.06774088721846,60.79974750005648L165.47489226679227,65.45427308751897L166.40705463581656,75.33999181145843L167.01778170517727,77.88528177238162L167.62850877453803,69.72264538564075L168.03566015411184,64.66015818105633L169.0535386030464,75.02334087720784L169.4606899826202,61.717979098762896L169.66426567240714,76.17615227611337L171.41073080057907,73.52301770285179L171.81788218015288,80.2479877746424L172.63218493930054,73.2416042381894L173.44648769844815,83.1725107150615L173.85363907802198,96.2421330738198L174.05721476780892,85.21280509271436L174.78580144704625,78.96716934714789L177.83943679384993,85.89873872311642L178.04301248363686,94.84007829926014L179.17875054244803,93.77962498147268L179.58590192202186,97.59260348472539L179.78947761180876,86.29125121609833L181.01093175053023,97.79576133752101L181.41808313010404,99.84701598968486L182.2323858892517,90.98034094570465L183.5716996378498,105.45014772501048L183.7752753276367,91.47617179431562L183.9788510174236,87.39288972923246L184.1824267072105,102.14381071655878L186.42175929486655,99.18281587290352L188.16822442303845,98.34774021357562L188.98252718218612,101.05017731859647L189.38967856175992,104.83745715772271L190.4075570106945,95.34784200646841L191.5432950695057,105.90015490032471L191.9504464490795,107.07357760044373L194.18977903673553,102.83127803725078L195.52909278533363,100.24495250930188L195.73266847512053,102.44213218149072L196.54697123426817,114.48231169198236L198.58272813213728,111.46681473241414L198.7863038219242,107.25313158560651L199.193455201498,109.43112142563108L200.12561757052228,109.14099211127223L200.3291932603092,111.54189074246032L200.73634463988301,119.38948469940101L201.55064739903068,104.18156141275519L201.95779877860448,110.43879335319674L202.77210153775215,112.39634326935372L203.90783959656332,124.64379541146769L204.72214235571096,116.17935870133239L205.3328694250717,122.49692826220466L205.74002080464552,122.98726027002006L206.55432356379316,122.94147400380355L206.7578992535801,120.95541989250194L207.89363731239126,128.10294034270896L208.09721300217817,124.11220339414513L209.31866714089963,131.82434631352862L209.72581852047347,134.27286415786511L210.74369696940803,129.35877084060166L211.55799972855564,125.32228503290156L213.9151919260883,121.46546543160497L214.1187676158752,137.62614705202083L214.32234330566214,130.91292280342628L214.52591899544905,132.02765379464523L214.72949468523598,125.63186602898641L214.93307037502288,126.19978032122417L215.54379744438359,140.94258397213792L215.74737313417052,129.29951802549795L215.95094882395742,129.63580767687574L218.91886809085082,137.1606533454863L219.12244378063772,137.46466068661505L219.52959516021153,145.9633996893325L219.73317084999846,134.00480502084918L219.9367465397854,142.15644372599883L220.46175752923583,140.64617026829836L221.27606028838346,146.83427392445225L221.6832116679573,137.645785769148L222.49751442710493,143.9524698696698L222.90466580667876,127.3561079856725L223.7189685658264,145.69694905676698L225.05828231442447,143.85835365578032L225.46543369399834,150.04174401982368L226.27973645314594,148.7206755739885L227.2976149020805,139.74645517431185L229.65480709961318,148.0659768555887L229.85838278940008,146.3127818187951L230.46910985876082,145.347043228181L230.87626123833465,145.99631791994568L231.07983692812155,159.80652565333997L231.69056399748226,149.89776416797127L232.09771537705612,149.97886271793647L233.64060481544112,148.1806295565312L234.6584832643757,164.44317065644668L235.6763617133102,155.26826127127038L235.87993740309716,149.82725182171464L237.62640253126906,156.07187757611456L237.82997822105597,162.8968367733927L238.44070529041667,152.67553913260002L238.84785666999053,151.96375720975055L239.05143235977744,148.55462554479317L239.8657351189251,151.9454651475121L240.6800378780727,155.41616886654822L242.0193516266708,157.65973331823744L242.2229273164577,151.6115695492698L243.24080576539228,162.8835572599067L243.64795714496609,161.4465642724008L244.46225990411375,163.7753794599621L245.07298697347446,166.56557357523127L245.59799796292495,147.9859257038703L247.02302779143332,166.1432476392963L247.63375486079403,158.31963162079091L248.6516333097286,171.17595880800792L248.8552089995155,167.68838449578254L249.7873713685398,159.12107831498105L250.60167412768743,172.33804716281355L252.23027964598273,161.54576784920323L252.63743102555654,170.97373613221833L253.04458240513034,175.74164257989509L253.24815809491727,166.492031255475L254.38389615372844,179.48586686966252L256.01250167202375,185.0593721974363L257.0303801209583,176.51342545945312L258.3696938695564,175.80385055433794L258.77684524913025,183.89152315227335L259.18399662870405,177.22326221413L259.387572318491,176.4109674666696L259.7947236980648,174.2891630611689L259.99829938785166,162.78390479814135L260.4054507674255,176.78238236639487L260.60902645721245,184.81035326426365L260.8126021469993,173.36154228532166L261.8304805959339,174.94382437248845L263.169794344532,186.37898176714202L267.35916775014687,189.59902064147485L267.56274343993374,189.85499729157254L268.98777326844214,188.627296918022L269.5985003378029,191.79750956147217L269.80207602758975,182.6361041322633L270.2092274071636,182.61115360974173L270.73423839661405,187.17848329315956L271.1413897761879,183.22440528323312L272.3628439149093,191.36725332452585L275.73791456137656,185.56799626749012L275.94149025116343,188.38893900271842L276.3486416307373,194.0859625094521L276.959368700098,190.0885296935249L278.5879742183933,194.54962326905473L278.7915499081802,199.67764767822362L280.741590726139,184.49138309103802L281.55589348528673,180.81576338643487L281.7594691750736,204.65970966028723L282.1666205546474,197.93530069470026L282.37019624443434,201.46088060045173L282.9809233137951,191.01229754010717L283.3023586134586,209.89086538968394L283.9130856828193,195.74017841192472L284.3202370623932,199.42458878038482L285.54169120111465,206.1909684900036L286.76314533983606,191.691086418183L287.4917320190735,195.99514507085587L287.8988833986473,204.23480263581553L288.7131861577949,188.137638237651L289.5274889169426,203.21194343367156L289.7310646067295,190.76746819992167L292.495408183836,203.04024493535965L292.9025595634098,200.02732906432814L294.1240137021312,202.82810938330584L294.73474077149194,207.5829981670583L295.1418921510658,196.12131915251297L296.0740545200901,182.4829221386713L296.277630209877,205.33958334369004L297.4990843485985,215.24441708563333L297.9062357281723,213.1093331666466L299.5348412464675,194.74993818375196L300.26342792570495,212.72916501014464L301.6884577542133,219.49778914457795L302.0956091337871,224.8284477074191L302.299184823574,212.7954503563339L302.50276051336095,217.45128519160488L304.65637702110666,216.28063061542377L306.08140684961506,207.5761900784542L306.6921339189758,205.54861410808374L307.30286098833653,220.10763677376733L309.04932611650844,219.82816847727747L312.1029614633121,218.32189757716293L312.30653715309904,214.74746402461506L313.03512383233635,223.57718087331594L313.8494265914841,216.7030687725995L314.6637293506317,220.02736117956744L315.0708807302055,209.6176814826748L315.4780321097793,212.63830321223625L316.4959105587139,215.66360082682792L317.22449723795125,209.42855128497004L317.4280729277382,222.36691219915826L317.63164861752506,218.84043452348098L318.03879999709886,215.33307186580745L319.46382982560726,216.64396558581672L319.8709812051811,201.52207858372805L321.41387064356616,220.55162140916252L322.22817340271376,207.82105682571995L322.63532478228757,228.2957099750729L324.06035461079597,214.0589867127565L324.2639303005829,218.68298812274136L324.4675059903698,222.49058000643913L325.8068197389679,225.46515362022234L326.41754680832855,219.3592333193607L328.4533037061977,227.04833347731494L329.38546607522204,208.47104225200923L329.79261745479585,220.0878110212389L331.42122297309106,224.5994041550958L331.624798662878,238.16268775181103L332.03195004245185,227.19178963004396L332.84625280159946,226.64695550631563L333.57483948083683,230.75664697004984L334.79629361955836,234.95966909898843L334.99986930934523,235.76156467814144L337.23920189700124,207.2690779496654L338.17136426602553,231.42911405156468L338.57851564559934,221.21802854367814L339.1892427149601,231.64061368325437L339.5963940945339,233.3830354809382L340.00354547410774,225.93154509668267L340.6142725434685,220.3941750084229L342.15716198185345,249.44294242718146L342.3607376716403,226.3479981210196L342.9714647410011,217.954859305826L343.17504043078804,222.12256915101594L343.7857675001487,226.13878032122471L344.39649456950946,224.2632267249587L344.80364594908326,217.27169379936188L345.82152439801786,228.6266130068958L347.36441383640283,220.4573929740323L348.3822922853374,231.18559395918766L348.58586797512436,225.4408390180649L350.73948448287007,225.52777307254786L351.14663586244393,245.1888596337122L353.182392760313,217.95220340312883L353.58954413988687,226.51992106181297L353.79311982967374,231.83019276592205L354.9288578884849,226.30333406721036L355.3360092680587,233.7047363710215L356.3538877169933,240.1346393938613L357.1681904761409,223.5161699254408L357.37176616592785,231.6473843647782L357.9824932352886,234.4508579935334L359.9325340532474,234.14550399751593L361.56113957154275,243.16719398202L362.37544233069036,236.5466644782657L363.51118038950153,246.1527652773944L363.9183317690754,242.09974554022725L364.732634528223,236.75479747273357L367.9041294849033,236.54580411542017L368.3112808644771,239.38728333770143L369.1255836236248,239.4387554801148L369.3291593134117,244.02703312846828L369.5327350031986,247.19099878951798L369.93988638277244,240.83157070585457L370.5506134521331,229.75477313992172L371.2792001313705,232.7663049489843L371.4827758211574,223.5811460238216L372.7042299598789,251.26448019957763L373.5185327190265,243.3883820474924L374.5364111679611,229.6615172888778L374.9435625475349,243.88170662172715L375.8757249165592,245.40140666364866L376.4864519859199,230.6593137472595L377.50433043485447,245.8963397423338L378.1150575042152,242.5607503971327L379.13293595314974,236.65974608183802L379.33651164293667,242.16685384218184L380.06509832217404,241.68542471946412L380.8794010813217,233.0288652452046L382.7115822894039,232.06305184043003L384.2544717277889,256.8476365540539L384.8651987971497,236.7784761545269L385.06877448693655,232.86180522484275L386.9009556950187,246.61500456794784L389.05457220276446,255.10304514571604L389.6652992721252,243.39934232200335L390.88675341084667,239.43662327654098L392.22606715944477,249.3734026650111L393.04036991859243,237.5852720611917L393.85467267774004,248.37261364021003L395.27970250624844,240.9289039286449L395.48327819603537,246.60486724920221L396.4154405650596,249.4221066834865L397.6368947037811,241.0296786028175L398.45119746292875,234.65034995246526L399.0619245322895,258.91766956049935L399.8762272914371,239.69054253722533L404.065600697052,250.0809575877932L404.99776306607623,255.9552532477949L407.03351996394537,243.45522849988527L408.0513984128799,248.5153964654947L408.4585497924537,267.45531192666874L408.6621254822407,244.16091306865528L408.9835607819042,258.6127644494448L409.18713647169113,252.79596347177545L410.81574198998635,247.87165802160587L412.4443475082817,239.58471790722L412.64792319806855,251.71209332175636L413.17293418751905,244.31895798267874L413.3765098773059,251.97715989235292L415.81941815474886,247.492275413789L416.0229938445358,247.46433232484804L416.4301452241096,248.24883361168844L418.78733742164223,240.17960270431246L419.398064491003,249.4313088252261L420.21236725015063,245.56996296722022L421.0266700092983,246.61077756788046L421.9588323783226,255.16401868651087L423.38386220683094,241.66563637401595L423.58743789661787,246.99981120239983L423.79101358640474,245.7048154914935L424.19816496597855,252.54690713152257L424.80889203533934,253.36559848970438L427.3696599226589,250.878027653595L428.5911140613803,261.84095806727044L429.20184113074106,237.48621811271025L429.405416820528,243.57111563447575L431.55903332827376,262.45563120981103L432.16976039763443,261.68972124185103L432.37333608742136,262.3624501729276L434.52695259516713,248.64729383042888L435.1376796645278,265.62184129567527L435.3412553543148,240.1730938723503L435.7484067338886,256.9203933251251L436.5627094930362,269.09789422718603L436.76628518282314,262.4108923418413L437.3770122521839,256.24635514624003L438.3091746212082,255.27721251132394L439.3270530701427,253.9326524190966L441.5663856577987,260.1183994291952L442.7021237166099,259.1645936971784L443.1092750961837,241.70457714454813L444.737880614479,262.18689874535073L448.1129512609462,246.92047078520602L449.74155677924153,248.3430994538989L450.14870815881534,253.15899918552645L450.8772948380527,262.112047177786L452.0987489767742,260.56485293188643L452.3023246665611,254.58117896925643L453.7273544950695,267.5030059539776L455.47381962324135,253.96414918066057L456.288122382389,249.0532354652177L457.1024251415367,244.78808017599675L457.9167279006843,260.4078180090295L458.527454970045,259.4240117986584L458.93460634961883,267.188674258702L460.273920098217,272.8529665702237L460.47749578800386,260.36236840653515L460.6810714777908,257.08214154009255L460.88464716757767,265.01218070188713L462.1061013062992,255.07319429568273L462.30967699608607,253.68864603467642L463.8525664344711,253.7070129110754L464.2597178140449,262.2412512329427L464.87044488340564,265.16599861584325L465.2775962629795,251.66713001130518L465.4811719527664,258.39614004776195L465.6847476425533,269.8027932472709L467.1097774710617,263.64498932611326L468.04193984008594,256.66722220604555L468.2455155298729,259.3281374519975L468.6526669094467,279.7262931222551L469.6705453583813,251.11343040955944L471.2991508766765,262.85195922497763L471.5027265664634,270.8556529277692L472.4348889354877,268.79235319576736L472.8420403150615,260.7589208641832L474.4706458333568,247.38323377488288L474.67422152314373,260.84686490983273L477.03141372067637,257.1467435676709L479.0671706185455,261.25852982789866L479.4743219981193,267.21571957771715L480.20290867735673,273.9887951546993L481.01721143650434,270.056974357517L481.2207871262912,262.2332835248511L481.42436281607814,266.77442825209937L482.0350898854389,259.48906271119967L482.6458169547996,254.51945728685672L483.4601197139473,271.7297441717898L484.3922820829715,270.1411028809818L488.26022018892286,271.22759152661786L489.1923825579471,273.62916348525033L490.00668531709476,265.6035492334368L490.61741238645544,261.76101913679275L491.02456376602936,260.5050764176593L491.83886652517697,260.0208791710037L492.2460179047508,263.4687271640118L494.1960587227096,270.1779114479402L495.0103614818573,261.63237618783967L496.9604022998161,272.5840470703622L497.97828074875065,262.93556404931905L498.1818564385375,259.6654745016221L498.38543212832445,268.6918777782367L501.1497757054309,264.22008577775756L501.7605027747917,266.7154746936376L502.3712298441524,261.61935852391537L502.7783812237262,270.38578259284634L504.2034110522346,278.8052933996107L505.01771381138224,278.90954693224586L505.7463004906196,265.15556204045566L506.96775462934113,269.5941739607599L507.171330319128,279.75079475981374L507.37490600891493,284.422116126305L507.9856330782756,268.70089288457507L509.00351152721015,273.11313281330854L510.3428252758083,270.6128435699168L510.5464009655952,266.03301992169804L512.5821578634643,263.5395761739906L512.7857335532512,269.5196964639976L513.7178959222755,279.0237881553057L513.9214716120624,266.1437448792151L514.73577437121,276.4343204326164L515.1429257507839,279.7057940422823L516.3643798895054,275.6503428448994L516.975106958866,256.05812271846105L517.9072693278904,271.0186729834649L518.1108450176772,256.9105926701016L518.5179963972511,277.0191801322039L518.721572087038,266.8241048546611L519.1287234666119,263.22386041674605L521.3680560542679,260.9333500793528L521.7752074338417,277.4863945644296L523.5216725620136,270.07384495070625L523.7252482518005,274.066265217881L524.3359753211613,264.67899583816944L530.6789652345218,272.0818196110298L531.6968436834563,268.9126169587462L533.5290248915386,267.8258290564682L533.7326005813255,266.18478044624084L535.2754900197106,269.6136630495661L536.0897927788582,282.7955440561314L537.5148226073665,293.61584127284317L537.7183982971534,270.3586624596707L540.279166184473,280.24905706864047L540.8898932538337,279.9713094978418L542.722074461916,277.255293622693L544.4685395900877,277.29228922505257L544.8756909696616,270.8221735909524L546.5042964879569,269.23188638861376L546.7078721777439,288.14898353084004L547.2328831671942,269.28100188497183L547.8436102365552,265.7854972717351L548.2507616161289,276.6650847106308L549.0650643752765,257.93737961567103L549.2686400650634,282.3596393500685L550.082942824211,278.56349403292484L550.286518513998,279.9325557627108L551.1008212731456,284.0273592085086L551.4222565728093,275.8471040869736L552.0329836421699,271.6185329222296L552.2365593319569,284.0827216872671L552.8472864013175,257.821866551883L554.6794676093997,272.30020214548404L555.2901946787605,287.6938141784524L557.4438111865062,284.1684961222626L559.4795680843754,275.3923088053884L560.2081547636127,290.0828547652037L561.6331845921211,267.49462676800334L563.0582144206295,279.5443450839568L565.4154066181621,290.22578721880933L565.8225579977359,274.81534199973197L566.8404364466704,265.01779176392347L567.858314895605,283.73921246940256L568.3833258850555,284.4791993307547L568.7904772646293,273.7933057533533L570.0119314033508,283.76479891228826L570.4190827829245,274.08074175793473L571.0298098522853,284.5472428097153L571.2333855420721,276.2173967742916L572.5726992906704,283.9061602685237L573.387002049818,266.95027893631817L575.6263346374741,274.87365963782963L576.2370617068348,289.35293040843675L577.3727997656459,280.5684013126685L580.0192837328758,287.5374525830398L581.5621731712608,291.27344731515393L582.1729002406215,285.42376551395165L585.140819507515,284.12491687378036L587.3801520951708,289.4762989590757L589.1266172233428,277.62801777022673L590.1444956722775,280.36875972541566L590.3480713620644,294.2858768941423L591.3659498109989,295.90089017652105L592.3838282599335,293.9354099593527L592.9945553292941,288.783482425909L594.1302933881053,287.83891624271206L595.7588989064006,294.47639115381605L596.3696259757613,278.956043932987L597.9125154141464,285.5965488175906L598.1160911039333,289.07260174910135L598.3196667937202,289.5164367561756L598.726818173294,292.8885728187734L599.9482723120154,286.7505572430639L600.9661507609501,282.97779135107163L601.373302140524,278.8110166828878L604.3412214074173,285.9296588671478L606.6984136049499,276.6865937817701L607.7162920538844,293.9485398445177L608.1234434334583,291.3527503252675L608.530594813032,277.71109889544476L608.734170502819,291.045077090275L609.3448975721798,281.2216411549389L609.5484732619666,290.0317566935928L615.8914631753272,285.56606204719316L616.5021902446879,288.90348433932616L617.3164930038357,284.5784777217176L617.5200686936225,286.9593261578959L618.6558067524337,279.5653678630529L618.8593824422206,298.12956661027386L621.3022907196636,298.23527901903844L623.0487558478355,292.61546372592477L623.4559072274093,288.1332725571383L623.6594829171962,290.36722338920526L624.4737856763438,293.3931569241611L625.2880884354915,285.29254147646185L626.1023911946392,288.80024079785755L627.848856322811,296.06293764813046L628.6631590819587,288.5334909086501L629.4774618411063,281.71234723355667L630.495340290041,294.5009676055352L631.0203512794914,287.1546659309209L631.631078348852,299.97979561321586L632.0382297284259,292.199496993631L632.2418054182128,284.255804247548L632.6489567977867,288.4936523681921L633.6668352467212,298.5391367318462L634.4811380058688,289.2800988232051L634.6847136956558,292.32503515492397L634.8882893854427,286.39189815770123L635.4133003748932,301.269666554129L635.820451754467,290.5461788610842L636.8383302034015,296.1118287020071L637.2454815829753,281.8388205718557L638.8740871012706,294.3413890012218L640.0098251600818,306.0155028244628L644.6063499452705,295.7869856171834L644.8099256350573,303.2121788240286L645.2170770146312,292.90753820845623L646.6421068431396,293.6219760340029L647.0492582227134,286.1931917474544L647.2528339125004,292.94225197892104L648.3885719713114,290.4241195582537L648.5921476610985,288.7913379127599L648.7957233508854,305.5542735250759L649.4064504202461,293.0848851758847L649.610026110033,300.1123663055944L650.2207531793937,283.2149896468877L651.6457830079021,288.68079999064406L652.1707939973526,289.8066782917752L653.1886724462871,297.0933530804834L655.4280050339431,290.960761531409L655.6315807237299,286.6138343647785L655.8351564135169,294.0376061025745L657.5816215416888,306.9365399541874L657.7851972314758,292.82759927797855L658.8030756804103,298.7750257798538L659.0066513701973,307.1348348865516L659.2102270599842,295.6361228625664L659.4138027497711,298.5392863601672L659.820954129345,294.76824119386606L660.0245298191318,286.6501566396937L660.3459651187953,291.4675152474507L660.956692188156,296.7214892957952L664.5353385244102,296.6850922067195L664.9424899039841,295.51765463943923L666.5710954222793,285.7749057761856L666.7746711120662,303.3410836225434L666.9782468018532,301.8030541113032L667.3853981814269,294.8217707256927L668.928287619812,305.4549203199525L669.5390146891726,294.6424411830114L669.9461660687465,293.2945144535623L670.5568931381072,296.3947758569594L670.964044517681,295.95658931900175L671.3711958972549,299.9280242141606L673.3212367152137,296.9065421217536L674.1355394743613,301.22073809317214L674.5426908539351,301.24333196963846L675.3569936130829,299.3143236557063L675.5605693028698,294.64150600600533L676.3748720620174,300.9194614689011L676.5784477518043,298.2316131251747L676.7820234415913,310.6969241026195L677.9177615004024,308.607888299411L678.935639949337,293.9455098710181L679.1392156391239,291.15756018056345L679.9535183982715,299.2548089910409L680.971396847206,302.2540338707037L681.2928321468696,298.4324517389953L681.4964078366565,302.9994821657712L682.1071349060172,294.6552718115345L682.3107105958042,299.9760174981114L683.9393161140994,304.6458051743127L684.1428918038863,298.4750958104715L684.3464674936732,298.5521169886903L685.4822055524844,292.67643726671963L685.6857812422713,295.89045360113346L686.5000840014189,302.97729976718756L687.1108110707797,302.28904689781046L687.7215381401404,306.55566106316087L688.1286895197144,284.5357214290007L688.5358408992881,307.15241621426543L689.1465679686489,313.9927123144429L689.3501436584357,292.9911804398779L690.689457407034,290.4170870271682L693.1323656844768,297.09163235479224L693.5395170640506,300.0141727199585L696.303860641157,297.45264808621016L696.507436330944,298.7256110268538L698.8646285284766,308.4167007122929L699.0682042182635,294.4375626045246L700.9003854263457,307.72530564817544L701.3075368059197,295.82835784793133L701.7146881854934,314.5814623503756L702.4432748647307,300.9692128856233L703.0540019340915,316.5015303721299L703.6647290034522,314.1220659979206L704.4790317625999,310.2145223958155L704.6826074523868,297.449842555192L705.7004859013214,304.43179926824683L706.1076372808952,306.53228163800947L706.6326482703457,318.31854188781676L706.8362239601325,301.3918380782002L707.6505267192803,299.9981624896148L710.29701068651,301.1865106147505L710.8220216759605,308.32423040993405L711.0255973657474,314.0523579038892L711.4327487453212,304.0779282891552L712.4506271942557,315.2415289847902L712.8577785738296,303.06823637925646L713.2649299534033,305.11979028806223L713.6720813329772,305.7816337587883L715.4185464611492,311.4171226185235L717.0471519794444,314.7282851403264L717.6578790488052,297.6583870275425L717.8614547385921,302.00030164542056L718.4721818079529,305.1565240408601L718.9971927974033,308.59146659118466L719.2007684871901,310.2379766351274L719.811495556551,304.5451801284611L721.0329496952725,305.25411911321214L721.8472524544201,298.3107665069673L722.050828144207,311.66281232155455L725.0187474111003,303.0822640343473L725.629474480461,302.65144669119735L726.2402015498218,308.73118203588945L726.8509286191825,310.61043893309943L727.7830909882068,308.02583413084164L728.3938180575675,305.2610020159767L728.5973937473544,306.0952547195393L728.8009694371414,304.0025904295473L730.0224235758627,314.6655347632201L731.0403020247974,301.44289874273085L731.2438777145843,310.19039482905924L732.3796157733955,315.6028252693099L732.7867671529692,318.7741227180871L734.2117969814777,309.9111883821311L734.8225240508384,302.7191160993556L735.2296754304123,310.0257288618329L735.4332511201991,312.3249924560028L735.9582621096497,313.83100150655565L736.1618377994365,316.6378417725326L736.5689891790104,310.0797820927829L737.7904433177318,321.58633090007885L739.4190488360271,314.932509094909L739.622624525814,304.15566020189857L740.7583625846252,313.2645460904473L741.7762410335597,304.3958884712143L742.7941194824942,313.82813986491715L745.5584630596007,309.45788938375557L745.7620387493877,306.5687909483259L745.9656144391745,312.83178357912476L748.0013713370437,296.87399796194285L749.5442607754287,316.0388983072339L750.1549878447895,320.83203583053404L751.172866293724,314.4708496140993L753.1229071116828,317.92387848772097L753.3264828014698,316.13819540173694L753.5300584912567,313.11510480487954L754.5479369401912,309.29105380587515L755.7693910789127,310.40971254051954L756.3801181482734,299.05599035955333L757.3122805172977,321.4773827788733L757.5158562070845,313.24056815201203L757.7194318968715,316.63327810874307L758.1265832764453,315.39824594746506L758.9408860355929,319.4853435347329L759.5516131049537,315.16940813408314L759.7551887947407,309.6811348386413L760.5694915538883,322.2086163834487L760.8909268535517,316.34350416164654L761.0945025433386,316.9342554763722L762.1123809922732,313.04825835248664L762.5195323718472,325.4630510680643L764.5552892697162,308.1142270614541L764.7588649595031,300.1780157314195L766.0981787081013,322.14541712137947L767.1160571570358,323.1914500097335L767.5232085366096,309.5286635795739L768.1339356059704,312.7237145243049L770.6947034932899,319.8753310497985L771.3054305626506,320.4670175415302L771.9161576320113,317.8816271905873L772.9340360809459,317.13208282023334L773.6626227601832,320.390389137654L774.8840768989047,306.6101257719936L775.4948039682655,322.60135331891206L775.9019553478394,317.35016609804563L776.9198337967739,315.42065278853016L777.3269851763476,317.5325443177667L778.259147545372,310.5502135339094L778.4627232351589,323.9731457655557L780.0913287534541,321.0295452142131L780.9056315126018,324.01723000962124L781.1092072023887,323.8129312408782L781.8377938816261,319.1461922417166L782.2449452611999,310.09972006655204L783.6699750897083,319.72011037033326L784.4842778488559,312.54861198169095L785.2985806080035,313.8121109310333L786.2307429770278,319.42558572404596L786.6378943566017,318.26387144004275L787.859348495323,319.409538086622L790.4201163826426,321.95688543695854L790.8272677622165,314.7511034592742L791.2344191417902,325.8682258577082L791.8451462111511,311.28073640396025L792.4558732805118,320.86985438865895L793.0666003498725,323.28648269708896L793.2701760396594,308.92943956117335L794.4059140984707,316.65284201170977L796.0345196167659,311.86742905047964L797.2559737554874,323.93259649057313L797.8667008248481,317.86462567261725L798.070276514635,315.2597836399484L799.816741642807,318.37579342412755L801.4453471611022,320.7090787577778L803.3953879790611,332.1518859003409L804.2096907382087,330.3214078357668L805.6347205667171,321.9790117249218L806.9740343153152,315.1620576428155L807.9919127642497,309.9965139321637L809.620518282545,329.10623883409744L810.0276696621188,317.15946480297066L810.2312453519057,317.157201674616L811.5705591005038,315.0317313752515L811.9777104800777,332.42155354180727L812.1812861698646,332.653757992411L812.3848618596516,327.3443279476074L813.1991646187992,326.34269726350084L813.402740308586,312.0073689376659L813.6063159983729,333.3094667019773L814.0134673779468,323.03131029921644L814.6241944473074,322.4866258038091L815.0313458268814,321.35549180790395L816.1670838856925,318.2961724538319L816.3706595754794,324.32164882863265L816.9813866448401,327.6554800410624L817.9992650937747,320.4693180769651L818.2028407835617,324.76015332677235L818.8135678529223,317.5917036151698L819.9493059117335,326.6326395424585L820.3564572913075,331.069437219371L820.9671843606682,323.6560272428021L821.1707600504551,326.8123805630225L821.3743357402419,321.7664833985255L821.9850628096027,323.21971105885655L823.2065169483242,324.5766154875638L824.1386793173484,331.76997831460767L824.952982076496,326.3094797762457L826.3780119050044,332.5166984504034L826.5815875947914,318.0493792419337L826.9887389743651,322.82850781368313L827.5994660437259,327.4359191835805L828.7352041025371,334.7643589773792L830.7709610004061,317.1858180910013L830.9745366901932,331.40086395031733L831.7888394493408,338.0018295511049L832.3138504387912,319.63171743972083L833.7388802672997,320.1569502534022L834.1460316468734,339.4332488836547L834.5531830264473,330.4851760330674L835.163910095808,326.90309273260993L836.299648154619,318.4115919999194L836.5032238444061,331.3815993039926L836.706799534193,323.6857097609743L836.9103752239799,331.7610193188897L837.1139509137669,329.04444233753725L837.3175266035537,325.25332827268613L838.1318293627014,323.11302606600566L838.5389807422752,339.73188830876865L838.946132121849,326.31989764809316L839.5568591912097,325.95097031920403L840.1675862605704,323.51857492645195L840.489021560234,325.71953271374525L841.0997486295947,324.54809258887906L843.3390812172507,330.823448259698L844.3569596661854,329.68724560442L844.6783949658488,334.8295782217815L845.8998491045703,337.3722683906279L846.917727553505,332.9828654843823L847.7320303126526,325.60963071199353L847.9356060024395,328.5730196087843L849.0713440612506,321.6797176759036L849.6820711306112,326.39957472900915L850.9035252693328,327.497453830579L851.7178280284804,330.1927274797335L852.5321307876281,328.3317252376817L853.0571417770786,337.5824961815893L854.2785959158,333.4181155665409L854.8893229851608,316.46234645557615L855.7036257443084,334.1508454543261L856.1107771238821,328.079302260207L856.3143528136691,320.2593708391055L856.9250798830299,327.899860496285L857.2465151826934,342.34595118671723L858.060817941841,329.89844597946774L858.6715450112017,323.4627261556503L858.8751207009886,315.690544872478L859.0786963907756,328.3932598846802L859.4858477703494,329.4353089189885L861.4358885883082,326.34785944057427L863.0644941066035,338.7468663682897L864.0823725555381,336.3348952413499L864.285948245325,323.18525913795344L864.489523935112,335.82713153414164L864.6930996248989,324.6262920901255L865.3038266942596,325.6195061811775L866.2359890632839,321.6032389003483L867.6610188917922,327.8157319728202L869.4932000998743,327.751316980643L870.2217867791118,336.2813470059831L872.6646950565547,334.42956560921107L873.2754221259154,333.48971271812457L873.6825735054894,337.4735667639238L874.2075844949397,341.84780109913123L874.8183115643004,325.6519381197475L875.2254629438743,340.20445195346895L875.632614323448,335.29129381321155L876.039765703022,326.1522017073672L876.2433413928089,326.814624987837L876.4469170825957,332.41962707717477L879.0076849699153,336.75269492057555L880.2291391086368,336.01167936451674L882.0613203167189,331.27066860753416L882.3827556163826,334.8807324040128L883.8077854448909,335.5995468579478L884.6220882040385,335.9658930983002L884.8256638938254,343.3071074100016L885.84354234276,338.1137515351897L886.0471180325469,337.8776754517809L886.7757047117843,342.1763474848989L888.4043102300795,340.95362225302057L889.0150372994402,337.8321136280458L889.2186129892272,310.9251821062577L891.168653807186,334.57059030172434L891.7793808765467,332.46032598047833L891.9829565663338,325.93151863747806L892.3901079459075,330.8558614947279L892.5936836356944,323.1904026114867L893.2044107050552,338.0671984238282L893.407986394842,333.6623089863623L893.611562084629,340.8570932824554L895.154451523014,348.1695228459104L895.5616029025879,333.60616095891874L895.9687542821616,328.0334224762899L898.4116625596046,333.06416977328877L899.140249238842,338.0002023431143L899.3438249286288,333.34116920248266L899.5474006184157,339.5845044126142L899.7509763082027,325.93423065079566L900.5652790673503,344.70203613577513L901.1760061367111,335.9258301153608L904.3475010933913,334.0814553204767L904.5510767831782,343.7994219930698L904.7546524729651,350.77737614853874L905.9761066116866,343.28939515750693L906.3832579912605,340.92334122156444L907.1975607504081,340.689172899248L908.1297231194325,344.2567048454912L908.3332988092193,333.1806928282434L909.3511772581538,347.2880250000019L911.3869341560229,347.1235086610965L913.3369749739818,339.87676593054687L913.7441263535555,342.3467554389424L913.9477020433425,329.9783475028652L914.1512777331294,338.37210353488274L914.7620048024901,335.2051266038735L915.169156182064,332.6241876954795L915.8977428613014,348.4093957479638L917.7299240693835,340.26501401638114L918.3406511387442,345.0712627213062L918.9513782081051,340.52435730370064L921.1049947158508,341.66080310500024L923.5479029932936,346.55503326265506L924.6836410521049,338.90956846380334L925.9050951908264,341.4390165262439L926.1086708806132,338.0831712470916L926.5158222601871,336.9969631545574L927.3301250193347,333.40360161940697L928.6694387679328,341.42407239768715L929.2801658372936,333.40182478309544L929.6873172168673,330.0322324019541L930.0944685964412,356.395582937202L930.7051956658019,335.21758316159423L931.1123470453757,340.20134716580884L931.3159227351626,329.5696003370581L931.7230741147365,337.01987499120577L932.3338011840973,320.5901055390673L935.3017204509906,331.7654894649786L935.5052961407775,345.56041640609396L936.1160232101382,333.34023402547655L937.4553369587364,340.01777191952004L937.8624883383102,341.0172891035928L938.0660640280971,348.95471616373527L939.8982452361793,337.8495640309788L940.1018209259662,342.8858475758536L941.2375589847774,345.93228019078214L941.4411346745643,335.2145718916347L941.6447103643512,339.9270784534727L942.2554374337119,341.65031041899226L942.4590131234988,344.9416471882668L943.4768915724334,340.12602800974105L944.4947700213679,344.7269118441362L944.9019214009417,341.10431667577643" fill="none"></path></g></g></g></g></g></g><g transform="translate(41, 376)" clip-path="url(#clip_1)"><clipPath id="clip_1"><rect width="1071" height="23"></rect></clipPath><g><g><line x1="0" y1="0" x2="0" y2="5" style="visibility: inherit;" fill="rgb(0, 0, 0)" stroke="rgb(204, 204, 204)" stroke-width="1px"></line><line x1="107.14509988784789" y1="0" x2="107.14509988784789" y2="5" style="visibility: inherit;" fill="rgb(0, 0, 0)" stroke="rgb(204, 204, 204)" stroke-width="1px"></line><line x1="214.29019977569578" y1="0" x2="214.29019977569578" y2="5" style="visibility: inherit;" fill="rgb(0, 0, 0)" stroke="rgb(204, 204, 204)" stroke-width="1px"></line><line x1="321.4352996635437" y1="0" x2="321.4352996635437" y2="5" style="visibility: inherit;" fill="rgb(0, 0, 0)" stroke="rgb(204, 204, 204)" stroke-width="1px"></line><line x1="428.58039955139157" y1="0" x2="428.58039955139157" y2="5" style="visibility: inherit;" fill="rgb(0, 0, 0)" stroke="rgb(204, 204, 204)" stroke-width="1px"></line><line x1="535.7254994392395" y1="0" x2="535.7254994392395" y2="5" style="visibility: inherit;" fill="rgb(0, 0, 0)" stroke="rgb(204, 204, 204)" stroke-width="1px"></line><line x1="642.8705993270873" y1="0" x2="642.8705993270873" y2="5" style="visibility: inherit;" fill="rgb(0, 0, 0)" stroke="rgb(204, 204, 204)" stroke-width="1px"></line><line x1="750.0156992149352" y1="0" x2="750.0156992149352" y2="5" style="visibility: inherit;" fill="rgb(0, 0, 0)" stroke="rgb(204, 204, 204)" stroke-width="1px"></line><line x1="857.1607991027831" y1="0" x2="857.1607991027831" y2="5" style="visibility: inherit;" fill="rgb(0, 0, 0)" stroke="rgb(204, 204, 204)" stroke-width="1px"></line><line x1="964.305898990631" y1="0" x2="964.305898990631" y2="5" style="visibility: inherit;" fill="rgb(0, 0, 0)" stroke="rgb(204, 204, 204)" stroke-width="1px"></line><line x1="1071.450998878479" y1="0" x2="1071.450998878479" y2="5" style="visibility: inherit;" fill="rgb(0, 0, 0)" stroke="rgb(204, 204, 204)" stroke-width="1px"></line></g><g transform="translate(0, 8)"><text style="text-anchor: middle; visibility: hidden; font-family: Roboto, sans-serif; font-size: 12px; font-weight: 200;" x="0" y="0" dx="0em" dy="0.95em" fill="rgb(33, 33, 33)" stroke="none" stroke-width="1px">-10k</text><text style="text-anchor: middle; visibility: inherit; font-family: Roboto, sans-serif; font-size: 12px; font-weight: 200;" x="107.14509988784789" y="0" dx="0em" dy="0.95em" fill="rgb(33, 33, 33)" stroke="none" stroke-width="1px">0</text><text style="text-anchor: middle; visibility: inherit; font-family: Roboto, sans-serif; font-size: 12px; font-weight: 200;" x="214.29019977569578" y="0" dx="0em" dy="0.95em" fill="rgb(33, 33, 33)" stroke="none" stroke-width="1px">10k</text><text style="text-anchor: middle; visibility: inherit; font-family: Roboto, sans-serif; font-size: 12px; font-weight: 200;" x="321.4352996635437" y="0" dx="0em" dy="0.95em" fill="rgb(33, 33, 33)" stroke="none" stroke-width="1px">20k</text><text style="text-anchor: middle; visibility: inherit; font-family: Roboto, sans-serif; font-size: 12px; font-weight: 200;" x="428.58039955139157" y="0" dx="0em" dy="0.95em" fill="rgb(33, 33, 33)" stroke="none" stroke-width="1px">30k</text><text style="text-anchor: middle; visibility: inherit; font-family: Roboto, sans-serif; font-size: 12px; font-weight: 200;" x="535.7254994392395" y="0" dx="0em" dy="0.95em" fill="rgb(33, 33, 33)" stroke="none" stroke-width="1px">40k</text><text style="text-anchor: middle; visibility: inherit; font-family: Roboto, sans-serif; font-size: 12px; font-weight: 200;" x="642.8705993270873" y="0" dx="0em" dy="0.95em" fill="rgb(33, 33, 33)" stroke="none" stroke-width="1px">50k</text><text style="text-anchor: middle; visibility: inherit; font-family: Roboto, sans-serif; font-size: 12px; font-weight: 200;" x="750.0156992149352" y="0" dx="0em" dy="0.95em" fill="rgb(33, 33, 33)" stroke="none" stroke-width="1px">60k</text><text style="text-anchor: middle; visibility: inherit; font-family: Roboto, sans-serif; font-size: 12px; font-weight: 200;" x="857.1607991027831" y="0" dx="0em" dy="0.95em" fill="rgb(33, 33, 33)" stroke="none" stroke-width="1px">70k</text><text style="text-anchor: middle; visibility: inherit; font-family: Roboto, sans-serif; font-size: 12px; font-weight: 200;" x="964.305898990631" y="0" dx="0em" dy="0.95em" fill="rgb(33, 33, 33)" stroke="none" stroke-width="1px">80k</text><text style="text-anchor: middle; visibility: hidden; font-family: Roboto, sans-serif; font-size: 12px; font-weight: 200;" x="1071.450998878479" y="0" dx="0em" dy="0.95em" fill="rgb(33, 33, 33)" stroke="none" stroke-width="1px">90k</text></g><line x1="0" y1="0" x2="1071.450998878479" y2="0" fill="rgb(0, 0, 0)" stroke="rgb(204, 204, 204)" stroke-width="1px"></line></g></g></g></g></svg>